<svg width="137" height="99" viewBox="0 0 137 99" fill="none" xmlns="http://www.w3.org/2000/svg">
<path d="M11.5501 60.8939C11.5501 60.8939 1.31724 63.5251 3.67441 68.5999C6.55847 73.4179 11.5501 77.8888 11.5501 77.8888L18.5523 72.9806L13.0407 63.171L11.5571 60.8939H11.5501Z" fill="#008097"/>
<path d="M9.0127 41.1845C9.0127 41.1845 0 43.0243 0 46.787C1.31031 51.5148 3.41096 54.8471 3.41096 54.8471H12.8604L11.9869 47.3146L9.0127 41.1845Z" fill="#008097"/>
<path d="M23.2666 17.3514C18.2819 17.6985 7.25869 21.4682 4.8114 25.9391C4.8114 26.9041 8.57593 30.1462 8.57593 30.1462L14.6976 33.0342C14.7878 33.1244 20.9927 21.6487 23.2736 17.3514" fill="#008097"/>
<path d="M38.401 94.7032C63.3316 105.825 92.5535 94.613 103.66 69.6482C114.766 44.6835 103.57 15.4214 78.6393 4.29973C53.7088 -6.82889 24.4868 4.38998 13.3804 29.3547C2.26704 54.3195 13.4705 83.5816 38.401 94.7032Z" fill="#58A0B3"/>
<path d="M56.6899 3.86236L55.026 3.59855L53.7989 4.56354L53.7088 2.55025L53.0086 3.16118L52.3083 5.09116L50.4711 5.70209L48.8072 7.45157L50.4711 8.243L52.135 6.66708L54.9359 6.05615L56.2462 7.28495L56.3363 7.3752L58.5202 10.9644L60.7941 10.173L59.3937 8.68036L59.3036 6.66708L56.3294 4.9176L56.683 3.8693L56.6899 3.86236ZM55.8995 8.68036L54.1525 9.03443L55.2895 10.8742L56.5998 11.4851L57.2099 10.173L55.8995 8.68036ZM61.4112 3.59855C62.7215 3.59855 64.1219 3.6888 65.4322 3.77211L65.2589 2.36975L63.0751 1.66857L61.6746 2.2795L59.9275 1.84213H57.3L56.5096 2.45306L58.437 3.76517L59.6641 3.3278L61.4112 3.59161V3.59855ZM75.672 19.8923L78.2094 19.5452L77.7727 17.879L76.0256 18.1428L75.4155 17.7054L74.7153 18.7537L75.679 19.8923H75.672ZM78.1193 28.3897L78.2094 26.4598L76.8991 26.3695L76.2891 28.5564L78.1263 28.3828L78.1193 28.3897ZM79.6099 30.7571L81.5372 30.0559L80.837 28.3897C80.9271 27.2512 80.9271 26.1126 80.837 24.8005L79.8733 24.3632L79.4366 25.5017L79.7 26.55L78.9097 28.2162L77.6826 30.3197L79.6099 30.7571ZM90.8966 22.2596L88.9692 22.6068L88.5325 23.7453L84.5114 24.4465L83.8112 27.6886L86.1753 27.2512L86.7854 29.0909L87.7491 30.403L89.5863 28.5633L89.6764 26.9874L90.5499 26.2862L92.3871 25.585C92.2138 24.0994 91.9504 23.3079 90.8966 22.2596ZM93.3439 29.2645L93.6974 29.1742C93.6073 28.9104 92.8239 27.0707 92.7338 26.8069L92.297 27.2443L91.5067 28.9104C92.2069 28.8202 92.7338 29.084 93.3439 29.2575M89.7596 53.6183L90.5499 53.3545L91.5136 56.3328L91.6037 62.0255L92.3039 64.1291L90.7302 65.4412L91.3403 67.4545C90.7302 67.2809 90.2033 67.0171 89.5932 66.7533C89.5031 64.0388 89.6833 61.5812 89.9468 58.8667L89.2465 56.6799L89.7734 53.6114L89.7596 53.6183ZM61.9381 48.0991L59.4006 49.675V54.2292L61.5013 60.887L64.3854 60.0122L64.8221 61.4146L67.623 61.0605L67.9766 62.1991L70.1604 63.1641L70.8606 65.1774L69.0234 67.4545L69.8138 69.9954L68.4133 72.9736L68.5867 75.7784L66.9228 77.1807C66.2226 78.4928 65.6125 79.8952 64.9122 81.2073C64.7389 83.3108 64.6488 85.4977 64.4755 87.6914L63.6019 90.8433L62.9017 92.2456L64.0387 92.683L66.3127 92.4192L68.4133 93.3842L73.2247 91.1973L73.3149 89.8852L76.2891 89.0105L75.4987 86.4696L78.1263 85.6782L80.4002 85.4144L81.6273 84.8034L81.9809 82.5263L84.2549 77.3543L87.139 74.8134L89.8497 73.5846L93.9609 69.6413L94.571 68.3292C93.5241 68.0654 92.5604 67.7183 91.5968 67.3642L94.4808 66.3159L98.0651 65.6147L100.249 64.5664L101.123 62.7267C101.032 61.9353 101.032 61.1508 100.949 60.4496L98.9387 61.3243L98.5019 59.7484L97.5382 57.9989L98.5851 55.6316L99.4586 58.3461L101.469 58.957C101.906 60.0955 102.516 61.2341 102.779 62.5462L104.617 61.6715C105.317 60.2691 106.801 52.1257 105.927 44.3225C105.053 36.5262 101.289 28.119 101.289 28.119L100.415 28.7299L97.8779 29.8685L96.741 26.7166L98.8416 27.6816L100.242 26.9804L96.6578 24.4395L94.8206 22.6901L91.3195 22.2527L90.7094 22.3429L92.1098 25.585L92.81 25.3212L93.6836 25.6683L92.5466 26.7166L92.7199 27.5914C92.8932 28.2023 92.9834 28.7299 93.0735 29.3408L93.1636 29.6047L90.9798 29.9518L90.3697 30.8265L86.8686 31.7915L84.6847 30.1253L85.3849 28.723L83.8112 28.8965L83.7211 30.4725L82.3206 29.5977L80.5736 30.8265L78.7364 31.7013L76.3723 31.2639L77.1626 33.1939L76.8991 34.5962L75.1521 33.895L72.5245 34.0686L71.1241 37.394L72.0878 37.8314L72.5245 39.2337L75.0619 39.1435L76.809 37.4773L78.7364 37.2135L79.4366 36.6026L82.1473 37.2135L82.8475 39.317L83.9845 40.7194L82.4108 42.0315L83.8112 42.2051L85.2116 40.893L84.4213 38.2618L85.1215 38.5256L86.1684 40.5389L85.4681 42.1148L86.2585 44.3919L87.6589 42.1148H88.6226C88.9762 43.1631 89.2327 44.2183 89.4129 45.2666C89.4129 45.4402 89.5031 45.6138 89.5031 45.8776L91.8672 47.1064L92.914 48.7725L91.8672 49.4737L89.8566 50.1749L87.756 49.2099L86.7923 48.3352L85.2186 47.0231L83.6448 46.5857L81.9809 47.3771L80.317 42.9965L78.6532 41.4206L75.4155 40.3723L72.3512 39.9349C70.0772 40.9832 67.6299 42.0384 65.349 43.2603L61.5845 46.7662L61.9381 48.0783V48.0991ZM63.6019 16.5669L65.2658 16.3933L68.0667 14.5536C70.9508 14.9007 73.6684 14.991 76.5525 14.9007L80.5736 10.9575C79.3464 10.166 78.0361 9.5551 76.7258 8.94417C78.0361 9.5551 79.3534 10.173 80.5736 10.9575L80.7469 10.7839L77.1626 7.1947L71.9976 5.52853L65.2589 4.48023L63.595 5.09116L64.2952 6.13946L66.2226 9.29129L65.5223 10.7839L63.4217 11.6586L63.595 16.5669H63.6019ZM16.4447 26.55C16.3546 26.8971 16.7914 29.8754 16.7914 29.8754L19.3288 33.4646L22.3931 36.0055L23.0933 38.5464L24.6671 41.2609L26.0675 41.608L26.8579 42.4827L26.6845 42.7466L23.8005 45.7248L22.1366 46.7731V47.6479L19.9527 50.0152L20.5628 56.7632L22.4 60.7065L22.8368 63.0738L20.9095 66.9268V69.6413L18.0254 73.4943C18.0254 73.4943 17.9353 73.4943 17.9353 73.8484C17.8451 74.2857 21.4364 79.0204 22.0465 79.3676H22.1366L22.9269 79.194L23.0171 78.1457L24.9444 77.4445L25.9912 76.3962L28.5287 76.5698L32.0298 73.2444V71.9323L33.9571 70.7937L36.6678 71.4047L39.2954 69.0373L40.6057 65.1843L43.7532 63.2543L45.327 60.6232C43.2263 58.0823 41.2158 55.5413 39.1151 52.9171L38.9418 49.7653L36.5777 48.0158L36.8412 43.899L33.5203 42.7604L31.593 39.5184L27.4818 40.7472L27.3085 41.0943C26.5181 40.3931 25.4713 39.9557 24.9444 39.081L25.1177 36.9775L25.9912 34.9642L23.9807 34.263L26.1646 30.5835L25.0276 30.1462L23.1904 31.1112H21.7899L20.5628 29.445L21.3532 27.3414L22.6635 25.2379L25.9011 24.4465L27.8284 25.3212L28.702 24.3562L30.8858 26.0224L31.6762 29.0909L33.6867 25.5017L37.888 24.2729L40.2521 21.9958H41.2158L42.9629 22.0861L45.0635 20.8573L48.211 21.6487L50.7484 20.0728L46.3738 18.0595L49.7016 17.9693L51.6289 18.844L54.7764 19.1078L55.65 18.1428L55.0399 16.7405L54.0762 15.8657L54.9497 14.9007L54.8596 12.8874L52.759 12.7972L53.7226 11.4851L51.9756 9.20798L51.8854 9.29823H51.7953L48.731 11.4851L48.4675 12.6236H46.2837L44.0998 14.5536L44.5366 12.1863L42.0893 9.47179L42.3528 7.54182L47.5108 6.93089L50.1384 6.05615L51.1852 4.12617L50.3949 3.16118L49.1678 2.46L47.4207 4.12617C47.4207 4.12617 45.8469 3.77211 45.4933 3.77211C39.1983 5.70209 26.1576 10.6034 16.4516 26.55M54.1525 19.6285L53.4523 22.4332L55.1161 21.3849L54.1525 19.6354V19.6285Z" fill="white"/>
<path d="M71.644 19.7187C43.1292 32.1595 8.92257 31.8054 4.8114 25.8488C2.88406 30.1392 1.31031 36.7136 1.13699 40.2126C13.0338 50.286 51.1783 44.9403 77.5994 33.5549L79.1731 37.5884L94.9176 17.5249L68.6768 14.4564L71.651 19.7118L71.644 19.7187Z" fill="#35758C"/>
<path d="M83.8944 55.6385L86.0782 59.9289C63.3316 71.5782 19.8557 80.3395 3.58428 68.5166C6.6486 76.3129 9.79611 81.3045 12.0701 84.1092C31.489 93.6549 68.6699 86.1225 91.7632 74.0358L93.5103 78.4164L106.107 54.4167L83.8875 55.6455L83.8944 55.6385Z" fill="#35758C"/>
<path d="M112.763 15.2478L116.61 19.802C105.324 28.5633 94.4739 34.867 75.7552 41.8788C45.0566 53.4447 8.13916 57.0409 0 46.7037C0 52.9171 0.610091 57.4783 1.66388 62.3796C15.0512 72.807 60.7109 64.3096 83.9845 54.0557C104.54 45.5582 113.116 40.039 124.666 30.7571L127.551 35.4015L137 10.6103L112.77 15.2548L112.763 15.2478Z" fill="#35758C"/>
<path d="M76.8991 76.4865L75.9355 73.5082L77.2458 69.1276L75.4086 69.919L74.7084 72.5501L72.6978 71.1478L70.7705 71.9392L74.3548 74.3066L75.3185 77.2848L76.8922 76.4934L76.8991 76.4865ZM63.8585 73.9456L64.1219 75.0841L66.3959 74.2927L67.9696 79.548L69.6335 79.1107L68.0598 73.8553L70.3337 73.0639L69.9802 71.9253L63.8585 73.9386V73.9456ZM60.8011 79.9924L60.2742 78.4998L63.2484 77.7083L62.8948 76.5698L59.9206 77.3612L59.3937 75.9588L62.458 75.1674L62.1946 74.0289L57.4733 75.2577L59.574 81.5683L64.3854 80.3395L64.0318 79.2009L60.7941 79.9924H60.8011ZM53.4523 76.0491L55.6361 82.5333L57.3 82.1792L55.1161 75.695L53.4523 76.0491ZM52.0518 81.6516C51.7884 81.7418 51.4417 81.8251 51.0882 81.9154C50.3879 82.0056 49.7778 81.9154 49.1608 81.6516C48.5438 81.3878 48.1972 80.8602 48.0238 80.3395C47.8505 79.7286 47.9337 79.2912 48.1972 78.7636C48.4606 78.2359 49.0707 78.0624 49.7709 77.9721C50.4711 77.8819 51.3447 77.9721 52.3083 78.2359L51.8716 76.8336C51.0812 76.5698 50.2077 76.4795 49.244 76.66C48.107 76.8336 47.2335 77.3612 46.6165 78.0624C46.1797 78.8538 46.0064 79.7286 46.353 80.6033C46.6165 81.5683 47.3167 82.2695 48.1902 82.7901C49.0638 83.2275 50.1176 83.4913 51.3377 83.2275C52.2113 83.1373 53.0848 82.7901 53.7018 82.1792L53.2651 80.7768C52.7382 81.3045 52.3014 81.5683 52.038 81.6516M40.3284 82.6166C39.8916 82.2625 39.538 81.8251 39.3647 81.2142C39.1914 80.6033 39.2746 80.0757 39.538 79.6383C39.8015 79.2842 40.3284 79.0274 40.8483 78.9371C41.5486 78.8469 41.9853 79.0274 42.5122 79.2912C42.949 79.6452 43.3026 80.0826 43.4759 80.6935C43.6492 81.3045 43.566 81.7418 43.3026 82.2695C43.0391 82.6235 42.5122 82.9706 41.9923 82.9706C41.3822 83.0609 40.8553 82.8804 40.3284 82.6166ZM38.1445 78.8469C37.5344 79.6383 37.4443 80.4228 37.7078 81.3878C37.8811 82.3528 38.4981 83.1373 39.4548 83.6649C40.3284 84.2758 41.3822 84.5396 42.5192 84.4563C43.6561 84.373 44.4465 84.0189 45.0566 83.2275C45.6667 82.4361 45.7568 81.6516 45.4933 80.6866C45.32 79.8119 44.703 79.0204 43.8295 78.4095C42.9559 77.7986 41.9021 77.5348 40.7651 77.6181C39.4548 77.7083 38.5813 78.0554 38.1376 78.8469M32.4527 77.7986C31.6623 77.7986 31.1424 77.9721 30.7056 78.4095C30.3589 78.7636 30.3589 79.2842 30.5323 79.8119C30.7056 80.2492 30.8789 80.6033 31.2325 80.8602C31.4959 81.124 31.9327 81.2975 32.1961 81.5613C32.5428 81.7349 32.9865 81.8251 33.5065 81.9987C34.1165 82.1723 34.4701 82.2625 34.5533 82.4361C34.6365 82.6096 34.8168 82.6999 34.8168 82.7901C34.9069 83.1442 34.7266 83.4011 34.0264 83.4913C33.6798 83.4913 33.2361 83.4011 32.8894 83.3178C32.5428 83.2275 32.0159 82.9637 31.489 82.6166L31.9258 84.0189C32.8894 84.373 33.763 84.7201 34.5533 84.7201C35.3437 84.7201 35.8636 84.5466 36.2172 84.1092C36.5638 83.7551 36.5638 83.2344 36.3905 82.7068C36.2172 82.2695 36.0439 81.9154 35.6903 81.6585C35.4268 81.3947 34.9901 81.2212 34.7266 80.9574C34.38 80.7838 33.9363 80.6935 33.4163 80.52C32.8062 80.3464 32.4527 80.2562 32.3695 80.0826C32.1961 79.9924 32.106 79.909 32.106 79.7286C32.0159 79.555 32.106 79.4647 32.1961 79.3745C32.2863 79.2842 32.5428 79.2009 32.8964 79.2009C33.3331 79.2009 34.2067 79.3745 35.1703 79.8119L34.7336 78.4998C34.0333 77.9721 33.2499 77.7986 32.4596 77.7986" fill="#E5E5E5"/>
<path d="M95.7912 43.899L93.2537 38.9907L91.8533 39.7822L94.9176 45.7387L99.4656 43.4616L98.8555 42.4133L95.7912 43.899ZM88.3591 46.0858L88.1858 43.2811L90.2865 45.2111L88.3591 46.0858ZM86.6051 42.2328L86.9587 49.4182L88.6226 48.6267L88.5325 47.2244L91.2432 45.9956L92.2901 46.9606L93.9539 46.1691L88.4423 41.3511L86.6051 42.2259V42.2328ZM81.7937 44.3364L83.3675 48.1894L78.466 45.6485L76.9754 46.2594L79.5128 52.4798L81.0866 51.8688L79.4227 48.0158L84.4074 50.647L85.7177 50.2096L83.1803 43.9892L81.7799 44.3364H81.7937ZM72.4344 53.0976C71.9976 52.9241 71.5609 52.4867 71.3875 51.9591C71.2142 51.3482 71.2142 50.8205 71.4777 50.2929C71.7411 49.8555 72.1779 49.4182 72.7048 49.2446C73.3149 49.0711 73.8418 49.0711 74.3687 49.2446C74.8054 49.4182 75.2422 49.9458 75.4155 50.4734C75.5888 51.0843 75.5888 51.612 75.3254 52.1396C75.1521 52.577 74.6252 53.0143 74.0983 53.1879C73.4882 53.2781 72.8712 53.2781 72.4344 53.0976ZM69.897 49.8555C69.4602 50.7303 69.4602 51.605 69.7237 52.4867C69.9871 53.3684 70.6873 54.0626 71.5609 54.4167C72.4344 54.7638 73.4882 54.7638 74.535 54.4167C75.5819 54.0696 76.3723 53.4517 76.809 52.4867C77.2458 51.612 77.2458 50.7372 76.9823 49.8555C76.7189 48.9739 76.1088 48.2796 75.1451 47.9256C74.2716 47.5784 73.2178 47.5784 72.1709 47.9256C71.1241 48.2727 70.4239 48.9739 69.897 49.8555ZM65.6957 50.2027L67.7062 56.6868L69.3701 56.2495L67.2694 49.7653L65.6957 50.2027ZM58.1735 52.3062L58.437 53.4448L60.7109 52.7436L62.2847 57.9989L63.9486 57.5616L62.3748 52.3062L64.6488 51.605L64.3854 50.4665L58.1735 52.3062ZM55.1161 57.388L55.4697 54.5833L57.1336 56.8604L55.1231 57.388H55.1161ZM54.1525 53.2712L53.1056 60.3663L54.8527 60.0122L55.026 58.6099L57.9101 57.9087L58.7836 59.0472L60.5307 58.6932L55.9827 52.9102L54.1455 53.2573L54.1525 53.2712ZM48.8142 54.5833L49.7778 58.6099L45.4032 55.3678L43.8295 55.6316L45.4032 62.1991L47.0671 61.9353L46.0202 57.6449L50.6583 61.1508L51.9686 60.887L50.3949 54.3195L48.8211 54.5833H48.8142ZM39.7183 57.2978C40.4185 57.2075 40.6819 57.388 40.7651 57.9087C40.7651 58.1725 40.7651 58.3461 40.5918 58.5196C40.5017 58.6932 40.2452 58.7834 39.8916 58.7834L39.0181 58.8737L38.7546 57.2978H39.7183ZM38.2277 62.9974L39.8916 62.8239L39.4548 60.1094L39.8916 60.0192C40.0649 60.0192 40.3284 60.0192 40.5918 60.1927C40.7651 60.3663 41.0286 60.6301 41.4654 61.241C41.812 61.852 42.1656 62.206 42.2557 62.3796L44.0929 62.1158C43.7463 61.5048 43.3026 60.9772 42.9559 60.3663C42.6093 59.7554 42.1656 59.4013 41.8189 59.318C42.5192 58.8806 42.7826 58.2697 42.6925 57.5685C42.6023 57.1311 42.3458 56.6035 41.8189 56.3397C41.3822 56.0759 40.7721 55.9926 40.1551 56.0759L37.1809 56.423L38.2277 62.9905V62.9974ZM33.1529 62.2963L32.9796 60.6301L36.0439 60.3663L35.7804 59.1375L32.7161 59.4013L32.5428 58.0892L35.6903 57.8254L35.517 56.5966L30.6155 56.9437L31.5791 63.6014L36.4806 63.1641L36.3905 62.0255L33.1529 62.2893V62.2963ZM22.92 57.2145L23.0101 58.4433L25.3742 58.353L26.0744 63.8722H27.7383L27.0381 58.353L29.4022 58.2628L29.3121 57.034L22.9269 57.2075L22.92 57.2145ZM20.2092 57.034L20.4727 61.1508L16.625 56.7701L15.0512 56.6799L15.488 63.4279L17.1519 63.5181L16.8884 59.2277L20.8263 63.8722L22.2267 63.9624L21.7899 57.1311L20.2162 57.0409L20.2092 57.034ZM11.5501 56.1592L11.8968 63.0808L13.5606 63.3446L13.214 56.423L11.5501 56.1592Z" fill="#E5E5E5"/>
<path d="M79.3464 20.1561C78.6462 20.5032 78.2094 20.9475 77.946 21.4682C77.6826 21.9056 77.7727 22.5165 78.0361 23.0441C78.2094 23.3912 78.4729 23.7453 78.9097 23.9189C79.1731 24.0924 79.6099 24.0924 79.9565 24.0924C80.3032 24.0924 80.7469 24.0924 81.2668 24.0022C81.8769 23.9119 82.1404 23.9119 82.3137 24.0022C82.487 24.0924 82.5771 24.0924 82.6673 24.266C82.8406 24.6131 82.6673 24.9672 82.0572 25.231C81.7036 25.4045 81.357 25.4948 81.0103 25.4948H79.6099L80.3101 26.7236C81.2738 26.7236 82.0572 26.55 82.8475 26.1126C83.5477 25.7655 83.9845 25.3212 84.248 24.8005C84.5114 24.2799 84.4213 23.7522 84.1578 23.1344C83.9845 22.7873 83.7211 22.4332 83.2843 22.3429C82.9307 22.1694 82.494 22.0791 82.2374 22.0791C81.8839 22.0791 81.4471 22.0791 80.9271 22.1694C80.317 22.2596 80.0536 22.2596 79.8803 22.1694C79.7069 22.1694 79.6168 22.0791 79.5267 21.9958C79.4366 21.8223 79.4366 21.732 79.5267 21.5585C79.6168 21.3849 79.7901 21.2946 80.1368 21.1211C80.5735 20.8573 81.3639 20.774 82.3206 20.6837L81.6204 19.5452C80.7469 19.5452 79.8733 19.7187 79.3464 20.1561ZM73.8348 27.515L73.6615 24.7103L75.7622 26.6403L73.8348 27.515ZM72.0878 23.5717L72.3512 30.8404L74.0151 30.049L73.9249 28.6466L76.7258 27.4178L77.7727 28.3828L79.4366 27.5914L73.8348 22.5998L72.0878 23.5648V23.5717ZM66.7495 26.0293L69.2869 32.2497L70.8606 31.6388L68.3232 25.4184L66.7495 26.0293ZM61.8479 29.0909C62.5481 28.9174 63.0751 28.9174 63.595 29.0909C64.0318 29.2645 64.4685 29.7921 64.6419 30.3197C64.8152 30.9307 64.8152 31.4583 64.6419 31.9859C64.4685 32.5135 63.9417 32.8606 63.3316 33.0342L62.2847 33.3813L60.8843 29.3478L61.8479 29.084V29.0909ZM61.0645 35.1377L63.6921 34.1727C64.8291 33.8256 65.7026 33.1244 66.0562 32.333C66.4929 31.5416 66.4929 30.6668 66.1463 29.6185C65.8829 28.6536 65.1826 27.9524 64.3992 27.6886C63.5257 27.3414 62.562 27.3414 61.5152 27.6886L58.7143 28.6536L61.0784 35.1377H61.0645ZM54.3258 34.5268L54.4991 31.7221L56.2462 33.9089L54.3189 34.5199L54.3258 34.5268ZM53.1888 30.4933L52.3985 37.6786L54.1455 37.2413L54.2357 35.8389L57.1197 34.9642L57.9933 36.1027L59.7403 35.6653L55.0191 29.9726L53.1819 30.5002L53.1888 30.4933ZM48.0308 33.0342C48.4675 32.9439 48.8211 32.9439 48.9944 33.0342C49.1678 33.1244 49.348 33.298 49.348 33.6451C49.4381 34.0825 49.1747 34.5199 48.4745 34.6101L47.7743 34.7004L47.4276 33.1244L48.0377 33.0342H48.0308ZM47.0671 38.9005L48.731 38.5534L48.1209 35.9222L49.348 35.6584C50.0482 35.4848 50.485 35.221 50.7484 34.6934C51.0119 34.1658 51.102 33.7284 51.0119 33.1175C50.9218 32.6801 50.6583 32.1525 50.1384 31.8887C49.7016 31.6249 49.0915 31.5416 48.3913 31.7151L45.5072 32.4163L47.081 38.9005H47.0671ZM41.5555 32.9439C40.7651 33.0342 40.2452 33.2911 39.8084 33.8187C39.4618 34.1658 39.1983 34.7837 39.3716 35.3946C39.4618 35.832 39.6351 36.186 39.8084 36.4429C40.0719 36.7067 40.4185 36.79 40.6819 36.8803C40.9454 36.9705 41.4723 37.0538 41.9091 37.1441C42.3458 37.2343 42.7826 37.3176 42.9559 37.4079C43.1292 37.4981 43.1292 37.5814 43.2194 37.755C43.3095 38.1021 43.0461 38.4562 42.3458 38.5464C41.9992 38.6367 41.5555 38.6367 41.2088 38.5464C40.8622 38.4562 40.4185 38.3729 39.9817 38.1091L40.1551 39.4212C41.0286 39.685 41.8189 39.7683 42.6925 39.5947C43.4828 39.5045 44.0028 39.2476 44.4396 38.72C44.7862 38.2826 45.0496 37.755 44.8763 37.1441C44.7862 36.797 44.6129 36.3526 44.4396 36.0958C44.1761 35.832 43.8295 35.7487 43.566 35.6584C43.3026 35.5682 42.7757 35.4848 42.3389 35.3946C41.9021 35.3043 41.4654 35.221 41.3752 35.1308C41.2019 35.0405 41.2019 34.9572 41.1118 34.867C41.1118 34.6934 41.1118 34.6032 41.2851 34.4296C41.4584 34.3394 41.6318 34.256 41.9853 34.1658C42.4221 34.0755 43.2124 34.1658 44.1692 34.3394L43.9958 33.1106C43.0322 32.7634 42.2488 32.7634 41.5486 32.937M33.243 38.9907C32.8964 38.6436 32.5428 38.1993 32.5428 37.5884C32.4527 36.9775 32.6329 36.4498 32.8894 36.0125C33.2361 35.6653 33.763 35.3113 34.2899 35.3113C34.9901 35.221 35.4268 35.4015 35.8636 35.6584C36.2103 35.9222 36.5638 36.4498 36.654 37.0608C36.7441 37.6717 36.5638 38.1993 36.3073 38.6367C35.9607 38.9838 35.4338 39.3379 34.9069 39.3379C34.2067 39.4281 33.6798 39.2476 33.243 38.9907ZM31.5791 35.221C30.8789 36.0125 30.7056 36.8872 30.7888 37.7619C30.8789 38.7269 31.3989 39.5114 32.0991 40.039C32.8894 40.65 33.8462 40.9138 34.9831 40.8305C36.1201 40.7472 36.9937 40.2195 37.6107 39.5184C38.3109 38.7269 38.5744 37.8522 38.4842 36.9775C38.3941 36.1027 38.0475 35.3113 37.1739 34.7004C36.3836 34.0894 35.4268 33.8256 34.2899 33.9089C33.1529 34.0825 32.2793 34.4365 31.5791 35.221ZM26.6845 35.6653C27.1213 35.6653 27.4749 35.6653 27.6482 35.8389C27.8215 35.9292 27.9116 36.1027 27.9116 36.4498C27.9116 36.8872 27.6482 37.2413 26.8648 37.2413H26.1646V35.6653H26.6915H26.6845ZM24.5839 41.1845H26.2478V38.4701H27.5581C28.2583 38.4701 28.7852 38.2965 29.222 37.8591C29.5686 37.512 29.832 36.9844 29.832 36.4568C29.832 35.8458 29.6587 35.4918 29.222 35.1447C28.8753 34.7976 28.2583 34.5337 27.5581 34.5337H24.5839V41.1915V41.1845ZM20.4727 41.004L20.646 37.9355L23.5301 34.6101L21.5196 34.5199L19.8557 36.5331L18.5454 34.3463L16.5348 34.1727L18.8989 37.9424L18.7256 41.011H20.4727V41.004ZM13.9974 33.5618L13.6508 36.2763L10.5033 35.6653L10.8499 32.9509L9.10283 32.6871L8.22929 39.3448L9.89317 39.6086L10.2398 36.8941L13.4775 37.5051L13.1308 40.2195L14.7947 40.4834L15.6682 33.8256L14.0044 33.5618H13.9974Z" fill="#E5E5E5"/>
</svg>
