<svg width="160" height="116" viewBox="0 0 160 116" fill="none" xmlns="http://www.w3.org/2000/svg">
<path d="M13.4892 71.3504C13.4892 71.3504 1.53838 74.4334 4.29128 80.3797C7.65953 86.0251 13.4892 91.2637 13.4892 91.2637L21.6669 85.5126L15.23 74.0186L13.4973 71.3504H13.4892Z" fill="#008097"/>
<path d="M10.5258 48.2566C10.5258 48.2566 0 50.4123 0 54.8212C1.53029 60.3607 3.9836 64.2653 3.9836 64.2653H15.0195L13.9993 55.4394L10.5258 48.2566Z" fill="#008097"/>
<path d="M27.1727 20.3309C21.3511 20.7376 8.4773 25.1547 5.61915 30.3933C5.61915 31.524 10.0157 35.3228 10.0157 35.3228L17.1651 38.7067C17.2704 38.8125 24.517 25.3662 27.1808 20.3309" fill="#008097"/>
<path d="M44.8479 110.965C73.9639 123.997 108.092 110.86 121.063 81.608C134.034 52.3564 120.957 18.0695 91.8415 5.03807C62.7256 -8.00152 28.5977 5.14382 15.6267 34.3954C2.64764 63.6471 15.732 97.934 44.8479 110.965Z" fill="#58A0B3"/>
<path d="M66.2072 4.5256L64.264 4.21648L62.8308 5.34718L62.7256 2.98818L61.9078 3.70401L61.09 5.9654L58.9444 6.68124L57.0012 8.73113L58.9444 9.65846L60.8876 7.81193L64.1587 7.0961L65.689 8.5359L65.7942 8.64165L68.3447 12.8472L71.0005 11.9198L69.3649 10.1709L69.2597 7.81193L65.7861 5.76204L66.1991 4.53373L66.2072 4.5256ZM65.2841 10.1709L63.2438 10.5858L64.5716 12.7414L66.1019 13.4573L66.8144 11.9198L65.2841 10.1709ZM71.7211 4.21648C73.2514 4.21648 74.8869 4.32223 76.4172 4.41985L76.2148 2.77668L73.6643 1.9551L72.0287 2.67093L69.9884 2.15846H66.9197L65.9967 2.87429L68.2476 4.41171L69.6807 3.89924L71.7211 4.20835V4.21648ZM88.3761 23.3081L91.3395 22.9014L90.8294 20.9491L88.789 21.2582L88.0765 20.7458L87.2587 21.9741L88.3842 23.3081H88.3761ZM91.2343 33.2648L91.3395 31.0034L89.8092 30.8976L89.0967 33.46L91.2423 33.2566L91.2343 33.2648ZM92.9751 36.0386L95.226 35.217L94.4082 33.2648C94.5134 31.9307 94.5134 30.5966 94.4082 29.0592L93.2827 28.5467L92.7726 29.8808L93.0803 31.1091L92.1573 33.0614L90.7242 35.5261L92.9751 36.0386ZM106.157 26.082L103.906 26.4887L103.396 27.8228L98.6995 28.6444L97.8817 32.4432L100.643 31.9307L101.355 34.0863L102.481 35.6238L104.626 33.4681L104.732 31.6216L105.752 30.8L107.897 29.9784C107.695 28.2376 107.387 27.3103 106.157 26.082ZM109.015 34.2897L109.428 34.184C109.322 33.8748 108.407 31.7192 108.302 31.4101L107.792 31.9226L106.869 33.8748C107.687 33.7691 108.302 34.0782 109.015 34.2816M104.829 62.8255L105.752 62.5164L106.877 66.0061L106.982 72.6764L107.8 75.1411L105.962 76.6785L106.675 79.0375C105.962 78.8342 105.347 78.5251 104.634 78.216C104.529 75.0354 104.74 72.1558 105.047 68.9752L104.23 66.4128L104.845 62.8174L104.829 62.8255ZM72.3364 56.3586L69.373 58.2051V63.5413L71.8263 71.3423L75.1946 70.3174L75.7047 71.9605L78.9758 71.5457L79.3887 72.8797L81.9392 74.0104L82.7569 76.3694L80.6113 79.0375L81.5343 82.0148L79.8988 85.5045L80.1012 88.7908L78.158 90.434C77.3402 91.9714 76.6277 93.6145 75.8099 95.152C75.6075 97.6167 75.5023 100.179 75.2998 102.75L74.2796 106.443L73.4619 108.086L74.7897 108.598L77.4455 108.289L79.8988 109.42L85.5179 106.857L85.6232 105.32L89.0967 104.295L88.1737 101.318L91.2423 100.391L93.8981 100.081L95.3312 99.3656L95.7441 96.6975L98.3999 90.6373L101.768 87.6601L104.934 86.2203L109.735 81.5999L110.448 80.0625C109.225 79.7534 108.1 79.3466 106.974 78.9318L110.343 77.7035L114.529 76.8819L117.079 75.6536L118.099 73.4979C117.994 72.5706 117.994 71.6514 117.897 70.8298L115.549 71.8548L115.039 70.0082L113.913 67.9584L115.136 65.1845L116.156 68.3651L118.504 69.0809C119.014 70.415 119.727 71.749 120.034 73.2864L122.18 72.2615C122.998 70.6183 124.731 61.0766 123.71 51.9334C122.69 42.7984 118.294 32.9475 118.294 32.9475L117.273 33.6633L114.31 34.9974L112.982 31.3043L115.435 32.435L117.071 31.6135L112.885 28.6362L110.739 26.5863L106.65 26.0739L105.938 26.1796L107.574 29.9784L108.391 29.6693L109.411 30.076L108.084 31.3043L108.286 32.3293C108.488 33.0451 108.594 33.6633 108.699 34.3792L108.804 34.6883L106.254 35.095L105.541 36.12L101.452 37.2507L98.9019 35.2984L99.7197 33.6552L97.8817 33.8586L97.7764 35.7051L96.1409 34.6802L94.1005 36.12L91.9549 37.1449L89.1939 36.6324L90.1169 38.8938L89.8092 40.537L87.7688 39.7154L84.7002 39.9188L83.0646 43.8152L84.1901 44.3277L84.7002 45.9708L87.6636 45.8651L89.704 43.9128L91.9549 43.6037L92.7726 42.8879L95.9385 43.6037L96.7562 46.0684L98.0841 47.7116L96.2461 49.249L97.8817 49.4524L99.5172 47.915L98.5942 44.832L99.412 45.1411L100.635 47.5001L99.8168 49.3466L100.74 52.0148L102.375 49.3466H103.501C103.914 50.575 104.213 51.8114 104.424 53.0397C104.424 53.2431 104.529 53.4464 104.529 53.7555L107.29 55.1953L108.513 57.1476L107.29 57.9692L104.942 58.7908L102.489 57.6601L101.363 56.6352L99.5253 55.0977L97.6874 54.5853L95.7441 55.5126L93.8009 50.3797L91.8577 48.5332L88.0765 47.3049L84.4977 46.7924C81.842 48.0207 78.9839 49.2572 76.32 50.6888L71.9235 54.7968L72.3364 56.3342V56.3586ZM74.2796 19.4117L76.2229 19.2084L79.494 17.0527C82.8622 17.4594 86.0361 17.5652 89.4044 17.4594L94.1005 12.839C92.6674 11.9117 91.1371 11.1959 89.6068 10.48C91.1371 11.1959 92.6755 11.9198 94.1005 12.839L94.3029 12.6357L90.1169 8.43015L84.0848 6.47787L76.2148 5.24957L74.2715 5.9654L75.0893 7.19371L77.3402 10.8868L76.5224 12.6357L74.0691 13.6606L74.2715 19.4117H74.2796ZM19.2055 31.1091C19.1002 31.5158 19.6103 35.0055 19.6103 35.0055L22.5738 39.2111L26.1525 42.1883L26.9703 45.1655L28.8083 48.3461L30.4438 48.7528L31.3668 49.7778L31.1644 50.0869L27.7962 53.5766L25.8529 54.8049V55.8298L23.3025 58.6037L24.015 66.5104L26.1606 71.1308L26.6707 73.9047L24.4198 78.4193V81.5999L21.0516 86.1145C21.0516 86.1145 20.9463 86.1145 20.9463 86.5294C20.8411 87.0419 25.0352 92.5896 25.7477 92.9963H25.8529L26.776 92.793L26.8812 91.5647L29.1321 90.7431L30.3547 89.5148L33.3182 89.7181L37.407 85.8217V84.2843L39.6579 82.9502L42.8237 83.6661L45.8924 80.8922L47.4227 76.3776L51.0986 74.1162L52.9366 71.0332C50.4833 68.056 48.1352 65.0788 45.6819 62.0039L45.4795 58.3109L42.7185 56.261L43.0262 51.4372L39.1478 50.1031L36.8969 46.3043L32.0955 47.7441L31.8931 48.1509C30.9701 47.3293 29.7475 46.8168 29.1321 45.7919L29.3345 43.3271L30.3547 40.9681L28.0067 40.1465L30.5572 35.8353L29.2293 35.3228L27.0837 36.4535H25.4481L24.015 34.5012L24.938 32.0364L26.4683 29.5717L30.2495 28.6444L32.5004 29.6693L33.5206 28.5386L36.071 30.4909L36.9941 34.0863L39.3421 29.8808L44.2488 28.441L47.0098 25.7729H48.1352L50.1756 25.8786L52.6289 24.4388L56.3048 25.3662L59.2683 23.5196L54.1592 21.1606L58.0456 21.0549L60.2965 22.0798L63.9725 22.3889L64.9927 21.2582L64.2802 19.6151L63.1547 18.5901L64.1749 17.4594L64.0696 15.1004L61.6163 14.9947L62.7418 13.4573L60.7014 10.7892L60.5961 10.8949H60.4909L56.9121 13.4573L56.6044 14.7913H54.0539L51.5035 17.0527L52.0136 14.2789L49.1554 11.0983L49.4631 8.83687L55.4871 8.12104L58.5557 7.0961L59.7784 4.83471L58.8553 3.70401L57.4222 2.88243L55.3818 4.83471C55.3818 4.83471 53.5439 4.41985 53.1309 4.41985C45.7791 6.68124 30.5491 12.4242 19.2136 31.1091M63.2438 22.999L62.426 26.2854L64.3692 25.0571L63.2438 23.0072V22.999Z" fill="white"/>
<path d="M83.6719 23.1048C50.3699 37.6818 10.4205 37.2669 5.61915 30.2875C3.36825 35.3146 1.53029 43.018 1.32787 47.1178C15.2219 58.9209 59.7703 52.6574 90.627 39.3168L92.465 44.043L110.853 20.5343L80.2065 16.9388L83.68 23.0966L83.6719 23.1048Z" fill="#35758C"/>
<path d="M97.9789 65.1926L100.529 70.2197C73.9639 83.8694 23.1891 94.1352 4.18602 80.2821C7.76479 89.4172 11.4407 95.2658 14.0965 98.5522C36.7755 109.737 80.1984 100.911 107.169 86.749L109.209 91.8819L123.921 63.761L97.9707 65.2008L97.9789 65.1926Z" fill="#35758C"/>
<path d="M131.694 17.8662L136.187 23.2024C123.006 33.4681 110.334 40.8542 88.4733 49.0701C52.6208 62.6221 9.50559 66.8358 0 54.7235C0 62.0039 0.712515 67.3483 1.94322 73.0912C17.5781 85.3092 70.9033 75.3526 98.0841 63.338C122.091 53.3814 132.107 46.9144 145.596 36.0386L148.964 41.4806L160 12.4323L131.702 17.8743L131.694 17.8662Z" fill="#35758C"/>
<path d="M89.8092 89.6205L88.6838 86.1308L90.2141 80.9979L88.0684 81.9253L87.2506 85.0083L84.9026 83.3651L82.6517 84.2924L86.8377 87.0663L87.9632 90.556L89.8011 89.6286L89.8092 89.6205ZM74.5792 86.6433L74.8869 87.9773L77.5426 87.05L79.3806 93.2078L81.3238 92.6953L79.4859 86.5375L82.1416 85.6102L81.7287 84.2761L74.5792 86.6352V86.6433ZM71.0086 93.7284L70.3932 91.9795L73.8667 91.0522L73.4538 89.7181L69.9803 90.6455L69.3649 89.0023L72.9437 88.075L72.636 86.7409L67.1221 88.1807L69.5754 95.575L75.1946 94.1352L74.7816 92.8011L71.0005 93.7284H71.0086ZM62.426 89.108L64.9765 96.7057L66.9197 96.2908L64.3692 88.6932L62.426 89.108ZM60.7904 95.6726C60.4828 95.7783 60.0779 95.8759 59.665 95.9817C58.8472 96.0874 58.1347 95.9817 57.4141 95.6726C56.6935 95.3635 56.2886 94.7452 56.0862 94.1352C55.8838 93.4193 55.981 92.9068 56.2886 92.2886C56.5963 91.6704 57.3088 91.467 58.1266 91.3613C58.9444 91.2555 59.9646 91.3613 61.09 91.6704L60.5799 90.0272C59.6569 89.7181 58.6367 89.6124 57.5113 89.8239C56.1834 90.0272 55.1632 90.6455 54.4426 91.467C53.9325 92.3944 53.7301 93.4193 54.1349 94.4443C54.4426 95.575 55.2604 96.3965 56.2806 97.0066C57.3007 97.5191 58.5315 97.8282 59.9565 97.5191C60.9767 97.4134 61.9969 97.0066 62.7175 96.2908L62.2074 94.6476C61.592 95.2658 61.0819 95.575 60.7743 95.6726M47.0988 96.8033C46.5887 96.3884 46.1758 95.8759 45.9734 95.1601C45.771 94.4443 45.8681 93.826 46.1758 93.3136C46.4835 92.8987 47.0988 92.5977 47.7061 92.492C48.5239 92.3862 49.034 92.5977 49.6493 92.9068C50.1594 93.3217 50.5723 93.8342 50.7748 94.55C50.9772 95.2658 50.88 95.7783 50.5723 96.3965C50.2647 96.8114 49.6493 97.2181 49.0421 97.2181C48.3295 97.3239 47.7142 97.1124 47.0988 96.8033ZM44.5484 92.3862C43.8358 93.3136 43.7306 94.2328 44.0383 95.3635C44.2407 96.4942 44.9613 97.4134 46.0786 98.0316C47.0988 98.7474 48.3295 99.0565 49.6574 98.9589C50.9853 98.8613 51.9083 98.4464 52.6208 97.5191C53.3333 96.5918 53.4386 95.6726 53.1309 94.5419C52.9285 93.5169 52.2079 92.5896 51.1877 91.8738C50.1675 91.1579 48.9368 90.8488 47.6089 90.9464C46.0786 91.0522 45.0584 91.4589 44.5403 92.3862M37.9009 91.1579C36.9779 91.1579 36.3706 91.3613 35.8605 91.8738C35.4557 92.2886 35.4557 92.8987 35.6581 93.5169C35.8605 94.0294 36.063 94.4443 36.4759 94.7452C36.7836 95.0544 37.2937 95.2577 37.6013 95.5668C38.0062 95.7702 38.5244 95.8759 39.1316 96.0793C39.8441 96.2827 40.2571 96.3884 40.3542 96.5918C40.4514 96.7951 40.6619 96.9009 40.6619 97.0066C40.7672 97.4215 40.5567 97.7225 39.7389 97.8282C39.334 97.8282 38.8158 97.7225 38.411 97.6248C38.0062 97.5191 37.3908 97.21 36.7755 96.8033L37.2856 98.4464C38.411 98.8613 39.4312 99.268 40.3542 99.268C41.2773 99.268 41.8845 99.0647 42.2975 98.5522C42.7023 98.1373 42.7023 97.5272 42.4999 96.909C42.2975 96.3965 42.095 95.9817 41.6821 95.6807C41.3744 95.3716 40.8643 95.1682 40.5567 94.8591C40.1518 94.6558 39.6336 94.55 39.0264 94.3466C38.3139 94.1433 37.9009 94.0375 37.8038 93.8342C37.6013 93.7284 37.4961 93.6308 37.4961 93.4193C37.3908 93.216 37.4961 93.1102 37.6013 93.0045C37.7066 92.8987 38.0062 92.8011 38.4191 92.8011C38.9292 92.8011 39.9494 93.0045 41.0748 93.5169L40.5647 91.9795C39.747 91.3613 38.832 91.1579 37.909 91.1579" fill="#E5E5E5"/>
<path d="M111.873 51.4372L108.909 45.6861L107.274 46.6135L110.853 53.5928L116.164 50.9247L115.452 49.6964L111.873 51.4372ZM103.193 53.9996L102.991 50.7132L105.444 52.9746L103.193 53.9996ZM101.145 49.4849L101.558 57.9041L103.501 56.9768L103.396 55.3336L106.561 53.8938L107.784 55.0245L109.727 54.0972L103.29 48.4519L101.145 49.4768V49.4849ZM95.5255 51.9497L97.3635 56.4643L91.6391 53.4871L89.8983 54.2029L92.8617 61.4914L94.6997 60.7756L92.7564 56.261L98.578 59.3439L100.108 58.8315L97.1449 51.543L95.5093 51.9497H95.5255ZM84.5949 62.2154C84.0848 62.012 83.5747 61.4996 83.3723 60.8813C83.1699 60.1655 83.1699 59.5473 83.4776 58.9291C83.7852 58.4166 84.2953 57.9041 84.9107 57.7008C85.6232 57.4974 86.2386 57.4974 86.8539 57.7008C87.364 57.9041 87.8741 58.5223 88.0765 59.1406C88.2789 59.8564 88.2789 60.4746 87.9713 61.0928C87.7688 61.6053 87.1535 62.1178 86.5381 62.3212C85.8256 62.4269 85.105 62.4269 84.5949 62.2154ZM81.6315 58.4166C81.1214 59.4415 81.1214 60.4665 81.4291 61.4996C81.7368 62.5327 82.5545 63.3461 83.5747 63.761C84.5949 64.1677 85.8256 64.1677 87.0482 63.761C88.2708 63.3542 89.1939 62.6303 89.704 61.4996C90.2141 60.4746 90.2141 59.4497 89.9064 58.4166C89.5987 57.3835 88.8862 56.5701 87.7607 56.1552C86.7405 55.7485 85.5098 55.7485 84.2872 56.1552C83.0646 56.5619 82.2469 57.3835 81.6315 58.4166ZM76.7249 58.8233L79.0729 66.4209L81.0161 65.9085L78.5628 58.3109L76.7249 58.8233ZM67.9399 61.2881L68.2476 62.6221L70.9033 61.8005L72.7413 67.9584L74.6845 67.4459L72.8465 61.2881L75.5023 60.4665L75.1946 59.1324L67.9399 61.2881ZM64.3692 67.2425L64.7822 63.9562L66.7254 66.6243L64.3773 67.2425H64.3692ZM63.2438 62.4188L62.0212 70.7322L64.0615 70.3174L64.264 68.6742L67.6322 67.8526L68.6524 69.1867L70.6928 68.7718L65.3813 61.9958L63.2357 62.4025L63.2438 62.4188ZM57.0093 63.9562L58.1347 68.6742L53.0257 64.8754L51.1877 65.1845L53.0257 72.8797L54.9689 72.5706L53.7463 67.5435L59.163 71.6514L60.6933 71.3423L58.8553 63.6471L57.0174 63.9562H57.0093ZM46.3863 67.1368C47.2041 67.031 47.5118 67.2425 47.6089 67.8526C47.6089 68.1617 47.6089 68.3651 47.4065 68.5684C47.3013 68.7718 47.0017 68.8776 46.5887 68.8776L45.5685 68.9833L45.2609 67.1368H46.3863ZM44.6455 73.8152L46.5887 73.6118L46.0786 70.4312L46.5887 70.3255C46.7912 70.3255 47.0988 70.3255 47.4065 70.5289C47.6089 70.7322 47.9166 71.0413 48.4267 71.7572C48.8315 72.473 49.2445 72.8879 49.3497 73.0912L51.4954 72.7821C51.0905 72.0663 50.5723 71.4481 50.1675 70.7322C49.7627 70.0164 49.2445 69.6015 48.8396 69.5039C49.6574 68.9914 49.9651 68.2756 49.8598 67.454C49.7546 66.9415 49.455 66.3233 48.8396 66.0142C48.3295 65.7051 47.617 65.6075 46.8964 65.7051L43.4229 66.1118L44.6455 73.8071V73.8152ZM38.7187 72.9936L38.5163 71.0413L42.095 70.7322L41.7874 69.2924L38.2086 69.6015L38.0062 68.0641L41.6821 67.755L41.4797 66.3152L35.7553 66.7219L36.8807 74.5229L42.6051 74.0104L42.4999 72.6764L38.7187 72.9855V72.9936ZM26.7679 67.0392L26.8731 68.479L29.6341 68.3732L30.4519 74.8401H32.3951L31.5774 68.3732L34.3383 68.2675L34.2331 66.8277L26.776 67.031L26.7679 67.0392ZM23.602 66.8277L23.9097 71.6514L19.416 66.5186L17.5781 66.4128L18.0882 74.3195L20.0314 74.4253L19.7237 69.3982L24.3227 74.8401L25.9582 74.9459L25.4481 66.9416L23.6101 66.8358L23.602 66.8277ZM13.4892 65.8027L13.894 73.9128L15.8373 74.2219L15.4324 66.1118L13.4892 65.8027Z" fill="#E5E5E5"/>
<path d="M92.6674 23.6172C91.8496 24.024 91.3395 24.5446 91.0318 25.1547C90.7242 25.6671 90.8294 26.383 91.1371 27.0012C91.3395 27.4079 91.6472 27.8228 92.1573 28.0261C92.465 28.2295 92.9751 28.2295 93.3799 28.2295C93.7847 28.2295 94.3029 28.2295 94.9102 28.1238C95.6227 28.018 95.9304 28.018 96.1328 28.1238C96.3352 28.2295 96.4405 28.2295 96.5457 28.4329C96.7481 28.8396 96.5457 29.2544 95.8332 29.5636C95.4203 29.7669 95.0154 29.8727 94.6106 29.8727H92.9751L93.7928 31.3125C94.9183 31.3125 95.8332 31.1091 96.7562 30.5966C97.574 30.1899 98.0841 29.6693 98.3918 29.0592C98.6995 28.4491 98.5942 27.8309 98.2865 27.1069C98.0841 26.7002 97.7764 26.2854 97.2663 26.1796C96.8534 25.9762 96.3433 25.8705 96.0437 25.8705C95.6308 25.8705 95.1207 25.8705 94.5134 25.9762C93.8009 26.082 93.4932 26.082 93.2908 25.9762C93.0884 25.9762 92.9831 25.8705 92.8779 25.7729C92.7726 25.5695 92.7726 25.4638 92.8779 25.2604C92.9831 25.0571 93.1856 24.9513 93.5904 24.7479C94.1005 24.4388 95.0235 24.3412 96.1409 24.2355L95.3231 22.9014C94.3029 22.9014 93.2827 23.1048 92.6674 23.6172ZM86.2305 32.2398L86.028 28.9535L88.4814 31.2149L86.2305 32.2398ZM84.1901 27.6194L84.4977 36.1362L86.441 35.2089L86.3357 33.5657L89.6068 32.1259L90.8294 33.2566L92.7726 32.3293L86.2305 26.4806L84.1901 27.6113V27.6194ZM77.9556 30.499L80.919 37.7875L82.7569 37.0717L79.7935 29.7832L77.9556 30.499ZM72.2312 34.0863C73.0489 33.883 73.6643 33.883 74.2715 34.0863C74.7816 34.2897 75.2917 34.9079 75.4942 35.5261C75.6966 36.242 75.6966 36.8602 75.4942 37.4784C75.2917 38.0966 74.6764 38.5034 73.9639 38.7067L72.7413 39.1135L71.1057 34.3873L72.2312 34.0782V34.0863ZM71.3162 41.1715L74.3849 40.0408C75.7128 39.6341 76.733 38.8125 77.1459 37.8851C77.656 36.9578 77.656 35.9329 77.2512 34.7046C76.9435 33.5739 76.1257 32.7523 75.2108 32.4432C74.1906 32.0364 73.0651 32.0364 71.8425 32.4432L68.5714 33.5739L71.3324 41.1715H71.3162ZM63.4462 40.4556L63.6486 37.1693L65.689 39.7317L63.4381 40.4475L63.4462 40.4556ZM62.1183 35.7295L61.1953 44.1487L63.2357 43.6362L63.3409 41.9931L66.7092 40.9681L67.7294 42.3022L69.7697 41.7897L64.2559 35.1194L62.1102 35.7376L62.1183 35.7295ZM56.0943 38.7067C56.6044 38.601 57.0174 38.601 57.2198 38.7067C57.4222 38.8125 57.6327 39.0158 57.6327 39.4226C57.738 39.935 57.4303 40.4475 56.6125 40.5533L55.7948 40.659L55.3899 38.8125L56.1024 38.7067H56.0943ZM54.9689 45.5804L56.9121 45.1736L56.1996 42.0907L57.6327 41.7816C58.4505 41.5782 58.9606 41.2691 59.2683 40.6509C59.5759 40.0326 59.6812 39.5202 59.5759 38.8043C59.4707 38.2919 59.163 37.6736 58.5557 37.3645C58.0456 37.0554 57.3331 36.9578 56.5154 37.1612L53.1471 37.9828L54.9851 45.5804H54.9689ZM48.532 38.601C47.6089 38.7067 47.0017 39.0077 46.4916 39.6259C46.0867 40.0326 45.7791 40.7566 45.9815 41.4725C46.0867 41.9849 46.2892 42.3998 46.4916 42.7008C46.7993 43.0099 47.2041 43.1075 47.5118 43.2132C47.8194 43.319 48.4348 43.4166 48.9449 43.5223C49.455 43.6281 49.9651 43.7257 50.1675 43.8315C50.3699 43.9372 50.3699 44.0348 50.4752 44.2382C50.5804 44.6449 50.2728 45.0598 49.455 45.1655C49.0502 45.2713 48.532 45.2713 48.1271 45.1655C47.7223 45.0598 47.2041 44.9622 46.694 44.653L46.8964 46.1905C47.9166 46.4996 48.8396 46.5972 49.8598 46.3938C50.7829 46.2881 51.3901 45.9871 51.9002 45.3689C52.305 44.8564 52.6127 44.2382 52.4103 43.5223C52.305 43.1156 52.1026 42.595 51.9002 42.294C51.5925 41.9849 51.1877 41.8873 50.88 41.7816C50.5723 41.6758 49.957 41.5782 49.4469 41.4725C48.9368 41.3667 48.4267 41.2691 48.3214 41.1633C48.119 41.0576 48.119 40.96 48.0138 40.8542C48.0138 40.6509 48.0138 40.5451 48.2162 40.3418C48.4186 40.236 48.621 40.1384 49.034 40.0326C49.5441 39.9269 50.4671 40.0326 51.5844 40.236L51.382 38.7962C50.2566 38.3895 49.3416 38.3895 48.5239 38.5928M38.8239 45.6861C38.4191 45.2794 38.0062 44.7588 38.0062 44.043C37.9009 43.3271 38.1114 42.7089 38.411 42.1964C38.8158 41.7897 39.4312 41.3748 40.0466 41.3748C40.8643 41.2691 41.3744 41.4806 41.8845 41.7816C42.2894 42.0907 42.7023 42.7089 42.8075 43.4247C42.9128 44.1406 42.7023 44.7588 42.4027 45.2713C41.9979 45.678 41.3825 46.0928 40.7672 46.0928C39.9494 46.1986 39.334 45.9871 38.8239 45.6861ZM36.8807 41.2691C36.063 42.1964 35.8605 43.2214 35.9577 44.2463C36.063 45.377 36.6702 46.2962 37.488 46.9144C38.411 47.6303 39.5284 47.9394 40.8562 47.8418C42.1841 47.7441 43.2043 47.1259 43.9249 46.3043C44.7427 45.377 45.0504 44.3521 44.9451 43.3271C44.8398 42.3022 44.435 41.3748 43.4148 40.659C42.4918 39.9432 41.3744 39.6341 40.0466 39.7317C38.7187 39.935 37.6985 40.3499 36.8807 41.2691ZM31.1644 41.7897C31.6745 41.7897 32.0874 41.7897 32.2899 41.9931C32.4923 42.0988 32.5975 42.3022 32.5975 42.7089C32.5975 43.2214 32.2899 43.6362 31.3749 43.6362H30.5572V41.7897H31.1725H31.1644ZM28.7111 48.2566H30.6543V45.076H32.1846C33.0024 45.076 33.6177 44.8727 34.1278 44.3602C34.5327 43.9535 34.8403 43.3353 34.8403 42.717C34.8403 42.0012 34.6379 41.5863 34.1278 41.1796C33.723 40.7729 33.0024 40.4638 32.1846 40.4638H28.7111V48.2648V48.2566ZM23.9097 48.0451L24.1121 44.4497L27.4804 40.5533L25.1323 40.4475L23.1891 42.8065L21.6588 40.2441L19.3108 40.0408L22.0718 44.4578L21.8693 48.0533H23.9097V48.0451ZM16.3474 39.325L15.9425 42.5055L12.2666 41.7897L12.6714 38.6091L10.631 38.3L9.61085 46.101L11.5541 46.4101L11.9589 43.2295L15.7401 43.9453L15.3353 47.1259L17.2785 47.435L18.2987 39.6341L16.3554 39.325H16.3474Z" fill="#E5E5E5"/>
</svg>
