<svg width="16" height="18" viewBox="0 0 16 18" fill="none" xmlns="http://www.w3.org/2000/svg">
<g clip-path="url(#clip0_146_2373)">
<path d="M7.98999 3.94615C8.77002 3.94615 9.7478 3.42435 10.3301 2.72861C10.8574 2.09809 11.2419 1.21755 11.2419 0.336999C11.2419 0.217418 11.231 0.0978386 11.209 0C10.3411 0.0326128 9.29736 0.57616 8.67114 1.30451C8.17676 1.85893 7.72632 2.72861 7.72632 3.62003C7.72632 3.75048 7.74829 3.88093 7.75928 3.92441C7.81421 3.93528 7.9021 3.94615 7.98999 3.94615ZM5.24341 17.1C6.30908 17.1 6.78149 16.3934 8.11084 16.3934C9.46216 16.3934 9.75879 17.0783 10.9453 17.0783C12.1099 17.0783 12.8899 16.0129 13.626 14.9693C14.45 13.7735 14.7905 12.5994 14.8125 12.5451C14.7356 12.5233 12.5054 11.621 12.5054 9.08811C12.5054 6.89218 14.2632 5.90292 14.3621 5.82683C13.1975 4.17444 11.4287 4.13096 10.9453 4.13096C9.63794 4.13096 8.57227 4.91367 7.9021 4.91367C7.177 4.91367 6.22119 4.17444 5.0896 4.17444C2.93628 4.17444 0.75 5.93554 0.75 9.26205C0.75 11.3275 1.56299 13.5126 2.56274 14.9258C3.41968 16.1216 4.16675 17.1 5.24341 17.1Z" fill="black"/>
</g>
<defs>
<clipPath id="clip0_146_2373">
<rect width="15" height="18" fill="white" transform="translate(0.75)"/>
</clipPath>
</defs>
</svg>
