<svg width="120" height="104" viewBox="0 0 120 104" fill="none" xmlns="http://www.w3.org/2000/svg">
<path d="M80.1807 9.82703C81.0196 9.8271 81.6999 10.5076 81.7002 11.3466C81.7002 12.1857 81.0198 12.867 80.1807 12.8671C73.0926 12.8671 66.7303 17.6072 64.7109 24.3925C64.4893 25.1404 63.7414 25.5913 62.9873 25.455L62.9805 25.4637L62.8203 25.4159C62.0167 25.1759 61.5582 24.3306 61.7979 23.5262L61.9121 23.1571C64.378 15.4474 71.6055 9.82703 80.1807 9.82703Z" fill="#35758C" stroke="#F9FFF9" stroke-width="0.517079"/>
<path d="M97.8365 73.1467H90.2693C89.573 73.1467 89.0081 72.5818 89.0081 71.8855C89.0081 71.1891 89.573 70.6242 90.2693 70.6242H97.8365C108.267 70.6242 116.755 62.1371 116.755 51.7061C116.755 41.2751 108.267 32.788 97.8365 32.788H97.6545C97.2888 32.788 96.941 32.6295 96.7014 32.3529C96.4618 32.0764 96.3537 31.7097 96.4059 31.3475C96.5185 30.562 96.5753 29.7728 96.5753 29.0044C96.5753 19.9643 89.2196 12.6086 80.1795 12.6086C76.6625 12.6086 73.3086 13.7077 70.4798 15.7878C69.8582 16.2445 68.9754 16.0418 68.6159 15.358C60.6046 0.102897 39.6799 -1.94571 28.8314 11.3249C24.2614 16.9157 22.4658 24.1883 23.9047 31.2764C24.0632 32.0593 23.4641 32.789 22.6687 32.789H22.1633C11.7323 32.789 3.24519 41.2761 3.24519 51.7071C3.24519 62.1381 11.7323 70.6252 22.1633 70.6252H29.7304C30.4268 70.6252 30.9917 71.19 30.9917 71.8864C30.9917 72.5828 30.4268 73.1476 29.7304 73.1476H22.1633C10.3412 73.1476 0.722656 63.5291 0.722656 51.707C0.722656 40.2165 9.80868 30.8079 21.1732 30.289C20.1057 22.9352 22.1471 15.5174 26.8783 9.72862C38.4931 -4.48066 60.752 -2.88799 70.1614 12.9564C73.1631 11.0745 76.598 10.0872 80.1791 10.0872C91.1318 10.0872 99.8107 19.4094 99.0513 30.3007C110.311 30.9322 119.277 40.2913 119.277 51.7061C119.277 63.5291 109.658 73.1467 97.8359 73.1467L97.8365 73.1467Z" fill="#35758C"/>
<path d="M59.8301 39.3839C77.3589 39.3839 91.619 53.6442 91.6191 71.173C91.6191 88.7016 77.359 102.962 59.8301 102.962C42.3016 102.962 28.041 88.7018 28.041 71.173C28.0412 53.6446 42.3014 39.3841 59.8301 39.3839ZM59.8301 42.424C43.9783 42.4241 31.0812 55.3215 31.0811 71.173C31.0811 87.0248 43.9785 99.9218 59.8301 99.922C75.6818 99.922 88.5791 87.0247 88.5791 71.173C88.579 55.3211 75.6817 42.424 59.8301 42.424Z" fill="#35758C" stroke="#F9FFF9" stroke-width="0.517079"/>
<path d="M60.4072 58.6769C61.0596 58.6771 61.5889 59.207 61.5889 59.8595V83.8663C61.5888 84.5195 61.0595 85.0477 60.4072 85.048C59.7547 85.048 59.2246 84.5189 59.2246 83.8663V59.8595C59.2246 59.2069 59.7546 58.6769 60.4072 58.6769Z" fill="#35758C" stroke="#35758C" stroke-width="0.517079"/>
<path d="M59.6611 58.9445C60.125 58.5657 60.8095 58.593 61.2422 59.0255L68.6289 66.4122L68.7109 66.5021C69.0893 66.9662 69.0612 67.6494 68.6289 68.0822L68.6299 68.0831C68.4278 68.286 68.1696 68.3989 67.9062 68.424L67.7939 68.4298C67.5298 68.4298 67.2645 68.3408 67.0479 68.1642L66.958 68.0831L60.4062 61.5323L53.8555 68.0822L53.8564 68.0831C53.4242 68.5162 52.7387 68.5436 52.2744 68.1652L52.1846 68.0831C51.723 67.6214 51.7229 66.8739 52.1846 66.4122L59.5713 59.0255L59.6611 58.9445Z" fill="#35758C" stroke="#35758C" stroke-width="0.517079"/>
</svg>
