<svg width="22" height="22" viewBox="0 0 22 22" fill="none" xmlns="http://www.w3.org/2000/svg">
<g id="Vector">
<path id="Vector_2" d="M4.53033 18.5303C4.82322 18.2374 4.82322 17.7626 4.53033 17.4697C4.23744 17.1768 3.76256 17.1768 3.46967 17.4697L4.53033 18.5303ZM1.46967 19.4697C1.17678 19.7626 1.17678 20.2374 1.46967 20.5303C1.76256 20.8232 2.23744 20.8232 2.53033 20.5303L1.46967 19.4697ZM18.5303 17.4697C18.2374 17.1768 17.7626 17.1768 17.4697 17.4697C17.1768 17.7626 17.1768 18.2374 17.4697 18.5303L18.5303 17.4697ZM19.4697 20.5303C19.7626 20.8232 20.2374 20.8232 20.5303 20.5303C20.8232 20.2374 20.8232 19.7626 20.5303 19.4697L19.4697 20.5303ZM17.6646 1.89888C17.2941 2.08412 17.1439 2.53463 17.3292 2.90511C17.5144 3.2756 17.9649 3.42576 18.3354 3.24052L17.6646 1.89888ZM18.5955 2.27195L18.2601 1.60113L18.2601 1.60113L18.5955 2.27195ZM20.4303 2.5697L19.9 3.10003L19.9 3.10003L20.4303 2.5697ZM20.728 4.4045L20.0572 4.06905L20.0572 4.06914L20.728 4.4045ZM19.7595 4.66464C19.5742 5.03513 19.7244 5.48563 20.0949 5.67084C20.4654 5.85606 20.9159 5.70586 21.1011 5.33537L19.7595 4.66464ZM3.66459 3.24052C4.03508 3.42576 4.48558 3.2756 4.67082 2.90511C4.85606 2.53463 4.7059 2.08412 4.33541 1.89888L3.66459 3.24052ZM1.5697 2.5697L2.10003 3.10004L2.10004 3.10003L1.5697 2.5697ZM1.27195 4.4045L1.94277 4.06909L1.94277 4.06909L1.27195 4.4045ZM0.898881 5.33541C1.08412 5.7059 1.53463 5.85606 1.90511 5.67082C2.2756 5.48558 2.42576 5.03508 2.24052 4.66459L0.898881 5.33541ZM11.75 8.5C11.75 8.08579 11.4142 7.75 11 7.75C10.5858 7.75 10.25 8.08579 10.25 8.5H11.75ZM11 12.5H10.25C10.25 12.6989 10.329 12.8897 10.4697 13.0303L11 12.5ZM12.4697 15.0303C12.7626 15.3232 13.2374 15.3232 13.5303 15.0303C13.8232 14.7374 13.8232 14.2626 13.5303 13.9697L12.4697 15.0303ZM10.25 2.5C10.25 2.91421 10.5858 3.25 11 3.25C11.4142 3.25 11.75 2.91421 11.75 2.5H10.25ZM11.75 1C11.75 0.585786 11.4142 0.25 11 0.25C10.5858 0.25 10.25 0.585786 10.25 1H11.75ZM9 0.25C8.58579 0.25 8.25 0.585786 8.25 1C8.25 1.41421 8.58579 1.75 9 1.75V0.25ZM13 1.75C13.4142 1.75 13.75 1.41421 13.75 1C13.75 0.585786 13.4142 0.25 13 0.25V1.75ZM19.25 12C19.25 16.5563 15.5563 20.25 11 20.25V21.75C16.3848 21.75 20.75 17.3848 20.75 12H19.25ZM11 20.25C6.44365 20.25 2.75 16.5563 2.75 12H1.25C1.25 17.3848 5.61522 21.75 11 21.75V20.25ZM2.75 12C2.75 7.44365 6.44365 3.75 11 3.75V2.25C5.61522 2.25 1.25 6.61522 1.25 12H2.75ZM11 3.75C15.5563 3.75 19.25 7.44365 19.25 12H20.75C20.75 6.61522 16.3848 2.25 11 2.25V3.75ZM3.46967 17.4697L1.46967 19.4697L2.53033 20.5303L4.53033 18.5303L3.46967 17.4697ZM17.4697 18.5303L19.4697 20.5303L20.5303 19.4697L18.5303 17.4697L17.4697 18.5303ZM18.3354 3.24052L18.9309 2.94277L18.2601 1.60113L17.6646 1.89888L18.3354 3.24052ZM18.9309 2.94278C19.3465 2.73497 19.4458 2.74873 19.4588 2.75082C19.4712 2.75282 19.5705 2.7706 19.9 3.10003L20.9606 2.03938C20.6181 1.6968 20.2226 1.35439 19.697 1.26985C19.1719 1.18541 18.6898 1.3863 18.2601 1.60113L18.9309 2.94278ZM19.9 3.10003C20.2294 3.42946 20.2472 3.52879 20.2492 3.5412C20.2513 3.55418 20.265 3.65345 20.0572 4.06905L21.3988 4.73996C21.6137 4.31029 21.8146 3.82817 21.7302 3.30306C21.6456 2.77738 21.3032 2.38195 20.9606 2.03937L19.9 3.10003ZM20.0572 4.06914L19.7595 4.66464L21.1011 5.33537L21.3988 4.73987L20.0572 4.06914ZM4.33541 1.89888L3.73991 1.60113L3.06909 2.94277L3.66459 3.24052L4.33541 1.89888ZM3.73991 1.60113C3.31026 1.3863 2.82814 1.18541 2.30305 1.26985C1.77738 1.35438 1.38195 1.69679 1.03937 2.03938L2.10004 3.10003C2.42945 2.77061 2.52879 2.75282 2.54121 2.75082C2.5542 2.74873 2.65349 2.73497 3.06909 2.94277L3.73991 1.60113ZM1.03938 2.03937C0.696786 2.38195 0.354383 2.77738 0.26985 3.30305C0.18541 3.82814 0.386304 4.31026 0.601131 4.73991L1.94277 4.06909C1.73497 3.65349 1.74873 3.5542 1.75082 3.54121C1.75282 3.52879 1.77061 3.42945 2.10003 3.10004L1.03938 2.03937ZM0.601131 4.73991L0.898881 5.33541L2.24052 4.66459L1.94277 4.06909L0.601131 4.73991ZM10.25 8.5V12.5H11.75V8.5H10.25ZM10.4697 13.0303L12.4697 15.0303L13.5303 13.9697L11.5303 11.9697L10.4697 13.0303ZM11.75 2.5V1H10.25V2.5H11.75ZM9 1.75H13V0.25H9V1.75Z" fill="black"/>
</g>
</svg>
