<svg width="22" height="22" viewBox="0 0 22 22" fill="none" xmlns="http://www.w3.org/2000/svg">
<g id="Vector">
<path id="Vector_2" d="M2.89124 2.89124L2.36091 2.36091L2.36091 2.36091L2.89124 2.89124ZM19.1088 2.89124L19.6391 2.36092L19.6391 2.3609L19.1088 2.89124ZM19.1088 19.1088L19.6391 19.6392L19.6392 19.6391L19.1088 19.1088ZM2.89124 19.1088L2.3609 19.6391L2.36092 19.6391L2.89124 19.1088ZM15.4482 13.508C15.7288 13.8127 16.2032 13.8323 16.508 13.5518C16.8127 13.2712 16.8323 12.7968 16.5518 12.492L15.4482 13.508ZM11 9L11 9.75H11V9ZM5.44822 12.492C5.16767 12.7968 5.18729 13.2712 5.49203 13.5518C5.79677 13.8323 6.27124 13.8127 6.55178 13.508L5.44822 12.492ZM2.25 11C2.25 8.73963 2.25159 7.1198 2.41722 5.8879C2.57994 4.67757 2.88853 3.95462 3.42157 3.42157L2.36091 2.36091C1.50271 3.21911 1.11568 4.31137 0.930593 5.68803C0.748407 7.04311 0.75 8.78203 0.75 11H2.25ZM3.42157 3.42157C3.95462 2.88853 4.67757 2.57994 5.8879 2.41722C7.1198 2.25159 8.73963 2.25 11 2.25V0.75C8.78203 0.75 7.04311 0.748407 5.68803 0.930593C4.31137 1.11568 3.21911 1.50271 2.36091 2.36091L3.42157 3.42157ZM11 2.25C13.2604 2.25 14.8802 2.25159 16.1121 2.41722C17.3224 2.57994 18.0454 2.88853 18.5785 3.42158L19.6391 2.3609C18.7809 1.50271 17.6886 1.11568 16.312 0.930593C14.9569 0.748407 13.2179 0.75 11 0.75V2.25ZM18.5785 3.42156C19.1115 3.95461 19.4201 4.67756 19.5828 5.88789C19.7484 7.1198 19.75 8.73963 19.75 11H21.25C21.25 8.78203 21.2516 7.04311 21.0694 5.68803C20.8843 4.31137 20.4973 3.21912 19.6391 2.36092L18.5785 3.42156ZM19.75 11C19.75 13.2604 19.7484 14.8802 19.5828 16.1121C19.4201 17.3224 19.1115 18.0454 18.5785 18.5785L19.6392 19.6391C20.4973 18.7809 20.8843 17.6886 21.0694 16.312C21.2516 14.9569 21.25 13.2179 21.25 11H19.75ZM18.5785 18.5785C18.0454 19.1115 17.3224 19.4201 16.1121 19.5828C14.8802 19.7484 13.2604 19.75 11 19.75V21.25C13.2179 21.25 14.9569 21.2516 16.312 21.0694C17.6886 20.8843 18.7809 20.4973 19.6391 19.6392L18.5785 18.5785ZM11 19.75C8.73963 19.75 7.1198 19.7484 5.88789 19.5828C4.67756 19.4201 3.95461 19.1115 3.42156 18.5785L2.36092 19.6391C3.21912 20.4973 4.31137 20.8843 5.68803 21.0694C7.04311 21.2516 8.78203 21.25 11 21.25V19.75ZM3.42158 18.5785C2.88853 18.0454 2.57994 17.3224 2.41722 16.1121C2.25159 14.8802 2.25 13.2604 2.25 11H0.75C0.75 13.2179 0.748407 14.9569 0.930593 16.312C1.11568 17.6886 1.50271 18.7809 2.3609 19.6391L3.42158 18.5785ZM16 13C16.5518 12.492 16.5517 12.492 16.5517 12.4919C16.5516 12.4918 16.5515 12.4917 16.5514 12.4917C16.5513 12.4915 16.551 12.4912 16.5508 12.4909C16.5502 12.4903 16.5494 12.4894 16.5484 12.4883C16.5464 12.4862 16.5435 12.483 16.5397 12.479C16.5322 12.4709 16.5213 12.4591 16.5071 12.4439C16.4787 12.4134 16.4374 12.3692 16.3845 12.3132C16.2789 12.2013 16.127 12.0421 15.9409 11.8513C15.5693 11.4704 15.0579 10.9603 14.5023 10.4484C13.9499 9.93946 13.3389 9.41468 12.77 9.01256C12.486 8.81179 12.1967 8.63031 11.9189 8.49633C11.6556 8.36935 11.3325 8.25 11 8.25V9.75C10.9969 9.75 11.0771 9.75565 11.2673 9.84742C11.4431 9.93219 11.6577 10.0632 11.9042 10.2374C12.3963 10.5853 12.953 11.0605 13.4859 11.5516C14.0156 12.0397 14.5072 12.5296 14.8672 12.8987C15.0468 13.0829 15.193 13.2362 15.2939 13.343C15.3443 13.3964 15.3833 13.4381 15.4096 13.4663C15.4227 13.4804 15.4326 13.4911 15.4391 13.4981C15.4423 13.5016 15.4447 13.5042 15.4463 13.5059C15.447 13.5067 15.4476 13.5073 15.4479 13.5076C15.4481 13.5078 15.4482 13.5079 15.4482 13.508C15.4483 13.508 15.4482 13.508 15.4483 13.508C15.4482 13.508 15.4482 13.508 16 13ZM11 8.25C10.6675 8.25 10.3444 8.36935 10.0811 8.49633C9.80326 8.63031 9.514 8.81178 9.22997 9.01255C8.66109 9.41467 8.05008 9.93946 7.49769 10.4484C6.94213 10.9603 6.4307 11.4703 6.0591 11.8513C5.87296 12.0421 5.72112 12.2013 5.61546 12.3132C5.56261 12.3692 5.52126 12.4134 5.4929 12.4439C5.47872 12.4591 5.46779 12.4709 5.46028 12.479C5.45652 12.483 5.45363 12.4862 5.45161 12.4884C5.4506 12.4894 5.44981 12.4903 5.44924 12.4909C5.44896 12.4912 5.44873 12.4915 5.44856 12.4917C5.44848 12.4917 5.44839 12.4918 5.44835 12.4919C5.44827 12.492 5.44822 12.492 6 13C6.55178 13.508 6.55175 13.508 6.55174 13.508C6.55175 13.508 6.55175 13.508 6.55177 13.508C6.55183 13.5079 6.55194 13.5078 6.5521 13.5076C6.55243 13.5073 6.55297 13.5067 6.55374 13.5059C6.55527 13.5042 6.55768 13.5016 6.56093 13.4981C6.56743 13.491 6.57734 13.4804 6.59045 13.4663C6.61668 13.4381 6.65573 13.3964 6.70615 13.343C6.80701 13.2362 6.95315 13.0829 7.13283 12.8987C7.49285 12.5296 7.98437 12.0397 8.51411 11.5516C9.04702 11.0605 9.60366 10.5853 10.0958 10.2374C10.3423 10.0632 10.5569 9.93218 10.7327 9.84741C10.9229 9.75565 11.0031 9.75 11 9.75L11 8.25Z" fill="black"/>
</g>
</svg>
