<svg width="20" height="16" viewBox="0 0 20 16" fill="none" xmlns="http://www.w3.org/2000/svg">
<g id="Vector">
<path id="Vector_2" d="M2.80823 5.44118L4.77353 3.46899C6.18956 2.04799 6.74462 1.28357 7.51139 1.55381C8.4675 1.89077 8.1528 4.01692 8.1528 4.73471C9.6393 4.73471 11.1848 4.60259 12.6502 4.87787C17.4874 5.78664 19 9.7153 19 14C17.6309 13.0302 16.2632 11.997 14.6177 11.5476C12.5636 10.9865 10.2696 11.2542 8.1528 11.2542C8.1528 11.972 8.4675 14.0982 7.51139 14.4351C6.64251 14.7413 6.18956 13.9409 4.77353 12.5199L2.80823 10.5477C1.60275 9.338 1 8.7332 1 7.9945C1 7.2558 1.60275 6.6509 2.80823 5.44118Z" stroke="black" stroke-width="1.5" stroke-linecap="round" stroke-linejoin="round"/>
</g>
</svg>
