<svg width="22" height="22" viewBox="0 0 22 22" fill="none" xmlns="http://www.w3.org/2000/svg">
<g id="Vector">
<path id="Vector_2" d="M7 10.25C6.58579 10.25 6.25 10.5858 6.25 11C6.25 11.4142 6.58579 11.75 7 11.75V10.25ZM11.9773 12.9622C11.6802 13.2509 11.6735 13.7257 11.9622 14.0227C12.2509 14.3198 12.7257 14.3265 13.0227 14.0378L11.9773 12.9622ZM13.0227 7.96219C12.7257 7.67349 12.2509 7.68023 11.9622 7.97726C11.6735 8.27428 11.6802 8.74911 11.9773 9.03781L13.0227 7.96219ZM20.25 11C20.25 16.1086 16.1086 20.25 11 20.25V21.75C16.9371 21.75 21.75 16.9371 21.75 11H20.25ZM11 20.25C5.89137 20.25 1.75 16.1086 1.75 11H0.25C0.25 16.9371 5.06294 21.75 11 21.75V20.25ZM1.75 11C1.75 5.89137 5.89137 1.75 11 1.75V0.25C5.06294 0.25 0.25 5.06294 0.25 11H1.75ZM11 1.75C16.1086 1.75 20.25 5.89137 20.25 11H21.75C21.75 5.06294 16.9371 0.25 11 0.25V1.75ZM15 10.25H7V11.75H15V10.25ZM14.25 11C14.25 10.9168 14.2767 10.8884 14.2521 10.9344C14.2306 10.9745 14.1868 11.0399 14.1095 11.1306C13.9544 11.3127 13.726 11.5262 13.4548 11.7561C13.1868 11.9831 12.9025 12.2051 12.6407 12.4107C12.396 12.6029 12.1389 12.8051 11.9773 12.9622L13.0227 14.0378C13.114 13.9491 13.2958 13.8035 13.5672 13.5903C13.8216 13.3905 14.1307 13.1494 14.4245 12.9005C14.7151 12.6543 15.0168 12.3787 15.2515 12.1032C15.369 11.9652 15.485 11.8096 15.5746 11.6422C15.661 11.4807 15.75 11.2583 15.75 11H14.25ZM15.75 11C15.75 10.7417 15.661 10.5193 15.5746 10.3578C15.485 10.1904 15.369 10.0348 15.2515 9.8968C15.0168 9.62133 14.7151 9.34575 14.4245 9.09955C14.1307 8.85057 13.8216 8.60953 13.5672 8.40971C13.2958 8.19652 13.114 8.05089 13.0227 7.96219L11.9773 9.03781C12.1388 9.19487 12.396 9.3971 12.6407 9.58933C12.9025 9.79494 13.1868 10.0169 13.4548 10.2439C13.726 10.4738 13.9544 10.6873 14.1095 10.8694C14.1868 10.9602 14.2306 11.0255 14.2521 11.0656C14.2767 11.1116 14.25 11.0832 14.25 11H15.75Z" fill="black"/>
</g>
</svg>
