<svg width="22" height="22" viewBox="0 0 22 22" fill="none" xmlns="http://www.w3.org/2000/svg">
<g id="Vector">
<path id="Vector_2" d="M17 17.1673C12.7297 18.4388 7.39263 18.2542 3.43205 16.6135C2.268 16.1312 1.31727 15.1637 1.52992 13.7696C1.66061 12.9129 2.30684 12.1995 2.78561 11.5029C3.41272 10.5793 3.47503 9.57182 3.47513 8.50003C3.47513 7.12107 3.84851 5.61017 4.5 4.5M6.5 2.48831C7.75404 1.55352 9.3103 1 10.9962 1C15.1487 1 18.5149 4.35786 18.5149 8.5C18.5149 9.5718 18.5772 10.5793 19.2038 11.5029C19.6822 12.1995 20.3279 12.9129 20.4584 13.7696C20.5788 14.5596 20.4422 14.9946 19.9887 15.5M21 21L1 1M7 18C7.45849 19.7252 9.0755 21 11 21C12.9245 21 14.5415 19.7252 15 18" stroke="black" stroke-width="1.5" stroke-linecap="round" stroke-linejoin="round"/>
</g>
</svg>
