<svg width="22" height="22" viewBox="0 0 22 22" fill="none" xmlns="http://www.w3.org/2000/svg">
<g id="Vector">
<path id="Vector_2" d="M18.0045 18.75C18.4187 18.75 18.7545 18.4142 18.7545 18C18.7545 17.5858 18.4187 17.25 18.0045 17.25V18.75ZM2.92239 14.3084L2.47248 13.7083L2.47245 13.7083L2.92239 14.3084ZM4.15897 10.491L3.41001 10.4515L3.41001 10.4516L4.15897 10.491ZM6.54712 6.51299C6.83044 6.21083 6.81516 5.7362 6.51299 5.45288C6.21083 5.16956 5.7362 5.18484 5.45288 5.48701L6.54712 6.51299ZM8.2182 3.80495C7.83434 3.96059 7.64932 4.39793 7.80495 4.7818C7.96059 5.16566 8.39793 5.35068 8.7818 5.19505L8.2182 3.80495ZM17.8461 10.491L18.5951 10.4516V10.4516L17.8461 10.491ZM19.0827 14.3084L19.5327 13.7084L19.5326 13.7083L19.0827 14.3084ZM19.2517 16.0496C19.2791 16.4629 19.6364 16.7758 20.0497 16.7484C20.463 16.7209 20.7758 16.3637 20.7484 15.9504L19.2517 16.0496ZM14.75 18C14.75 17.5858 14.4142 17.25 14 17.25C13.5858 17.25 13.25 17.5858 13.25 18H14.75ZM8.75 18C8.75 17.5858 8.41421 17.25 8 17.25C7.58579 17.25 7.25 17.5858 7.25 18H8.75ZM20.4697 21.5303C20.7626 21.8232 21.2374 21.8232 21.5303 21.5303C21.8232 21.2374 21.8232 20.7626 21.5303 20.4697L20.4697 21.5303ZM1.53033 0.46967C1.23744 0.176777 0.762563 0.176777 0.46967 0.46967C0.176777 0.762563 0.176777 1.23744 0.46967 1.53033L1.53033 0.46967ZM18.0045 17.25H3.8005V18.75H18.0045V17.25ZM3.8005 17.25C3.22643 17.25 2.75 16.7674 2.75 16.1527H1.25C1.25 17.5341 2.33761 18.75 3.8005 18.75V17.25ZM2.75 16.1527C2.75 15.6631 2.9805 15.2022 3.37233 14.9084L2.47245 13.7083C1.70296 14.2853 1.25 15.1908 1.25 16.1527H2.75ZM3.3723 14.9084C4.17857 14.3039 4.54312 13.5176 4.71387 12.7316C4.87491 11.9903 4.87443 11.1668 4.90793 10.5304L3.41001 10.4516C3.37002 11.2112 3.37504 11.8287 3.24806 12.4132C3.13079 12.953 2.91379 13.3774 2.47248 13.7083L3.3723 14.9084ZM4.90793 10.5304C4.98763 9.01653 5.60928 7.51321 6.54712 6.51299L5.45288 5.48701C4.25253 6.76721 3.50669 8.61523 3.41001 10.4515L4.90793 10.5304ZM8.7818 5.19505C9.49762 4.90482 10.2001 4.75 11.0025 4.75V3.25C9.98738 3.25 9.09404 3.44986 8.2182 3.80495L8.7818 5.19505ZM11.0025 4.75C14.2487 4.75 16.9266 7.29018 17.0972 10.5304L18.5951 10.4516C18.3825 6.41428 15.0461 3.25 11.0025 3.25V4.75ZM17.0972 10.5304C17.1307 11.1668 17.1302 11.9903 17.2912 12.7316C17.462 13.5177 17.8265 14.304 18.6328 14.9085L19.5326 13.7083C19.0913 13.3774 18.8743 12.953 18.757 12.4132C18.6301 11.8287 18.6351 11.2112 18.5951 10.4516L17.0972 10.5304ZM18.6328 14.9084C18.9969 15.1815 19.2218 15.5991 19.2517 16.0496L20.7484 15.9504C20.6897 15.0649 20.2479 14.2447 19.5327 13.7084L18.6328 14.9084ZM8.75 2.125C8.75 2.72117 8.98301 3.34376 9.33742 3.82058C9.68626 4.28988 10.2585 4.75 11 4.75V3.25C10.9131 3.25 10.7353 3.18683 10.5413 2.92575C10.3528 2.67217 10.25 2.35726 10.25 2.125H8.75ZM11 4.75C11.7415 4.75 12.3137 4.28988 12.6626 3.82058C13.017 3.34376 13.25 2.72117 13.25 2.125H11.75C11.75 2.35726 11.6472 2.67217 11.4587 2.92575C11.2647 3.18683 11.0869 3.25 11 3.25V4.75ZM13.25 2.125C13.25 1.47082 12.9652 0.947582 12.4714 0.624334C12.0263 0.332956 11.483 0.25 11 0.25V1.75C11.3454 1.75 11.5521 1.81533 11.6499 1.87934C11.6902 1.90575 11.7077 1.92864 11.7184 1.94888C11.7296 1.97026 11.75 2.02106 11.75 2.125H13.25ZM11 0.25C10.517 0.25 9.97368 0.332956 9.52857 0.624334C9.03478 0.947582 8.75 1.47082 8.75 2.125H10.25C10.25 2.02106 10.2704 1.97026 10.2816 1.94888C10.2923 1.92864 10.3098 1.90575 10.3501 1.87934C10.4479 1.81533 10.6546 1.75 11 1.75V0.25ZM13.25 18C13.25 19.2427 12.2427 20.25 11 20.25V21.75C13.0711 21.75 14.75 20.0711 14.75 18H13.25ZM11 20.25C9.75731 20.25 8.75 19.2427 8.75 18H7.25C7.25 20.0711 8.92889 21.75 11 21.75V20.25ZM21.5303 20.4697L1.53033 0.46967L0.46967 1.53033L20.4697 21.5303L21.5303 20.4697Z" fill="black"/>
</g>
</svg>
