<svg width="20" height="22" viewBox="0 0 20 22" fill="none" xmlns="http://www.w3.org/2000/svg">
<g id="Vector">
<path id="Vector_2" d="M3.15837 10.491L3.90733 10.5304L3.90733 10.5304L3.15837 10.491ZM1.92213 14.3084L1.47214 13.7084L1.47211 13.7084L1.92213 14.3084ZM18.0779 14.3084L18.5279 13.7084L18.5279 13.7084L18.0779 14.3084ZM16.8416 10.491L16.0926 10.5304L16.0926 10.5304L16.8416 10.491ZM13.75 18C13.75 17.5858 13.4142 17.25 13 17.25C12.5858 17.25 12.25 17.5858 12.25 18H13.75ZM7.75 18C7.75 17.5858 7.41421 17.25 7 17.25C6.58579 17.25 6.25 17.5858 6.25 18H7.75ZM2.40941 10.4516C2.36942 11.2112 2.37444 11.8287 2.24749 12.4133C2.13024 12.9531 1.91329 13.3775 1.47214 13.7084L2.37212 14.9084C3.1782 14.3039 3.54263 13.5176 3.71332 12.7316C3.87431 11.9903 3.87384 11.1668 3.90733 10.5304L2.40941 10.4516ZM1.47211 13.7084C0.702799 14.2854 0.25 15.1909 0.25 16.1527H1.75C1.75 15.6631 1.98048 15.2022 2.37215 14.9084L1.47211 13.7084ZM0.25 16.1527C0.25 17.534 1.3372 18.75 2.8 18.75V17.25C2.2264 17.25 1.75 16.7676 1.75 16.1527H0.25ZM2.8 18.75H17.2V17.25H2.8V18.75ZM17.2 18.75C18.6628 18.75 19.75 17.534 19.75 16.1527H18.25C18.25 16.7676 17.7736 17.25 17.2 17.25V18.75ZM19.75 16.1527C19.75 15.1909 19.2973 14.2855 18.5279 13.7084L17.6279 14.9084C18.0195 15.2021 18.25 15.6631 18.25 16.1527H19.75ZM18.5279 13.7084C18.0867 13.3775 17.8697 12.9531 17.7525 12.4132C17.6255 11.8287 17.6306 11.2112 17.5906 10.4516L16.0926 10.5304C16.1261 11.1668 16.1257 11.9903 16.2867 12.7316C16.4574 13.5176 16.8218 14.3039 17.6279 14.9084L18.5279 13.7084ZM17.5906 10.4516C17.3781 6.41447 14.0427 3.25 10 3.25V4.75C13.2449 4.75 15.9221 7.28999 16.0926 10.5304L17.5906 10.4516ZM10 3.25C5.95728 3.25 2.62188 6.41446 2.40941 10.4516L3.90733 10.5304C4.07788 7.28998 6.75506 4.75 10 4.75V3.25ZM7.75 2.125C7.75 2.72117 7.98301 3.34376 8.33742 3.82058C8.68626 4.28988 9.2585 4.75 10 4.75V3.25C9.9131 3.25 9.73534 3.18683 9.54128 2.92575C9.35279 2.67217 9.25 2.35726 9.25 2.125H7.75ZM10 4.75C10.7415 4.75 11.3137 4.28988 11.6626 3.82058C12.017 3.34376 12.25 2.72117 12.25 2.125H10.75C10.75 2.35726 10.6472 2.67217 10.4587 2.92575C10.2647 3.18683 10.0869 3.25 10 3.25V4.75ZM12.25 2.125C12.25 1.47082 11.9652 0.947582 11.4714 0.624334C11.0263 0.332956 10.483 0.25 10 0.25V1.75C10.3454 1.75 10.5521 1.81533 10.6499 1.87934C10.6902 1.90575 10.7077 1.92864 10.7184 1.94888C10.7296 1.97026 10.75 2.02106 10.75 2.125H12.25ZM10 0.25C9.51699 0.25 8.97368 0.332956 8.52857 0.624334C8.03478 0.947582 7.75 1.47082 7.75 2.125H9.25C9.25 2.02106 9.2704 1.97026 9.28165 1.94888C9.2923 1.92864 9.30979 1.90575 9.35013 1.87934C9.44792 1.81533 9.65461 1.75 10 1.75V0.25ZM12.25 18C12.25 19.2427 11.2427 20.25 10 20.25V21.75C12.0711 21.75 13.75 20.0711 13.75 18H12.25ZM10 20.25C8.75731 20.25 7.75 19.2427 7.75 18H6.25C6.25 20.0711 7.92889 21.75 10 21.75V20.25Z" fill="black"/>
</g>
</svg>
