<svg width="20" height="20" viewBox="0 0 20 20" fill="none" xmlns="http://www.w3.org/2000/svg">
<g id="Vector">
<path id="Vector_2" d="M1 6L0.316058 5.69223C0.272515 5.78899 0.25 5.89389 0.25 6H1ZM19 6H19.75C19.75 5.89389 19.7275 5.78899 19.6839 5.69222L19 6ZM17.8284 17.8284L17.2981 17.298L17.298 17.2981L17.8284 17.8284ZM2.17157 17.8284L2.7019 17.2981L2.70188 17.2981L2.17157 17.8284ZM1.86538 4.07692L1.18144 3.76914L1.18144 3.76915L1.86538 4.07692ZM3.55231 1.41987L3.15836 0.781665L3.15836 0.781669L3.55231 1.41987ZM16.4477 1.41987L16.8417 0.781669L16.8416 0.781665L16.4477 1.41987ZM18.1346 4.07692L17.4506 4.38467L17.4507 4.3847L18.1346 4.07692ZM9.25 6C9.25 6.41421 9.58579 6.75 10 6.75C10.4142 6.75 10.75 6.41421 10.75 6H9.25ZM10.75 1C10.75 0.585786 10.4142 0.25 10 0.25C9.58579 0.25 9.25 0.585786 9.25 1H10.75ZM6.5 10.75C6.08579 10.75 5.75 11.0858 5.75 11.5C5.75 11.9142 6.08579 12.25 6.5 12.25V10.75ZM11 14.75C10.5858 14.75 10.25 15.0858 10.25 15.5C10.25 15.9142 10.5858 16.25 11 16.25V14.75ZM8.53033 10.0303C8.82322 9.73744 8.82322 9.26256 8.53033 8.96967C8.23744 8.67678 7.76256 8.67678 7.46967 8.96967L8.53033 10.0303ZM6 11.5L5.46967 10.9697C5.17678 11.2626 5.17678 11.7374 5.46967 12.0303L6 11.5ZM7.46967 14.0303C7.76256 14.3232 8.23744 14.3232 8.53033 14.0303C8.82322 13.7374 8.82322 13.2626 8.53033 12.9697L7.46967 14.0303ZM1.75 11V6H0.25V11H1.75ZM1 6.75H19V5.25H1V6.75ZM18.25 6V11H19.75V6H18.25ZM18.25 11C18.25 12.9068 18.2484 14.2615 18.1102 15.2892C17.975 16.2952 17.7213 16.8749 17.2981 17.298L18.3587 18.3588C19.1071 17.6104 19.4392 16.6614 19.5969 15.489C19.7516 14.3382 19.75 12.8644 19.75 11H18.25ZM17.298 17.2981C16.8749 17.7213 16.2952 17.975 15.2892 18.1102C14.2615 18.2484 12.9068 18.25 11 18.25V19.75C12.8644 19.75 14.3382 19.7516 15.489 19.5969C16.6614 19.4392 17.6104 19.1071 18.3588 18.3587L17.298 17.2981ZM11 18.25H9V19.75H11V18.25ZM9 18.25C7.09318 18.25 5.73851 18.2484 4.71085 18.1102C3.70477 17.975 3.12512 17.7213 2.7019 17.2981L1.64124 18.3587C2.3896 19.1071 3.33855 19.4392 4.51097 19.5969C5.66182 19.7516 7.13558 19.75 9 19.75V18.25ZM2.70188 17.2981C2.27869 16.8749 2.02502 16.2953 1.88976 15.2892C1.75159 14.2615 1.75 12.9068 1.75 11H0.25C0.25 12.8644 0.248407 14.3382 0.403134 15.489C0.56076 16.6614 0.892875 17.6104 1.64126 18.3587L2.70188 17.2981ZM1.68394 6.30777L2.54932 4.38469L1.18144 3.76915L0.316058 5.69223L1.68394 6.30777ZM2.54932 4.3847C2.89183 3.62356 3.12416 3.11001 3.35017 2.72976C3.56526 2.36788 3.74285 2.18364 3.94626 2.05807L3.15836 0.781669C2.68157 1.07598 2.35128 1.47454 2.06074 1.96336C1.78112 2.4338 1.51009 3.03883 1.18144 3.76914L2.54932 4.3847ZM3.94626 2.05807C4.15358 1.9301 4.4173 1.84499 4.87699 1.79871C5.35204 1.75088 5.96237 1.75 6.85 1.75V0.25C5.99263 0.25 5.29421 0.249119 4.72672 0.306257C4.14386 0.364941 3.63124 0.489771 3.15836 0.781665L3.94626 2.05807ZM6.85 1.75H13.15V0.25H6.85V1.75ZM13.15 1.75C14.0376 1.75 14.648 1.75088 15.123 1.79871C15.5827 1.84499 15.8464 1.9301 16.0538 2.05807L16.8416 0.781665C16.3688 0.489771 15.8561 0.364941 15.2733 0.306256C14.7058 0.249119 14.0074 0.25 13.15 0.25V1.75ZM16.0537 2.05807C16.2572 2.18364 16.4348 2.36789 16.6498 2.72975C16.8758 3.11 17.1082 3.62355 17.4506 4.38467L18.8186 3.76917C18.4899 3.03884 18.2189 2.43381 17.9393 1.96336C17.6487 1.47453 17.3184 1.07598 16.8417 0.781669L16.0537 2.05807ZM17.4507 4.3847L18.3161 6.30778L19.6839 5.69222L18.8185 3.76914L17.4507 4.3847ZM10.75 6V1H9.25V6H10.75ZM6.5 12.25H12V10.75H6.5V12.25ZM12 12.25C12.6904 12.25 13.25 12.8096 13.25 13.5H14.75C14.75 11.9812 13.5188 10.75 12 10.75V12.25ZM13.25 13.5C13.25 14.1904 12.6904 14.75 12 14.75V16.25C13.5188 16.25 14.75 15.0188 14.75 13.5H13.25ZM12 14.75H11V16.25H12V14.75ZM7.46967 8.96967L5.46967 10.9697L6.53033 12.0303L8.53033 10.0303L7.46967 8.96967ZM5.46967 12.0303L7.46967 14.0303L8.53033 12.9697L6.53033 10.9697L5.46967 12.0303Z" fill="black"/>
</g>
</svg>
