<svg width="18" height="17" viewBox="0 0 18 17" fill="none" xmlns="http://www.w3.org/2000/svg">
<path id="Vector" d="M13 3.20707C12.7239 3.20707 12.5 3.43093 12.5 3.70707C12.5 3.98322 12.7239 4.20707 13 4.20707V3.20707ZM16.061 4.18717L15.7629 4.58855L15.7629 4.58856L16.061 4.18717ZM16.5041 4.61603L16.8959 4.30545L16.8959 4.30544L16.5041 4.61603ZM1.49595 4.61603L1.88778 4.92662L1.88779 4.92662L1.49595 4.61603ZM1.93898 4.18717L2.23712 4.58856L2.23712 4.58855L1.93898 4.18717ZM5 4.20707C5.27614 4.20707 5.5 3.98322 5.5 3.70707C5.5 3.43093 5.27614 3.20707 5 3.20707V4.20707ZM12.5379 4.67244C12.6433 4.92765 12.9357 5.04906 13.1909 4.9436C13.4462 4.83815 13.5676 4.54577 13.4621 4.29056L12.5379 4.67244ZM12.2914 2.76648L12.7535 2.57554L12.7535 2.57553L12.2914 2.76648ZM10.9333 0.810377L10.7172 1.26126L10.7172 1.26127L10.9333 0.810377ZM7.06668 0.810377L6.85059 0.359485L6.85058 0.359486L7.06668 0.810377ZM5.70866 2.76648L6.17077 2.95743L6.17077 2.95742L5.70866 2.76648ZM4.5379 4.29055C4.43244 4.54576 4.55384 4.83814 4.80905 4.9436C5.06427 5.04906 5.35665 4.92766 5.4621 4.67244L4.5379 4.29055ZM9 3.20707C8.72386 3.20707 8.5 3.43093 8.5 3.70707C8.5 3.98322 8.72386 4.20707 9 4.20707V3.20707ZM9.0072 4.20707C9.28334 4.20707 9.5072 3.98322 9.5072 3.70707C9.5072 3.43093 9.28334 3.20707 9.0072 3.20707V4.20707ZM13 4.20707C13.9544 4.20707 14.517 4.20818 14.9257 4.2627C15.2978 4.31233 15.5127 4.40274 15.7629 4.58855L16.3592 3.78579C15.963 3.4915 15.5856 3.34186 15.0579 3.27147C14.5668 3.20597 13.9221 3.20707 13 3.20707V4.20707ZM15.7629 4.58856C15.8945 4.68634 16.0119 4.80007 16.1122 4.92662L16.8959 4.30544C16.7409 4.10983 16.5603 3.93519 16.3592 3.78578L15.7629 4.58856ZM16.1122 4.92661C16.2794 5.13749 16.3848 5.41697 16.4414 5.9025C16.4992 6.3992 16.5 7.04617 16.5 7.96641H17.5C17.5 7.07018 17.5008 6.35479 17.4347 5.78683C17.3672 5.20771 17.2247 4.72025 16.8959 4.30545L16.1122 4.92661ZM16.5 7.96641V11.4513H17.5V7.96641H16.5ZM16.5 11.4513C16.5 12.5611 16.4989 13.3415 16.4169 13.9318C16.3371 14.506 16.1895 14.8255 15.9493 15.0581L16.6448 15.7766C17.1075 15.3287 17.3114 14.7605 17.4074 14.0693C17.5011 13.3943 17.5 12.5319 17.5 11.4513H16.5ZM15.9493 15.0581C15.7067 15.2929 15.3699 15.4388 14.7689 15.517C14.1551 15.5969 13.3451 15.5979 12.2 15.5979V16.5979C13.3177 16.5979 14.2046 16.5989 14.898 16.5086C15.6041 16.4167 16.1844 16.2223 16.6448 15.7766L15.9493 15.0581ZM12.2 15.5979H5.8V16.5979H12.2V15.5979ZM5.8 15.5979C4.65493 15.5979 3.84485 15.5969 3.23108 15.517C2.63007 15.4388 2.29324 15.2929 2.05071 15.0581L1.35518 15.7766C1.81559 16.2223 2.39591 16.4167 3.10202 16.5086C3.79535 16.5989 4.68232 16.5979 5.8 16.5979V15.5979ZM2.05071 15.0581C1.81045 14.8255 1.66286 14.506 1.58311 13.9318C1.50113 13.3415 1.5 12.5611 1.5 11.4513H0.5C0.5 12.5319 0.498868 13.3943 0.592622 14.0693C0.688611 14.7605 0.892494 15.3287 1.35518 15.7766L2.05071 15.0581ZM1.5 11.4513V7.96641H0.5V11.4513H1.5ZM1.5 7.96641C1.5 7.04617 1.50079 6.3992 1.55864 5.90251C1.61518 5.41698 1.72063 5.1375 1.88778 4.92662L1.10412 4.30544C0.775323 4.72023 0.632795 5.2077 0.565351 5.78683C0.499207 6.35479 0.5 7.07018 0.5 7.96641H1.5ZM1.88779 4.92662C1.98811 4.80006 2.10548 4.68633 2.23712 4.58856L1.64083 3.78578C1.43967 3.9352 1.25916 4.10984 1.10412 4.30544L1.88779 4.92662ZM2.23712 4.58855C2.48728 4.40274 2.7022 4.31233 3.0743 4.2627C3.483 4.20818 4.04565 4.20707 5 4.20707V3.20707C4.07788 3.20707 3.43319 3.20597 2.94208 3.27147C2.41437 3.34186 2.03701 3.4915 1.64083 3.78579L2.23712 4.58855ZM13.4621 4.29056L12.7535 2.57554L11.8293 2.95742L12.5379 4.67244L13.4621 4.29056ZM12.7535 2.57553C12.6127 2.23486 12.4501 1.78886 12.2248 1.40107C11.9904 0.997553 11.6619 0.60512 11.1494 0.359482L10.7172 1.26127C10.9909 1.39243 11.1886 1.60808 11.3602 1.90343C11.5409 2.2145 11.6643 2.55816 11.8293 2.95743L12.7535 2.57553ZM11.1494 0.359493C10.8644 0.222889 10.5669 0.164055 10.2289 0.136191C9.89894 0.108983 9.49651 0.109375 9 0.109375V1.10938C9.51277 1.10938 9.8673 1.10977 10.1468 1.13281C10.4183 1.1552 10.5828 1.19686 10.7172 1.26126L11.1494 0.359493ZM9 0.109375C8.50349 0.109375 8.10106 0.108983 7.77105 0.136191C7.43309 0.164055 7.1356 0.222889 6.85059 0.359485L7.28277 1.26127C7.41716 1.19686 7.58169 1.1552 7.85322 1.13281C8.1327 1.10977 8.48723 1.10938 9 1.10938V0.109375ZM6.85058 0.359486C6.33804 0.605128 6.0096 0.997564 5.77517 1.40108C5.54987 1.78887 5.38732 2.23487 5.24656 2.57554L6.17077 2.95742C6.33575 2.55815 6.45911 2.21449 6.63983 1.90342C6.81143 1.60807 7.00912 1.39242 7.28278 1.26127L6.85058 0.359486ZM5.24656 2.57553L4.5379 4.29055L5.4621 4.67244L6.17077 2.95743L5.24656 2.57553ZM11.3 9.90247C11.3 11.1081 10.2857 12.113 9 12.113V13.113C10.8071 13.113 12.3 11.6908 12.3 9.90247H11.3ZM9 12.113C7.7143 12.113 6.7 11.1081 6.7 9.90247H5.7C5.7 11.6908 7.1929 13.113 9 13.113V12.113ZM6.7 9.90247C6.7 8.69684 7.7143 7.69198 9 7.69198V6.69198C7.1929 6.69198 5.7 8.11418 5.7 9.90247H6.7ZM9 7.69198C10.2857 7.69198 11.3 8.69684 11.3 9.90247H12.3C12.3 8.11418 10.8071 6.69198 9 6.69198V7.69198ZM9 4.20707H9.0072V3.20707H9V4.20707Z" fill="white"/>
</svg>
