<svg width="22" height="22" viewBox="0 0 22 22" fill="none" xmlns="http://www.w3.org/2000/svg">
<g id="Vector">
<path id="Vector_2" d="M11.75 7C11.75 6.58579 11.4142 6.25 11 6.25C10.5858 6.25 10.25 6.58579 10.25 7H11.75ZM11 11H10.25C10.25 11.1989 10.329 11.3897 10.4697 11.5303L11 11ZM12.4697 13.5303C12.7626 13.8232 13.2374 13.8232 13.5303 13.5303C13.8232 13.2374 13.8232 12.7626 13.5303 12.4697L12.4697 13.5303ZM20.25 11C20.25 16.1086 16.1086 20.25 11 20.25V21.75C16.9371 21.75 21.75 16.9371 21.75 11H20.25ZM11 20.25C5.89137 20.25 1.75 16.1086 1.75 11H0.25C0.25 16.9371 5.06294 21.75 11 21.75V20.25ZM1.75 11C1.75 5.89137 5.89137 1.75 11 1.75V0.25C5.06294 0.25 0.25 5.06294 0.25 11H1.75ZM11 1.75C16.1086 1.75 20.25 5.89137 20.25 11H21.75C21.75 5.06294 16.9371 0.25 11 0.25V1.75ZM10.25 7V11H11.75V7H10.25ZM10.4697 11.5303L12.4697 13.5303L13.5303 12.4697L11.5303 10.4697L10.4697 11.5303Z" fill="black"/>
</g>
</svg>
