<svg width="23" height="19" viewBox="0 0 23 19" fill="none" xmlns="http://www.w3.org/2000/svg">
<path d="M20 14V6C20 3.64298 20 2.46447 19.2677 1.73223C18.5355 1 17.357 1 15 1H8C5.64298 1 4.46446 1 3.73223 1.73223C3 2.46447 3 3.64298 3 6V14M20 14H3M20 14L21.9449 17.2764C22.1162 17.6088 21.8671 18 21.4842 18H1.51579C1.13285 18 0.883791 17.6088 1.05505 17.2764L3 14M13.6608 6.8625L10.9512 5.09844C10.8524 5.03411 10.7382 5 10.6217 5C10.2783 5 10 5.28994 10 5.6476V9.3524C10 9.7101 10.2783 10 10.6217 10C10.7382 10 10.8524 9.9659 10.9512 9.9016L13.6608 8.1375C13.8718 8.0001 14 7.7592 14 7.5C14 7.2408 13.8718 6.99988 13.6608 6.8625Z" stroke="#141B34" stroke-width="1.5" stroke-linecap="round" stroke-linejoin="round"/>
</svg>
