<svg width="22" height="22" viewBox="0 0 22 22" fill="none" xmlns="http://www.w3.org/2000/svg">
<g id="Vector">
<path id="Vector_2" d="M7.91302 7.92462L8.2833 7.2724L8.2833 7.2724L7.91302 7.92462ZM14.087 7.92462L13.7167 7.2724L14.087 7.92462ZM9.49019 19.2499C9.90437 19.2554 10.2445 18.924 10.2499 18.5098C10.2554 18.0956 9.92399 17.7555 9.50981 17.7501L9.49019 19.2499ZM8.09883 18.4732L8.11773 17.7234L8.11767 17.7234L8.09883 18.4732ZM2.24496 17.2184L2.77645 16.6892L2.77645 16.6892L2.24496 17.2184ZM1.01577 11.4814L1.7656 11.4654L1.7656 11.4654L1.01577 11.4814ZM1.01576 8.52843L0.26593 8.51245L0.26593 8.51245L1.01576 8.52843ZM8.09882 1.53658L8.07997 0.786817L8.07997 0.786817L8.09882 1.53658ZM13.9012 1.53659L13.92 0.786827L13.92 0.786827L13.9012 1.53659ZM19.755 2.79141L19.2235 3.32057L19.2235 3.3206L19.755 2.79141ZM20.9842 8.52844L20.2344 8.5444L20.2344 8.54446L20.9842 8.52844ZM20.2499 9.50198C20.251 9.91619 20.5877 10.2511 21.0019 10.25C21.4161 10.2489 21.751 9.91224 21.7499 9.49802L20.2499 9.50198ZM16.5 21.25C16.9142 21.25 17.25 20.9142 17.25 20.5C17.25 20.0858 16.9142 19.75 16.5 19.75V21.25ZM0.629724 4.65222L7.54274 8.57684L8.2833 7.2724L1.37028 3.34778L0.629724 4.65222ZM7.54274 8.57684C8.8285 9.30679 9.88369 9.75003 11 9.75003C12.1163 9.75003 13.1715 9.30679 14.4573 8.57684L13.7167 7.2724C12.4768 7.97633 11.7078 8.25003 11 8.25003C10.2922 8.25003 9.52322 7.97633 8.2833 7.2724L7.54274 8.57684ZM14.4573 8.57684L21.3703 4.65222L20.6297 3.34778L13.7167 7.2724L14.4573 8.57684ZM9.50981 17.7501C9.04651 17.744 8.58266 17.7352 8.11773 17.7234L8.07993 19.223C8.55098 19.2348 9.02089 19.2438 9.49019 19.2499L9.50981 17.7501ZM8.11767 17.7234C6.52099 17.6833 5.40532 17.6534 4.54413 17.5033C3.71668 17.3591 3.20074 17.1154 2.77645 16.6892L1.71347 17.7476C2.4203 18.4575 3.25704 18.8016 4.28663 18.981C5.28246 19.1546 6.52817 19.184 8.07999 19.223L8.11767 17.7234ZM2.77645 16.6892C2.34916 16.2601 2.10927 15.7503 1.96966 14.9458C1.82385 14.1057 1.79877 13.0218 1.7656 11.4654L0.26594 11.4974C0.298141 13.0083 0.322089 14.2248 0.491752 15.2024C0.66761 16.2156 1.00963 17.0406 1.71347 17.7476L2.77645 16.6892ZM1.7656 11.4654C1.74481 10.4898 1.7448 9.52002 1.76559 8.54441L0.26593 8.51245C0.244683 9.50938 0.244693 10.5004 0.26594 11.4974L1.7656 11.4654ZM1.76559 8.54441C1.79876 6.98802 1.82385 5.90407 1.96965 5.06396C2.10926 4.25954 2.34915 3.74972 2.77644 3.32056L1.71346 2.26222C1.00962 2.96915 0.667601 3.7942 0.491745 4.80746C0.322084 5.78502 0.298136 7.00154 0.26593 8.51245L1.76559 8.54441ZM2.77644 3.32056C3.20073 2.89441 3.71667 2.65069 4.54413 2.5065C5.40533 2.35643 6.52099 2.32648 8.11767 2.28634L8.07997 0.786817C6.52816 0.825828 5.28245 0.855239 4.28662 1.02877C3.25705 1.20817 2.4203 1.55228 1.71346 2.26222L2.77644 3.32056ZM8.11767 2.28634C10.0456 2.23788 11.9544 2.23789 13.8824 2.28635L13.92 0.786827C11.967 0.737731 10.033 0.737721 8.07997 0.786817L8.11767 2.28634ZM13.8824 2.28635C15.479 2.32649 16.5947 2.35644 17.4559 2.50651C18.2833 2.6507 18.7992 2.89443 19.2235 3.32057L20.2865 2.26225C19.5797 1.5523 18.7429 1.20819 17.7134 1.02878C16.7176 0.855251 15.4719 0.825838 13.92 0.786827L13.8824 2.28635ZM19.2235 3.3206C19.6508 3.74975 19.8907 4.25957 20.0304 5.06397C20.1762 5.90407 20.2012 6.98802 20.2344 8.5444L21.734 8.51248C21.7019 7.00157 21.6779 5.78503 21.5083 4.80746C21.3324 3.7942 20.9904 2.96914 20.2865 2.26222L19.2235 3.3206ZM20.2344 8.54446C20.2441 9.00117 20.2491 9.2071 20.2499 9.50198L21.7499 9.49802C21.7491 9.1859 21.7437 8.96385 21.734 8.51242L20.2344 8.54446ZM17.25 16C17.25 16.4142 16.9142 16.75 16.5 16.75V18.25C17.7426 18.25 18.75 17.2426 18.75 16H17.25ZM16.5 16.75C16.0858 16.75 15.75 16.4142 15.75 16H14.25C14.25 17.2426 15.2574 18.25 16.5 18.25V16.75ZM15.75 16C15.75 15.5858 16.0858 15.25 16.5 15.25V13.75C15.2574 13.75 14.25 14.7574 14.25 16H15.75ZM16.5 15.25C16.9142 15.25 17.25 15.5858 17.25 16H18.75C18.75 14.7574 17.7426 13.75 16.5 13.75V15.25ZM17.25 16V16.5H18.75V16H17.25ZM17.25 16.5C17.25 17.7426 18.2574 18.75 19.5 18.75V17.25C19.0858 17.25 18.75 16.9142 18.75 16.5H17.25ZM19.5 18.75C20.7426 18.75 21.75 17.7426 21.75 16.5H20.25C20.25 16.9142 19.9142 17.25 19.5 17.25V18.75ZM21.75 16.5V16H20.25V16.5H21.75ZM21.75 16C21.75 13.1005 19.3995 10.75 16.5 10.75V12.25C18.5711 12.25 20.25 13.9289 20.25 16H21.75ZM16.5 10.75C13.6005 10.75 11.25 13.1005 11.25 16H12.75C12.75 13.9289 14.4289 12.25 16.5 12.25V10.75ZM11.25 16C11.25 18.8995 13.6005 21.25 16.5 21.25V19.75C14.4289 19.75 12.75 18.0711 12.75 16H11.25Z" fill="black"/>
</g>
</svg>
