<svg width="22" height="22" viewBox="0 0 22 22" fill="none" xmlns="http://www.w3.org/2000/svg">
<g id="Vector">
<path id="Vector_2" d="M7.91302 7.92462L8.2833 7.2724L8.2833 7.2724L7.91302 7.92462ZM14.087 7.92462L13.7167 7.2724L14.087 7.92462ZM20.2429 9.98919C20.2369 10.4034 20.5678 10.744 20.982 10.7499C21.3962 10.7559 21.7368 10.425 21.7427 10.0108L20.2429 9.98919ZM20.9842 8.52439L20.2344 8.54036L20.2344 8.54044L20.9842 8.52439ZM19.7551 2.79066L20.2864 2.26135L20.2864 2.26132L19.7551 2.79066ZM13.9012 1.53657L13.8824 2.28633L13.8824 2.28633L13.9012 1.53657ZM8.09882 1.53656L8.07998 0.786798L8.07998 0.786798L8.09882 1.53656ZM2.24495 2.79065L2.77629 3.31997L2.77629 3.31997L2.24495 2.79065ZM1.01576 8.52438L0.265931 8.50839L0.26593 8.50839L1.01576 8.52438ZM1.01577 11.4756L1.7656 11.4596L1.7656 11.4596L1.01577 11.4756ZM2.24496 17.2094L1.71361 17.7387L1.71363 17.7387L2.24496 17.2094ZM8.09883 18.4634L8.11768 17.7136L8.11767 17.7136L8.09883 18.4634ZM10 19.25C10.4142 19.25 10.75 18.9142 10.75 18.5C10.75 18.0858 10.4142 17.75 10 17.75V19.25ZM13.5303 12.9697C13.2374 12.6768 12.7626 12.6768 12.4697 12.9697C12.1768 13.2626 12.1768 13.7374 12.4697 14.0303L13.5303 12.9697ZM19.4697 21.0303C19.7626 21.3232 20.2374 21.3232 20.5303 21.0303C20.8232 20.7374 20.8232 20.2626 20.5303 19.9697L19.4697 21.0303ZM12.4697 19.9697C12.1768 20.2626 12.1768 20.7374 12.4697 21.0303C12.7626 21.3232 13.2374 21.3232 13.5303 21.0303L12.4697 19.9697ZM20.5303 14.0303C20.8232 13.7374 20.8232 13.2626 20.5303 12.9697C20.2374 12.6768 19.7626 12.6768 19.4697 12.9697L20.5303 14.0303ZM0.629724 4.65222L7.54274 8.57684L8.2833 7.2724L1.37028 3.34778L0.629724 4.65222ZM7.54274 8.57684C8.8285 9.30679 9.88369 9.75003 11 9.75003C12.1163 9.75003 13.1715 9.30679 14.4573 8.57684L13.7167 7.2724C12.4768 7.97633 11.7078 8.25003 11 8.25003C10.2922 8.25003 9.52322 7.97633 8.2833 7.2724L7.54274 8.57684ZM14.4573 8.57684L21.3703 4.65222L20.6297 3.34778L13.7167 7.2724L14.4573 8.57684ZM21.7427 10.0108C21.7548 9.17165 21.7518 9.33824 21.734 8.50834L20.2344 8.54044C20.252 9.36456 20.2546 9.17695 20.2429 9.98919L21.7427 10.0108ZM21.734 8.50842C21.7019 6.9984 21.6779 5.7825 21.5083 4.80542C21.3324 3.79261 20.9903 2.96792 20.2864 2.26135L19.2238 3.31998C19.651 3.74883 19.8908 4.25824 20.0304 5.06205C20.1762 5.9016 20.2012 6.98485 20.2344 8.54036L21.734 8.50842ZM20.2864 2.26132C19.5795 1.55179 18.7428 1.20791 17.7133 1.02862C16.7175 0.855196 15.4719 0.8258 13.92 0.786808L13.8824 2.28633C15.479 2.32645 16.5947 2.35639 17.456 2.50637C18.2835 2.65049 18.7995 2.89411 19.2238 3.32L20.2864 2.26132ZM13.92 0.786808C11.967 0.737732 10.033 0.737732 8.07998 0.786798L8.11766 2.28632C10.0456 2.23789 11.9544 2.23789 13.8824 2.28633L13.92 0.786808ZM8.07998 0.786798C6.52816 0.825785 5.28249 0.855178 4.2867 1.0286C3.2572 1.20789 2.42048 1.55177 1.71361 2.26133L2.77629 3.31997C3.20055 2.89409 3.71652 2.65048 4.54405 2.50636C5.40529 2.35637 6.52099 2.32644 8.11766 2.28632L8.07998 0.786798ZM1.71361 2.26133C1.00971 2.96791 0.667638 3.7926 0.491758 4.80541C0.322084 5.78248 0.298135 6.99838 0.265931 8.50839L1.76559 8.54037C1.79876 6.98485 1.82385 5.9016 1.96964 5.06205C2.10923 4.25823 2.34906 3.74882 2.77629 3.31997L1.71361 2.26133ZM0.26593 8.50839C0.244683 9.50477 0.244693 10.4952 0.26594 11.4916L1.7656 11.4596C1.74481 10.4846 1.7448 9.51543 1.76559 8.54037L0.26593 8.50839ZM0.26594 11.4916C0.29814 13.0016 0.322088 14.2175 0.491764 15.1946C0.667647 16.2074 1.00972 17.0321 1.71361 17.7387L2.77631 16.6801C2.34907 16.2512 2.10923 15.7418 1.96965 14.938C1.82385 14.0984 1.79877 13.0152 1.7656 11.4596L0.26594 11.4916ZM1.71363 17.7387C2.4205 18.4483 3.25722 18.7921 4.28671 18.9714C5.2825 19.1448 6.52817 19.1742 8.07999 19.2132L8.11767 17.7136C6.52099 17.6735 5.40529 17.6436 4.54404 17.4936C3.71651 17.3495 3.20054 17.1059 2.77629 16.6801L1.71363 17.7387ZM8.07998 19.2132C9.03565 19.2372 9.02197 19.25 10 19.25V17.75C9.04703 17.75 9.10255 17.7384 8.11768 17.7136L8.07998 19.2132ZM12.4697 14.0303L15.9697 17.5303L17.0303 16.4697L13.5303 12.9697L12.4697 14.0303ZM15.9697 17.5303L19.4697 21.0303L20.5303 19.9697L17.0303 16.4697L15.9697 17.5303ZM15.9697 16.4697L12.4697 19.9697L13.5303 21.0303L17.0303 17.5303L15.9697 16.4697ZM17.0303 17.5303L20.5303 14.0303L19.4697 12.9697L15.9697 16.4697L17.0303 17.5303Z" fill="black"/>
</g>
</svg>
