<svg width="22" height="20" viewBox="0 0 22 20" fill="none" xmlns="http://www.w3.org/2000/svg">
<g id="Vector">
<path id="Vector_2" d="M7.91302 7.42462L8.2833 6.7724L8.2833 6.7724L7.91302 7.42462ZM14.087 7.42462L13.7167 6.7724L14.087 7.42462ZM10.4936 18.75C10.9078 18.7535 11.2464 18.4206 11.25 18.0064C11.2535 17.5922 10.9206 17.2536 10.5064 17.25L10.4936 18.75ZM8.09883 17.9634L8.11768 17.2136L8.11767 17.2136L8.09883 17.9634ZM2.24496 16.7094L1.71361 17.2387L1.71363 17.2387L2.24496 16.7094ZM1.01577 10.9756L1.7656 10.9596L1.7656 10.9596L1.01577 10.9756ZM1.01576 8.0244L0.265931 8.00841L0.26593 8.00841L1.01576 8.0244ZM2.24495 2.29065L2.77629 2.81997L2.77629 2.81997L2.24495 2.29065ZM8.09882 1.03656L8.07998 0.286798L8.07998 0.286798L8.09882 1.03656ZM13.9012 1.03657L13.8824 1.78633L13.8824 1.78633L13.9012 1.03657ZM19.7551 2.29066L20.2864 1.76135L20.2864 1.76132L19.7551 2.29066ZM20.9842 8.0244L21.734 8.00843L21.734 8.00843L20.9842 8.0244ZM20.2488 9.50315C20.2505 9.91736 20.5877 10.2517 21.0019 10.25C21.4162 10.2483 21.7505 9.91106 21.7488 9.49685L20.2488 9.50315ZM13 14.25C12.5858 14.25 12.25 14.5858 12.25 15C12.25 15.4142 12.5858 15.75 13 15.75V14.25ZM21 15.75C21.4142 15.75 21.75 15.4142 21.75 15C21.75 14.5858 21.4142 14.25 21 14.25V15.75ZM16.25 19C16.25 19.4142 16.5858 19.75 17 19.75C17.4142 19.75 17.75 19.4142 17.75 19H16.25ZM17.75 11C17.75 10.5858 17.4142 10.25 17 10.25C16.5858 10.25 16.25 10.5858 16.25 11H17.75ZM0.629724 4.15222L7.54274 8.07684L8.2833 6.7724L1.37028 2.84778L0.629724 4.15222ZM7.54274 8.07684C8.8285 8.80679 9.88369 9.25003 11 9.25003C12.1163 9.25003 13.1715 8.80679 14.4573 8.07684L13.7167 6.7724C12.4768 7.47633 11.7078 7.75003 11 7.75003C10.2922 7.75003 9.52322 7.47633 8.2833 6.7724L7.54274 8.07684ZM14.4573 8.07684L21.3703 4.15222L20.6297 2.84778L13.7167 6.7724L14.4573 8.07684ZM10.5 18C10.5064 17.25 10.5064 17.25 10.5064 17.25C10.5064 17.25 10.5064 17.25 10.5063 17.25C10.5063 17.25 10.5062 17.25 10.5062 17.25C10.506 17.25 10.5058 17.25 10.5054 17.25C10.5048 17.25 10.5037 17.25 10.5024 17.25C10.4997 17.25 10.4957 17.2499 10.4904 17.2499C10.4797 17.2498 10.464 17.2497 10.4436 17.2495C10.4028 17.2491 10.3433 17.2485 10.2689 17.2478C10.1201 17.2462 9.91156 17.244 9.67282 17.2409C9.19454 17.2348 8.59802 17.2257 8.11768 17.2136L8.07998 18.7132C8.56991 18.7255 9.17397 18.7347 9.65372 18.7408C9.89398 18.7439 10.1038 18.7461 10.2536 18.7477C10.3285 18.7484 10.3884 18.749 10.4297 18.7494C10.4503 18.7496 10.4662 18.7497 10.477 18.7498C10.4824 18.7499 10.4866 18.7499 10.4893 18.7499C10.4907 18.7499 10.4918 18.75 10.4925 18.75C10.4929 18.75 10.4931 18.75 10.4933 18.75C10.4934 18.75 10.4935 18.75 10.4935 18.75C10.4935 18.75 10.4936 18.75 10.4936 18.75C10.4936 18.75 10.4936 18.75 10.5 18ZM8.11767 17.2136C6.52099 17.1735 5.40529 17.1436 4.54404 16.9936C3.71651 16.8495 3.20054 16.6059 2.77629 16.1801L1.71363 17.2387C2.4205 17.9483 3.25722 18.2921 4.28671 18.4714C5.2825 18.6448 6.52817 18.6742 8.07999 18.7132L8.11767 17.2136ZM2.77631 16.1801C2.34907 15.7512 2.10923 15.2418 1.96965 14.438C1.82385 13.5984 1.79877 12.5152 1.7656 10.9596L0.26594 10.9916C0.29814 12.5016 0.322088 13.7175 0.491764 14.6946C0.667647 15.7074 1.00972 16.5321 1.71361 17.2387L2.77631 16.1801ZM1.7656 10.9596C1.74481 9.98456 1.7448 9.01543 1.76559 8.04039L0.26593 8.00841C0.244683 9.00477 0.244693 9.99524 0.26594 10.9916L1.7656 10.9596ZM1.76559 8.04039C1.79876 6.48486 1.82385 5.40161 1.96964 4.56205C2.10923 3.75823 2.34906 3.24882 2.77629 2.81997L1.71361 1.76133C1.00971 2.46791 0.667638 3.2926 0.491758 4.30541C0.322084 5.28248 0.298135 6.49839 0.265931 8.00841L1.76559 8.04039ZM2.77629 2.81997C3.20055 2.39409 3.71652 2.15048 4.54405 2.00636C5.40529 1.85637 6.52099 1.82644 8.11766 1.78632L8.07998 0.286798C6.52816 0.325785 5.28249 0.355178 4.2867 0.5286C3.2572 0.707892 2.42048 1.05177 1.71361 1.76133L2.77629 2.81997ZM8.11766 1.78632C10.0456 1.73789 11.9544 1.73789 13.8824 1.78633L13.92 0.286808C11.967 0.237732 10.033 0.237732 8.07998 0.286798L8.11766 1.78632ZM13.8824 1.78633C15.479 1.82645 16.5947 1.85639 17.456 2.00637C18.2835 2.15049 18.7995 2.39411 19.2238 2.82L20.2864 1.76132C19.5795 1.05179 18.7428 0.70791 17.7133 0.528618C16.7175 0.355196 15.4719 0.3258 13.92 0.286808L13.8824 1.78633ZM19.2238 2.81998C19.651 3.24883 19.8908 3.75824 20.0304 4.56205C20.1762 5.4016 20.2012 6.48485 20.2344 8.04037L21.734 8.00843C21.7019 6.49841 21.6779 5.2825 21.5083 4.30543C21.3324 3.29261 20.9903 2.46792 20.2864 1.76135L19.2238 2.81998ZM20.2344 8.04037C20.2418 8.39015 20.2467 9.0028 20.2488 9.50315L21.7488 9.49685C21.7467 8.9962 21.7418 8.37225 21.734 8.00843L20.2344 8.04037ZM13 15.75H21V14.25H13V15.75ZM17.75 19V11H16.25V19H17.75Z" fill="black"/>
</g>
</svg>
