<svg width="22" height="20" viewBox="0 0 22 20" fill="none" xmlns="http://www.w3.org/2000/svg">
<g id="Vector">
<path id="Vector_2" d="M21 10.5001C21 10.0087 20.9947 9.0172 20.9842 8.5244C20.9189 5.45886 20.8862 3.92609 19.7551 2.79066C18.6239 1.65523 17.0497 1.61568 13.9012 1.53657C11.9607 1.48781 10.0393 1.48781 8.09882 1.53656C4.95033 1.61566 3.37608 1.65521 2.24495 2.79065C1.11382 3.92608 1.08114 5.45885 1.01576 8.5244C0.99474 9.5101 0.99475 10.4899 1.01577 11.4756C1.08114 14.5412 1.11383 16.0739 2.24496 17.2094C3.37608 18.3448 4.95033 18.3843 8.09883 18.4634C8.90159 18.4836 9.7011 18.4954 10.5 18.4989M6 6.5L8.94202 8.2394C10.6572 9.2535 11.3428 9.2535 13.058 8.2394L16 6.5M13 15.5H21M13 15.5C13 14.7998 14.9943 13.4915 15.5 13M13 15.5C13 16.2002 14.9943 17.5085 15.5 18" stroke="black" stroke-width="1.5" stroke-linecap="round" stroke-linejoin="round"/>
</g>
</svg>
