<svg width="15" height="15" viewBox="0 0 15 15" fill="none" xmlns="http://www.w3.org/2000/svg">
<path d="M5.10011 2.15394C5.10011 2.15394 2.71841 1.94025 2.33054 2.32812C1.94268 2.71597 2.1564 5.09767 2.1564 5.09767" stroke="black" stroke-width="0.900735" stroke-linecap="round" stroke-linejoin="round"/>
<path d="M5.10011 12.8456C5.10011 12.8456 2.71841 13.0593 2.33054 12.6714C1.94268 12.2835 2.1564 9.90186 2.1564 9.90186" stroke="black" stroke-width="0.900735" stroke-linecap="round" stroke-linejoin="round"/>
<path d="M9.90234 2.15394C9.90234 2.15394 12.2841 1.94025 12.6719 2.32812C13.0598 2.71597 12.8461 5.09767 12.8461 5.09767" stroke="black" stroke-width="0.900735" stroke-linecap="round" stroke-linejoin="round"/>
<path d="M9.90234 12.8456C9.90234 12.8456 12.2841 13.0593 12.6719 12.6714C13.0598 12.2835 12.8461 9.90186 12.8461 9.90186" stroke="black" stroke-width="0.900735" stroke-linecap="round" stroke-linejoin="round"/>
<path d="M8.70898 6.29804L12.343 2.66406" stroke="black" stroke-width="0.900735" stroke-linecap="round" stroke-linejoin="round"/>
<path d="M6.29796 8.70215L2.48047 12.5323" stroke="black" stroke-width="0.900735" stroke-linecap="round" stroke-linejoin="round"/>
<path d="M6.29946 6.30045L2.60547 2.61133" stroke="black" stroke-width="0.900735" stroke-linecap="round" stroke-linejoin="round"/>
<path d="M8.69141 8.70215L12.6237 12.6029" stroke="black" stroke-width="0.900735" stroke-linecap="round" stroke-linejoin="round"/>
</svg>
