<svg width="22" height="20" viewBox="0 0 22 20" fill="none" xmlns="http://www.w3.org/2000/svg">
<g id="Vector">
<path id="Vector_2" d="M17.9106 12.9067C17.6167 13.1985 17.6149 13.6734 17.9067 13.9674C18.1985 14.2613 18.6734 14.2631 18.9674 13.9713L17.9106 12.9067ZM20.544 10.955L21.1546 11.3905L21.1546 11.3905L20.544 10.955ZM20.544 9.045L21.1546 8.60955L21.1546 8.60953L20.544 9.045ZM8.18654 2.70497C7.79259 2.83295 7.57699 3.25605 7.70497 3.65C7.83295 4.04395 8.25605 4.25955 8.65 4.13157L8.18654 2.70497ZM6.16677 5.36923C6.51019 5.13762 6.60083 4.67148 6.36923 4.32807C6.13762 3.98465 5.67148 3.89401 5.32807 4.12561L6.16677 5.36923ZM1.45604 9.045L2.06666 9.48048L2.06667 9.48046L1.45604 9.045ZM1.45604 10.955L2.06668 10.5195L2.06666 10.5195L1.45604 10.955ZM16.6719 15.8744C17.0154 15.6428 17.106 15.1767 16.8744 14.8333C16.6428 14.4898 16.1767 14.3992 15.8333 14.6308L16.6719 15.8744ZM9.38817 8.53035C9.68108 8.23746 9.68109 7.76259 9.3882 7.46968C9.09532 7.17678 8.62045 7.17677 8.32754 7.46965L9.38817 8.53035ZM13.5304 12.6724C13.8232 12.3795 13.8232 11.9046 13.5303 11.6117C13.2374 11.3189 12.7625 11.3189 12.4696 11.6118L13.5304 12.6724ZM2.53033 0.46967C2.23744 0.176777 1.76256 0.176777 1.46967 0.46967C1.17678 0.762563 1.17678 1.23744 1.46967 1.53033L2.53033 0.46967ZM19.4697 19.5303C19.7626 19.8232 20.2374 19.8232 20.5303 19.5303C20.8232 19.2374 20.8232 18.7626 20.5303 18.4697L19.4697 19.5303ZM18.9674 13.9713C19.9297 13.016 20.6707 12.0691 21.1546 11.3905L19.9334 10.5195C19.4843 11.1491 18.7975 12.0264 17.9106 12.9067L18.9674 13.9713ZM21.1546 11.3905C21.4186 11.0204 21.75 10.602 21.75 10H20.25C20.25 10.0161 20.2517 10.0301 20.2207 10.0897C20.1744 10.1787 20.0967 10.2906 19.9334 10.5195L21.1546 11.3905ZM21.75 10C21.75 9.39797 21.4186 8.97964 21.1546 8.60955L19.9334 9.48045C20.0967 9.70944 20.1744 9.82129 20.2207 9.9103C20.2517 9.96988 20.25 9.98394 20.25 10H21.75ZM21.1546 8.60953C20.4488 7.61974 19.1869 6.04576 17.4797 4.71298C15.774 3.38141 13.5706 2.25 11 2.25V3.75C13.1186 3.75 15.0041 4.68331 16.5566 5.89535C18.1076 7.10618 19.2731 8.5547 19.9334 9.48047L21.1546 8.60953ZM11 2.25C10.0058 2.25 9.06482 2.41964 8.18654 2.70497L8.65 4.13157C9.39398 3.88988 10.1786 3.75 11 3.75V2.25ZM5.32807 4.12561C3.20574 5.55694 1.65549 7.47359 0.845406 8.60954L2.06667 9.48046C2.82881 8.41173 4.25662 6.65746 6.16677 5.36923L5.32807 4.12561ZM0.845422 8.60952C0.58148 8.97961 0.25 9.39795 0.25 10H1.75C1.75 9.98395 1.74828 9.96989 1.77928 9.91033C1.82562 9.82131 1.90335 9.70947 2.06666 9.48048L0.845422 8.60952ZM0.25 10C0.25 10.6021 0.58148 11.0204 0.845422 11.3905L2.06666 10.5195C1.90335 10.2905 1.82562 10.1787 1.77928 10.0897C1.74828 10.0301 1.75 10.016 1.75 10H0.25ZM0.845404 11.3905C1.55126 12.3803 2.81313 13.9543 4.52031 15.287C6.22596 16.6186 8.42944 17.75 11 17.75V16.25C8.88134 16.25 6.99587 15.3167 5.44336 14.1047C3.89238 12.8938 2.72688 11.4453 2.06668 10.5195L0.845404 11.3905ZM11 17.75C13.183 17.75 15.1015 16.9334 16.6719 15.8744L15.8333 14.6308C14.4287 15.578 12.7986 16.25 11 16.25V17.75ZM8.32754 7.46965C7.66258 8.13458 7.25 9.05542 7.25 10.0711H8.75C8.75 9.46918 8.99308 8.92542 9.38817 8.53035L8.32754 7.46965ZM7.25 10.0711C7.25 12.1029 8.89709 13.75 10.9289 13.75V12.25C9.72551 12.25 8.75 11.2745 8.75 10.0711H7.25ZM10.9289 13.75C11.9446 13.75 12.8654 13.3375 13.5304 12.6724L12.4696 11.6118C12.0746 12.0069 11.5308 12.25 10.9289 12.25V13.75ZM1.46967 1.53033L19.4697 19.5303L20.5303 18.4697L2.53033 0.46967L1.46967 1.53033Z" fill="black"/>
</g>
</svg>
