<svg width="22" height="22" viewBox="0 0 22 22" fill="none" xmlns="http://www.w3.org/2000/svg">
<path d="M10.6172 16C10.6172 16.3452 10.897 16.625 11.2422 16.625C11.5874 16.625 11.8672 16.3452 11.8672 16H10.6172ZM10.2422 9.375C9.89703 9.375 9.6172 9.65482 9.6172 10C9.6172 10.3452 9.89703 10.625 10.2422 10.625V9.375ZM10.992 6.375C10.6468 6.375 10.367 6.65482 10.367 7C10.367 7.34518 10.6468 7.625 10.992 7.625V6.375ZM11.001 7.625C11.3462 7.625 11.626 7.34518 11.626 7C11.626 6.65482 11.3462 6.375 11.001 6.375V7.625ZM21.625 11C21.625 5.13197 16.868 0.375 11 0.375V1.625C16.1776 1.625 20.375 5.82233 20.375 11H21.625ZM11 0.375C5.13197 0.375 0.375 5.13197 0.375 11H1.625C1.625 5.82233 5.82233 1.625 11 1.625V0.375ZM0.375 11C0.375 16.868 5.13197 21.625 11 21.625V20.375C5.82233 20.375 1.625 16.1776 1.625 11H0.375ZM11 21.625C16.868 21.625 21.625 16.868 21.625 11H20.375C20.375 16.1776 16.1776 20.375 11 20.375V21.625ZM11.8672 16V11H10.6172V16H11.8672ZM11.8672 11C11.8672 10.782 11.8685 10.5556 11.8433 10.3681C11.8157 10.1625 11.7463 9.91315 11.5376 9.70446L10.6538 10.5883C10.5916 10.5261 10.5955 10.4679 10.6045 10.5347C10.6092 10.5701 10.6131 10.6226 10.6151 10.7041C10.6172 10.7853 10.6172 10.8798 10.6172 11H11.8672ZM11.5376 9.70446C11.3289 9.49575 11.0795 9.42648 10.8741 9.39887C10.6866 9.37367 10.4602 9.375 10.2422 9.375V10.625C10.3624 10.625 10.4569 10.625 10.5381 10.6271C10.6196 10.6291 10.6721 10.633 10.7076 10.6377C10.7745 10.6467 10.7161 10.6507 10.6538 10.5883L11.5376 9.70446ZM10.992 7.625H11.001V6.375H10.992V7.625Z" fill="black"/>
</svg>
