<svg width="22" height="22" viewBox="0 0 22 22" fill="none" xmlns="http://www.w3.org/2000/svg">
<g id="Vector">
<path id="Vector_2" d="M9 15L9.71151 14.7628C9.60943 14.4566 9.32282 14.25 9 14.25V15ZM1 15V14.25C0.758917 14.25 0.532532 14.3659 0.391568 14.5615C0.250605 14.757 0.212251 15.0085 0.288488 15.2372L1 15ZM3 21L2.28849 21.2372C2.39057 21.5434 2.67718 21.75 3 21.75V21ZM15 21.75C15.4142 21.75 15.75 21.4142 15.75 21C15.75 20.5858 15.4142 20.25 15 20.25V21.75ZM10.25 12C10.25 12.4142 10.5858 12.75 11 12.75C11.4142 12.75 11.75 12.4142 11.75 12H10.25ZM10.4142 8.08579L9.88387 8.61612L9.88388 8.61613L10.4142 8.08579ZM3.58579 8.08579L4.11612 8.61612L4.11612 8.61612L3.58579 8.08579ZM2.25 12C2.25 12.4142 2.58579 12.75 3 12.75C3.41421 12.75 3.75 12.4142 3.75 12H2.25ZM13 15.75C12.5858 15.75 12.25 16.0858 12.25 16.5C12.25 16.9142 12.5858 17.25 13 17.25V15.75ZM18 20.25C17.5858 20.25 17.25 20.5858 17.25 21C17.25 21.4142 17.5858 21.75 18 21.75V20.25ZM11.7115 20.7628L9.71151 14.7628L8.28849 15.2372L10.2885 21.2372L11.7115 20.7628ZM9 14.25H1V15.75H9V14.25ZM0.288488 15.2372L2.28849 21.2372L3.71151 20.7628L1.71151 14.7628L0.288488 15.2372ZM3 21.75H11V20.25H3V21.75ZM11 21.75H15V20.25H11V21.75ZM11.75 12V11.5H10.25V12H11.75ZM11.75 11.5C11.75 10.5784 11.7516 9.81175 11.6701 9.20552C11.5857 8.57773 11.4 8.01092 10.9445 7.55545L9.88388 8.61613C10.0142 8.74644 10.1214 8.94394 10.1835 9.4054C10.2484 9.88844 10.25 10.536 10.25 11.5H11.75ZM10.9445 7.55546C10.4891 7.09999 9.92226 6.91432 9.29447 6.82991C8.68826 6.74841 7.92161 6.75 7 6.75V8.25C7.96401 8.25 8.61156 8.25159 9.0946 8.31654C9.55605 8.37858 9.75355 8.4858 9.88387 8.61612L10.9445 7.55546ZM7 6.75C6.07839 6.75 5.31174 6.74841 4.70552 6.82991C4.07772 6.91432 3.51092 7.09999 3.05546 7.55546L4.11612 8.61612C4.24644 8.4858 4.44393 8.37858 4.90539 8.31654C5.38843 8.25159 6.03599 8.25 7 8.25V6.75ZM3.05546 7.55546C2.59999 8.01092 2.41432 8.57773 2.32991 9.20553C2.24841 9.81175 2.25 10.5784 2.25 11.5H3.75C3.75 10.536 3.75159 9.88844 3.81654 9.4054C3.87858 8.94393 3.9858 8.74644 4.11612 8.61612L3.05546 7.55546ZM2.25 11.5V12H3.75V11.5H2.25ZM17.25 12C17.25 12.6904 16.6904 13.25 16 13.25V14.75C17.5188 14.75 18.75 13.5188 18.75 12H17.25ZM16 13.25C15.3096 13.25 14.75 12.6904 14.75 12H13.25C13.25 13.5188 14.4812 14.75 16 14.75V13.25ZM14.75 12C14.75 11.3096 15.3096 10.75 16 10.75V9.25C14.4812 9.25 13.25 10.4812 13.25 12H14.75ZM16 10.75C16.6904 10.75 17.25 11.3096 17.25 12H18.75C18.75 10.4812 17.5188 9.25 16 9.25V10.75ZM8.25 3C8.25 3.69036 7.69036 4.25 7 4.25V5.75C8.51878 5.75 9.75 4.51878 9.75 3H8.25ZM7 4.25C6.30964 4.25 5.75 3.69036 5.75 3H4.25C4.25 4.51878 5.48122 5.75 7 5.75V4.25ZM5.75 3C5.75 2.30964 6.30964 1.75 7 1.75V0.25C5.48122 0.25 4.25 1.48122 4.25 3H5.75ZM7 1.75C7.69036 1.75 8.25 2.30964 8.25 3H9.75C9.75 1.48122 8.51878 0.25 7 0.25V1.75ZM13 17.25H19V15.75H13V17.25ZM19 17.25C19.6904 17.25 20.25 17.8096 20.25 18.5H21.75C21.75 16.9812 20.5188 15.75 19 15.75V17.25ZM20.25 18.5V19H21.75V18.5H20.25ZM20.25 19C20.25 19.6904 19.6904 20.25 19 20.25V21.75C20.5188 21.75 21.75 20.5188 21.75 19H20.25ZM19 20.25H18V21.75H19V20.25Z" fill="black"/>
</g>
</svg>
