<svg width="20" height="18" viewBox="0 0 20 18" fill="none" xmlns="http://www.w3.org/2000/svg">
<path d="M18.1204 6.24152H13.0092L14.1279 3.59052C14.2879 3.21283 14.3274 2.79892 14.2414 2.40017C14.1555 2.00141 13.9479 1.63536 13.6445 1.34743C13.4738 1.18581 13.2681 1.06134 13.0416 0.982661C12.8151 0.903985 12.5732 0.872991 12.3328 0.891831C12.0924 0.910671 11.8592 0.978894 11.6494 1.09176C11.4396 1.20463 11.2582 1.35944 11.1179 1.54543L8.12911 5.51002C7.68302 6.10062 7.18696 6.65582 6.64583 7.1701L5.68857 8.0776C5.64499 8.11886 5.61042 8.16788 5.58686 8.22183C5.5633 8.27579 5.5512 8.33362 5.55127 8.39202V15.2129C5.5512 15.3311 5.60058 15.4445 5.68857 15.5283L6.7609 16.5494C7.03406 16.8097 7.35896 17.0161 7.71679 17.1566C8.07462 17.2971 8.45829 17.369 8.8456 17.368H14.6723C15.1324 17.3677 15.5825 17.241 15.9682 17.0033C16.3539 16.7657 16.6588 16.4272 16.846 16.0288L19.7042 9.93202C19.8871 9.5432 19.981 9.12207 19.9798 8.69635V8.00518C19.9793 7.53774 19.7833 7.08956 19.4347 6.75894C19.0861 6.42832 18.6135 6.24224 18.1204 6.24152Z" fill="black"/>
<path d="M2.33034 7.48096C1.88233 7.48096 1.45267 7.64968 1.13588 7.95C0.819085 8.25032 0.641113 8.65765 0.641113 9.08237V15.1039C0.641113 15.5287 0.819085 15.936 1.13588 16.2363C1.45267 16.5366 1.88233 16.7054 2.33034 16.7054C2.77835 16.7054 3.20801 16.5366 3.5248 16.2363C3.84159 15.936 4.01957 15.5287 4.01957 15.1039V9.08237C4.01957 8.65765 3.84159 8.25032 3.5248 7.95C3.20801 7.64968 2.77835 7.48096 2.33034 7.48096Z" fill="black"/>
</svg>
