<svg width="21" height="18" viewBox="0 0 21 18" fill="none" xmlns="http://www.w3.org/2000/svg">
<path d="M18.4134 6.11701H13.3022L14.4209 3.46601C14.5809 3.08832 14.6203 2.67441 14.5344 2.27566C14.4484 1.8769 14.2409 1.51084 13.9374 1.22292C13.7668 1.0613 13.5611 0.936825 13.3346 0.858149C13.1081 0.779473 12.8662 0.748479 12.6258 0.767319C12.3854 0.786159 12.1522 0.854382 11.9424 0.967249C11.7326 1.08012 11.5512 1.23492 11.4109 1.42092L8.42207 5.38551C7.97599 5.97611 7.47993 6.53131 6.9388 7.04559L5.98154 7.95309C5.93796 7.99435 5.90339 8.04337 5.87983 8.09732C5.85627 8.15128 5.84417 8.20911 5.84424 8.26751V15.0884C5.84417 15.2066 5.89354 15.32 5.98154 15.4038L7.05387 16.4249C7.32703 16.6852 7.65192 16.8916 8.00976 17.0321C8.36759 17.1726 8.75126 17.2445 9.13857 17.2435H14.9653C15.4253 17.2432 15.8754 17.1165 16.2612 16.8788C16.6469 16.6412 16.9518 16.3027 17.1389 15.9043L19.9972 9.80751C20.1801 9.41869 20.274 8.99756 20.2728 8.57184V7.88067C20.2723 7.41323 20.0762 6.96505 19.7277 6.63443C19.3791 6.30381 18.9064 6.11773 18.4134 6.11701V6.11701Z" stroke="black"/>
<path d="M2.62331 7.35645C2.1753 7.35645 1.74564 7.52517 1.42885 7.82549C1.11205 8.12581 0.934082 8.53314 0.934082 8.95786V14.9794C0.934082 15.4042 1.11205 15.8115 1.42885 16.1118C1.74564 16.4121 2.1753 16.5808 2.62331 16.5808C3.07132 16.5808 3.50098 16.4121 3.81777 16.1118C4.13456 15.8115 4.31254 15.4042 4.31254 14.9794V8.95786C4.31254 8.53314 4.13456 8.12581 3.81777 7.82549C3.50098 7.52517 3.07132 7.35645 2.62331 7.35645Z" fill="black"/>
</svg>
