<svg width="22" height="22" viewBox="0 0 22 22" fill="none" xmlns="http://www.w3.org/2000/svg">
<path d="M8.521 13.4356L13.434 8.52259M11.569 14.1084C12.3087 15.2488 12.1113 16.4178 11.2568 17.2723L8.26158 20.2675C7.28318 21.2459 5.69687 21.2459 4.71847 20.2675L1.73234 17.2814C0.753933 16.303 0.753933 14.7167 1.73234 13.7383L4.72755 10.743C5.42949 10.0411 6.76361 9.63571 7.91007 10.4659M14.1088 11.5685C15.2492 12.3082 16.4182 12.1109 17.2727 11.2564L20.2679 8.26114C21.2463 7.28273 21.2463 5.69641 20.2679 4.718L17.2818 1.73185C16.3034 0.753444 14.7171 0.753444 13.7387 1.73185L10.7434 4.72709C10.0415 5.42903 9.6362 6.76315 10.4664 7.90962" stroke="black" stroke-width="1.5" stroke-linecap="round" stroke-linejoin="round"/>
</svg>
