<svg width="18" height="22" viewBox="0 0 18 22" fill="none" xmlns="http://www.w3.org/2000/svg">
<g id="Vector">
<path id="Vector_2" d="M15 20.99V21M13 14.9976C13 13.8944 13.8954 13 15 13C16.1046 13 17 13.8944 17 14.9976C17 15.5747 16.755 16.0946 16.3632 16.4593C15.7572 17.0234 15 17.666 15 18.4935M7.0469 2.44865L12.4101 4.54728C15.5034 5.75771 17.05 6.36293 16.9988 7.32296C16.9475 8.28299 15.3334 8.7232 12.1051 9.6036C11.1439 9.8658 10.6633 9.9969 10.3301 10.3301C9.9969 10.6633 9.8658 11.1439 9.6036 12.1051C8.7232 15.3334 8.283 16.9475 7.323 16.9988C6.36293 17.05 5.75771 15.5034 4.54728 12.4101L2.44865 7.0469C1.18138 3.80831 0.54774 2.18901 1.36837 1.36837C2.18901 0.54774 3.80831 1.18138 7.0469 2.44865Z" stroke="black" stroke-width="1.5" stroke-linecap="round" stroke-linejoin="round"/>
</g>
</svg>
