<svg width="18" height="22" viewBox="0 0 18 22" fill="none" xmlns="http://www.w3.org/2000/svg">
<g id="Vector">
<path id="Vector_2" d="M1.26781 17.8447L2.25887 17.7113L2.25887 17.7113L1.26781 17.8447ZM4.55966 20.9009L4.51373 21.8998L4.51375 21.8998L4.55966 20.9009ZM13.4403 20.9009L13.4862 21.8998L13.4862 21.8998L13.4403 20.9009ZM16.7322 17.8447L15.7411 17.7112L15.7411 17.7113L16.7322 17.8447ZM16.7322 11.1553L15.7411 11.2887L15.7411 11.2888L16.7322 11.1553ZM13.4403 8.09909L13.4862 7.10014L13.4862 7.10014L13.4403 8.09909ZM4.55966 8.09909L4.51374 7.10014L4.51373 7.10014L4.55966 8.09909ZM1.26781 11.1553L2.25887 11.2887L2.25887 11.2887L1.26781 11.1553ZM3.5 8C3.5 8.55228 3.94772 9 4.5 9C5.05228 9 5.5 8.55228 5.5 8H3.5ZM12.5 8C12.5 8.55228 12.9477 9 13.5 9C14.0523 9 14.5 8.55228 14.5 8H12.5ZM14 14.49C14 13.9377 13.5523 13.49 13 13.49C12.4477 13.49 12 13.9377 12 14.49H14ZM12 14.5C12 15.0523 12.4477 15.5 13 15.5C13.5523 15.5 14 15.0523 14 14.5H12ZM10 14.49C10 13.9377 9.55228 13.49 9 13.49C8.44772 13.49 8 13.9377 8 14.49H10ZM8 14.5C8 15.0523 8.44772 15.5 9 15.5C9.55228 15.5 10 15.0523 10 14.5H8ZM6 14.49C6 13.9377 5.55228 13.49 5 13.49C4.44772 13.49 4 13.9377 4 14.49H6ZM4 14.5C4 15.0523 4.44772 15.5 5 15.5C5.55228 15.5 6 15.0523 6 14.5H4ZM0.276752 17.9781C0.563884 20.1108 2.33084 21.7995 4.51373 21.8998L4.60559 19.902C3.42142 19.8475 2.4215 18.9192 2.25887 17.7113L0.276752 17.9781ZM4.51375 21.8998C5.94609 21.9657 7.40043 22 9 22V20C7.43017 20 6.00645 19.9663 4.60557 19.902L4.51375 21.8998ZM9 22C10.5996 22 12.0539 21.9657 13.4862 21.8998L13.3944 19.902C11.9935 19.9663 10.5698 20 9 20V22ZM13.4862 21.8998C15.6692 21.7995 17.4361 20.1108 17.7233 17.9781L15.7411 17.7113C15.5785 18.9192 14.5786 19.8475 13.3944 19.902L13.4862 21.8998ZM17.7233 17.9782C17.8719 16.8743 18 15.705 18 14.5H16C16 15.5702 15.8861 16.6351 15.7411 17.7112L17.7233 17.9782ZM18 14.5C18 13.295 17.8719 12.1257 17.7233 11.0218L15.7411 11.2888C15.8861 12.3649 16 13.4298 16 14.5H18ZM17.7233 11.0219C17.4361 8.8892 15.6692 7.2005 13.4862 7.10014L13.3944 9.09803C14.5786 9.15248 15.5785 10.0808 15.7411 11.2887L17.7233 11.0219ZM13.4862 7.10014C12.0539 7.0343 10.5996 7 9 7V9C10.5698 9 11.9935 9.03364 13.3944 9.09803L13.4862 7.10014ZM9 7C7.40044 7 5.9461 7.0343 4.51374 7.10014L4.60558 9.09803C6.00644 9.03364 7.43016 9 9 9V7ZM4.51373 7.10014C2.33083 7.2005 0.563883 8.8892 0.276752 11.0219L2.25887 11.2887C2.4215 10.0808 3.42143 9.15248 4.60559 9.09803L4.51373 7.10014ZM0.276753 11.0219C0.128139 12.1256 0 13.295 0 14.5H2C2 13.4298 2.11396 12.365 2.25887 11.2887L0.276753 11.0219ZM0 14.5C0 15.705 0.128139 16.8744 0.276753 17.9781L2.25887 17.7113C2.11396 16.635 2 15.5702 2 14.5H0ZM5.5 8V5.5H3.5V8H5.5ZM5.5 5.5C5.5 3.567 7.067 2 9 2V0C5.96244 0 3.5 2.46244 3.5 5.5H5.5ZM9 2C10.933 2 12.5 3.567 12.5 5.5H14.5C14.5 2.46244 12.0376 0 9 0V2ZM12.5 5.5V8H14.5V5.5H12.5ZM12 14.49V14.5H14V14.49H12ZM8 14.49V14.5H10V14.49H8ZM4 14.49V14.5H6V14.49H4Z" fill="black"/>
</g>
</svg>
