<svg width="20" height="22" viewBox="0 0 20 22" fill="none" xmlns="http://www.w3.org/2000/svg">
<g id="Vector">
<path id="Vector_2" d="M15.75 15.6667C15.75 15.2525 15.4142 14.9167 15 14.9167C14.5858 14.9167 14.25 15.2525 14.25 15.6667H15.75ZM14.25 18.3333C14.25 18.7475 14.5858 19.0833 15 19.0833C15.4142 19.0833 15.75 18.7475 15.75 18.3333H14.25ZM16.3333 17.75C16.7475 17.75 17.0833 17.4142 17.0833 17C17.0833 16.5858 16.7475 16.25 16.3333 16.25V17.75ZM13.6667 16.25C13.2525 16.25 12.9167 16.5858 12.9167 17C12.9167 17.4142 13.2525 17.75 13.6667 17.75V16.25ZM9.50318 21.7489C9.91739 21.7471 10.2517 21.4099 10.25 20.9957C10.2482 20.5815 9.91103 20.2472 9.49682 20.2489L9.50318 21.7489ZM4.55966 20.9009L4.52522 21.6501H4.52523L4.55966 20.9009ZM1.26781 17.8447L2.0111 17.7446L2.0111 17.7446L1.26781 17.8447ZM1.26781 11.1553L2.0111 11.2554L2.0111 11.2554L1.26781 11.1553ZM4.55966 8.09909L4.52522 7.34988L4.52522 7.34988L4.55966 8.09909ZM13.4403 8.09909L13.4747 7.34988L13.4747 7.34988L13.4403 8.09909ZM15.789 10.7386C15.9208 11.1313 16.3459 11.3428 16.7386 11.211C17.1313 11.0792 17.3428 10.6541 17.211 10.2614L15.789 10.7386ZM3.75 8C3.75 8.41421 4.08579 8.75 4.5 8.75C4.91421 8.75 5.25 8.41421 5.25 8H3.75ZM12.75 8C12.75 8.41421 13.0858 8.75 13.5 8.75C13.9142 8.75 14.25 8.41421 14.25 8H12.75ZM14.25 15.6667V17H15.75V15.6667H14.25ZM14.25 17V18.3333H15.75V17H14.25ZM15 17.75H16.3333V16.25H15V17.75ZM15 16.25H13.6667V17.75H15V16.25ZM18.25 17C18.25 18.7949 16.7949 20.25 15 20.25V21.75C17.6233 21.75 19.75 19.6233 19.75 17H18.25ZM15 20.25C13.2051 20.25 11.75 18.7949 11.75 17H10.25C10.25 19.6233 12.3767 21.75 15 21.75V20.25ZM11.75 17C11.75 15.2051 13.2051 13.75 15 13.75V12.25C12.3767 12.25 10.25 14.3767 10.25 17H11.75ZM15 13.75C16.7949 13.75 18.25 15.2051 18.25 17H19.75C19.75 14.3767 17.6233 12.25 15 12.25V13.75ZM9.49682 20.2489C9.33264 20.2496 9.16711 20.25 9 20.25V21.75C9.16949 21.75 9.33716 21.7496 9.50318 21.7489L9.49682 20.2489ZM9 20.25C7.42645 20.25 5.99891 20.2162 4.59409 20.1517L4.52523 21.6501C5.95363 21.7158 7.40415 21.75 9 21.75V20.25ZM4.5941 20.1517C3.2851 20.0915 2.18929 19.0681 2.0111 17.7446L0.524516 17.9448C0.796085 19.9619 2.46716 21.5555 4.52522 21.6501L4.5941 20.1517ZM2.0111 17.7446C1.86573 16.6649 1.75 15.5871 1.75 14.5H0.25C0.25 15.6881 0.376367 16.8445 0.524517 17.9448L2.0111 17.7446ZM1.75 14.5C1.75 13.4129 1.86573 12.3351 2.0111 11.2554L0.524517 11.0552C0.376367 12.1555 0.25 13.3119 0.25 14.5H1.75ZM2.0111 11.2554C2.1893 9.93185 3.2851 8.90848 4.5941 8.8483L4.52522 7.34988C2.46716 7.4445 0.796085 9.03815 0.524516 11.0552L2.0111 11.2554ZM4.5941 8.8483C5.9989 8.78372 7.42644 8.75 9 8.75V7.25C7.40416 7.25 5.95364 7.28422 4.52522 7.34988L4.5941 8.8483ZM9 8.75C10.5736 8.75 12.0011 8.78372 13.4059 8.8483L13.4747 7.34988C12.0463 7.28422 10.5958 7.25 9 7.25V8.75ZM13.4059 8.8483C14.5158 8.89933 15.4234 9.64945 15.789 10.7386L17.211 10.2614C16.673 8.65815 15.2768 7.43273 13.4747 7.34988L13.4059 8.8483ZM5.25 8V5.5H3.75V8H5.25ZM5.25 5.5C5.25 3.42893 6.92893 1.75 9 1.75V0.25C6.10051 0.25 3.75 2.60051 3.75 5.5H5.25ZM9 1.75C11.0711 1.75 12.75 3.42893 12.75 5.5H14.25C14.25 2.60051 11.8995 0.25 9 0.25V1.75ZM12.75 5.5V8H14.25V5.5H12.75Z" fill="black"/>
</g>
</svg>
