<svg width="20" height="23" viewBox="0 0 20 23" fill="none" xmlns="http://www.w3.org/2000/svg">
<g id="Vector">
<path id="Vector_2" d="M5 9.03809V6.03809C5 4.712 5.52678 3.44023 6.46447 2.50255C7.40215 1.56487 8.67392 1.03809 10 1.03809C11.3261 1.03809 12.5979 1.56487 13.5355 2.50255C14.4732 3.44023 15 4.712 15 6.03809V9.03809M11 15.0381C11 15.5904 10.5523 16.0381 10 16.0381C9.44772 16.0381 9 15.5904 9 15.0381C9 14.4858 9.44772 14.0381 10 14.0381C10.5523 14.0381 11 14.4858 11 15.0381ZM3 9.03809H17C18.1046 9.03809 19 9.93352 19 11.0381V19.0381C19 20.1427 18.1046 21.0381 17 21.0381H3C1.89543 21.0381 1 20.1427 1 19.0381V11.0381C1 9.93352 1.89543 9.03809 3 9.03809Z" stroke="#101317" stroke-width="2" stroke-linecap="round" stroke-linejoin="round"/>
</g>
</svg>
