<svg width="22" height="22" viewBox="0 0 22 22" fill="none" xmlns="http://www.w3.org/2000/svg">
<g id="Vector">
<path id="Vector_2" d="M21.25 11C21.25 10.5858 20.9142 10.25 20.5 10.25C20.0858 10.25 19.75 10.5858 19.75 11H21.25ZM19.0222 7.50027C19.1881 7.87984 19.6302 8.0531 20.0098 7.88727C20.3893 7.72143 20.5626 7.2793 20.3968 6.89973L19.0222 7.50027ZM21.2417 4.61097C21.303 4.20132 21.0206 3.81954 20.611 3.75825C20.2013 3.69697 19.8195 3.97938 19.7583 4.38903L21.2417 4.61097ZM20.025 7.675L19.8617 8.407C20.0648 8.45233 20.2777 8.41119 20.4493 8.29342C20.621 8.17565 20.7359 7.99184 20.7667 7.78597L20.025 7.675ZM17.1633 6.268C16.7591 6.17779 16.3582 6.43239 16.268 6.83666C16.1778 7.24093 16.4324 7.64179 16.8367 7.732L17.1633 6.268ZM13.9131 15.19L13.4565 14.595L13.4565 14.595L13.9131 15.19ZM14.19 14.9131L13.595 14.4565L13.595 14.4565L14.19 14.9131ZM14.19 10.5869L13.595 11.0435L13.595 11.0435L14.19 10.5869ZM13.9131 10.31L13.4565 10.905L13.4565 10.905L13.9131 10.31ZM8.08686 10.31L8.54342 10.905L8.54346 10.905L8.08686 10.31ZM7.80997 10.5869L8.40495 11.0435L8.40499 11.0435L7.80997 10.5869ZM7.80997 14.9131L8.40499 14.4565L8.40495 14.4565L7.80997 14.9131ZM8.08686 15.19L8.54346 14.595L8.54342 14.595L8.08686 15.19ZM19.75 11C19.75 15.8325 15.8325 19.75 11 19.75V21.25C16.6609 21.25 21.25 16.6609 21.25 11H19.75ZM11 19.75C6.16755 19.75 2.25 15.8325 2.25 11H0.75C0.75 16.6609 5.33913 21.25 11 21.25V19.75ZM2.25 11C2.25 6.16751 6.16755 2.25 11 2.25V0.75C5.33913 0.75 0.75 5.33907 0.75 11H2.25ZM11 2.25C14.5869 2.25 17.6714 4.40838 19.0222 7.50027L20.3968 6.89973C18.8158 3.28118 15.2043 0.75 11 0.75V2.25ZM19.7583 4.38903L19.2833 7.56403L20.7667 7.78597L21.2417 4.61097L19.7583 4.38903ZM20.1883 6.943L17.1633 6.268L16.8367 7.732L19.8617 8.407L20.1883 6.943ZM9.75 10V8.5H8.25V10H9.75ZM9.75 8.5C9.75 7.80964 10.3096 7.25 11 7.25V5.75C9.48118 5.75 8.25 6.98122 8.25 8.5H9.75ZM11 7.25C11.6904 7.25 12.25 7.80964 12.25 8.5H13.75C13.75 6.98122 12.5188 5.75 11 5.75V7.25ZM12.25 8.5V10H13.75V8.5H12.25ZM10.25 16.25H11.75V14.75H10.25V16.25ZM11.75 16.25C12.319 16.25 12.8085 16.2511 13.2039 16.2065C13.6145 16.1602 14.0154 16.0569 14.3697 15.785L13.4565 14.595C13.4069 14.6331 13.3127 14.6848 13.0359 14.716C12.7439 14.7489 12.3538 14.75 11.75 14.75V16.25ZM14.3697 15.785C14.5257 15.6653 14.6653 15.5257 14.785 15.3697L13.595 14.4565C13.5551 14.5085 13.5085 14.5551 13.4565 14.595L14.3697 15.785ZM14.785 15.3697C15.0569 15.0154 15.1602 14.6145 15.2065 14.2039C15.2511 13.8085 15.25 13.319 15.25 12.75H13.75C13.75 13.3538 13.7489 13.7439 13.716 14.0359C13.6848 14.3127 13.6331 14.4069 13.595 14.4565L14.785 15.3697ZM15.25 12.75C15.25 12.181 15.2511 11.6915 15.2065 11.2961C15.1602 10.8855 15.0569 10.4846 14.785 10.1303L13.595 11.0435C13.6331 11.0931 13.6848 11.1873 13.716 11.4641C13.7489 11.7561 13.75 12.1462 13.75 12.75H15.25ZM14.785 10.1303C14.6653 9.97433 14.5257 9.83468 14.3697 9.71498L13.4565 10.905C13.5085 10.9449 13.5551 10.9915 13.595 11.0435L14.785 10.1303ZM14.3697 9.71504C14.0154 9.44311 13.6145 9.33976 13.2039 9.29347C12.8085 9.24888 12.319 9.25 11.75 9.25V10.75C12.3538 10.75 12.7439 10.7511 13.0359 10.784C13.3127 10.8152 13.4069 10.8669 13.4565 10.905L14.3697 9.71504ZM11.75 9.25H10.25V10.75H11.75V9.25ZM10.25 9.25C9.68105 9.25 9.19155 9.24888 8.79609 9.29347C8.3855 9.33976 7.98456 9.44311 7.63026 9.71501L8.54346 10.905C8.59312 10.8669 8.68735 10.8152 8.96414 10.784C9.25606 10.7511 9.64615 10.75 10.25 10.75V9.25ZM7.6303 9.71498C7.47427 9.8347 7.33464 9.97435 7.21495 10.1303L8.40499 11.0435C8.4449 10.9914 8.49145 10.9449 8.54342 10.905L7.6303 9.71498ZM7.21499 10.1303C6.94309 10.4846 6.83975 10.8855 6.79347 11.2961C6.74888 11.6916 6.75 12.181 6.75 12.75H8.25C8.25 12.1462 8.25112 11.756 8.28403 11.4641C8.31523 11.1873 8.36688 11.0931 8.40495 11.0435L7.21499 10.1303ZM6.75 12.75C6.75 13.319 6.74888 13.8084 6.79347 14.2039C6.83975 14.6145 6.94309 15.0154 7.21499 15.3697L8.40495 14.4565C8.36688 14.4069 8.31523 14.3127 8.28403 14.0359C8.25112 13.744 8.25 13.3538 8.25 12.75H6.75ZM7.21495 15.3697C7.33464 15.5256 7.47427 15.6653 7.6303 15.785L8.54342 14.595C8.49145 14.5551 8.4449 14.5086 8.40499 14.4565L7.21495 15.3697ZM7.63026 15.785C7.98456 16.0569 8.3855 16.1602 8.79609 16.2065C9.19155 16.2511 9.68105 16.25 10.25 16.25V14.75C9.64615 14.75 9.25606 14.7489 8.96414 14.716C8.68735 14.6848 8.59312 14.6331 8.54346 14.595L7.63026 15.785Z" fill="black"/>
</g>
</svg>
