<svg width="22" height="22" viewBox="0 0 22 22" fill="none" xmlns="http://www.w3.org/2000/svg">
<g id="Vector">
<path id="Vector_2" d="M14.5303 0.46967C14.2374 0.176777 13.7626 0.176777 13.4697 0.46967C13.1768 0.762563 13.1768 1.23744 13.4697 1.53033L14.5303 0.46967ZM20.4697 8.53033C20.7626 8.82322 21.2374 8.82322 21.5303 8.53033C21.8232 8.23744 21.8232 7.76256 21.5303 7.46967L20.4697 8.53033ZM21.5303 1.53033C21.8232 1.23744 21.8232 0.762563 21.5303 0.46967C21.2374 0.176777 20.7626 0.176777 20.4697 0.46967L21.5303 1.53033ZM13.4697 7.46967C13.1768 7.76256 13.1768 8.23744 13.4697 8.53033C13.7626 8.82322 14.2374 8.82322 14.5303 8.53033L13.4697 7.46967ZM5.02538 19.2464C5.43761 19.2869 5.80465 18.9857 5.84521 18.5734C5.88576 18.1612 5.58446 17.7942 5.17224 17.7536L5.02538 19.2464ZM2.17157 17.3284L2.70191 16.7981L2.70188 16.7981L2.17157 17.3284ZM2.17157 3.17157L1.64124 2.64124L1.64124 2.64124L2.17157 3.17157ZM10.5 2.75C10.9142 2.75 11.25 2.41421 11.25 2C11.25 1.58579 10.9142 1.25 10.5 1.25V2.75ZM6.23471 17.1507C6.31792 16.7449 6.05644 16.3485 5.65067 16.2653C5.2449 16.1821 4.8485 16.4436 4.76529 16.8493L6.23471 17.1507ZM5.31569 20.8651L4.86768 21.4666L4.87447 21.4716L5.31569 20.8651ZM8.14987 20.0789L8.47857 20.753L8.47862 20.753L8.14987 20.0789ZM11.5546 18.655L11.388 17.9237L11.3863 17.9241L11.5546 18.655ZM13 18.5V17.75H12.9916L12.9833 17.7502L13 18.5ZM19.8284 17.3284L19.2981 16.7981L19.298 16.7981L19.8284 17.3284ZM21.7499 11.0005C21.7502 10.5863 21.4146 10.2503 21.0004 10.25C20.5862 10.2497 20.2502 10.5853 20.2499 10.9995L21.7499 11.0005ZM13.4697 1.53033L16.9697 5.03033L18.0303 3.96967L14.5303 0.46967L13.4697 1.53033ZM16.9697 5.03033L20.4697 8.53033L21.5303 7.46967L18.0303 3.96967L16.9697 5.03033ZM18.0303 5.03033L21.5303 1.53033L20.4697 0.46967L16.9697 3.96967L18.0303 5.03033ZM16.9697 3.96967L13.4697 7.46967L14.5303 8.53033L18.0303 5.03033L16.9697 3.96967ZM5.17224 17.7536C3.97507 17.6358 3.19057 17.2868 2.70191 16.7981L1.64123 17.8587C2.45893 18.6764 3.62233 19.1084 5.02538 19.2464L5.17224 17.7536ZM2.70188 16.7981C2.27869 16.3749 2.02502 15.7953 1.88976 14.7892C1.75159 13.7615 1.75 12.4068 1.75 10.5H0.25C0.25 12.3644 0.248407 13.8382 0.403134 14.989C0.560761 16.1614 0.892876 17.1104 1.64126 17.8587L2.70188 16.7981ZM1.75 10.5V10H0.25V10.5H1.75ZM1.75 10C1.75 8.09318 1.75159 6.73851 1.88976 5.71085C2.02502 4.70476 2.27869 4.12511 2.7019 3.7019L1.64124 2.64124C0.892878 3.38961 0.560762 4.33856 0.403134 5.51098C0.248407 6.66182 0.25 8.13558 0.25 10H1.75ZM2.7019 3.7019C3.12511 3.27869 3.70476 3.02502 4.71085 2.88976C5.73851 2.75159 7.09318 2.75 9 2.75V1.25C7.13558 1.25 5.66182 1.24841 4.51098 1.40313C3.33856 1.56076 2.38961 1.89288 1.64124 2.64124L2.7019 3.7019ZM9 2.75H10.5V1.25H9V2.75ZM4.76529 16.8493C4.7211 17.0648 4.63705 17.3485 4.53085 17.7245C4.43018 18.081 4.31698 18.4969 4.24125 18.9115C4.16673 19.3196 4.11847 19.7767 4.17661 20.2076C4.23587 20.6469 4.41783 21.1315 4.8677 21.4666L5.76368 20.2636C5.74455 20.2494 5.68937 20.2015 5.66314 20.0071C5.6358 19.8044 5.65372 19.5267 5.71685 19.181C5.77876 18.842 5.87467 18.4852 5.97438 18.1322C6.06857 17.7987 6.17617 17.4361 6.23471 17.1507L4.76529 16.8493ZM4.87447 21.4716C5.42466 21.8719 6.05474 21.7687 6.5611 21.6052C7.0761 21.4389 7.71949 21.1232 8.47857 20.753L7.82117 19.4048C7.01767 19.7965 6.48913 20.0522 6.10026 20.1777C5.70275 20.3061 5.69703 20.2151 5.75691 20.2586L4.87447 21.4716ZM8.47862 20.753C9.62771 20.1926 10.6319 19.637 11.7229 19.3859L11.3863 17.9241C10.0805 18.2248 8.86529 18.8956 7.82112 19.4048L8.47862 20.753ZM11.7212 19.3863C12.0936 19.3014 12.4857 19.2617 13.0167 19.2498L12.9833 17.7502C12.3933 17.7633 11.8926 17.8088 11.388 17.9237L11.7212 19.3863ZM13 19.25C14.8644 19.25 16.3382 19.2516 17.489 19.0969C18.6614 18.9392 19.6104 18.6071 20.3588 17.8587L19.298 16.7981C18.8749 17.2213 18.2952 17.475 17.2892 17.6102C16.2615 17.7484 14.9068 17.75 13 17.75V19.25ZM20.3587 17.8587C21.0728 17.1446 21.4082 16.2475 21.5744 15.1468C21.7372 14.068 21.7488 12.7049 21.7499 11.0005L20.2499 10.9995C20.2487 12.7354 20.2339 13.9772 20.0912 14.9229C19.9518 15.8467 19.7026 16.3936 19.2981 16.7981L20.3587 17.8587Z" fill="black"/>
</g>
</svg>
