<svg width="22" height="22" viewBox="0 0 22 22" fill="none" xmlns="http://www.w3.org/2000/svg">
<g id="Vector">
<path id="Vector_2" d="M21.7082 9.92238C21.6816 9.50903 21.3248 9.19557 20.9115 9.22226C20.4981 9.24895 20.1847 9.60567 20.2114 10.019L21.7082 9.92238ZM20.9598 12.4909L21.7082 12.5393L21.7082 12.5392L20.9598 12.4909ZM13.1706 20.3905L13.1209 19.6422L13.1208 19.6422L13.1706 20.3905ZM8.8294 20.3905L8.87916 19.6422H8.87914L8.8294 20.3905ZM7.34401 20.0513L7.05836 20.7448L7.05841 20.7448L7.34401 20.0513ZM6.44544 19.7508L6.53694 20.4952L6.53694 20.4952L6.44544 19.7508ZM5.74868 20.1846L5.30359 19.5809L5.30357 19.581L5.74868 20.1846ZM2.99943 20.9982L3.01769 20.2484L3.01766 20.2484L2.99943 20.9982ZM1.91484 20.7351L1.26791 21.1146L1.26792 21.1146L1.91484 20.7351ZM2.30021 19.4978L1.63689 19.1478L1.63689 19.1478L2.30021 19.4978ZM2.62791 16.6746L3.28442 16.312C3.2744 16.2939 3.26364 16.2761 3.25215 16.2589L2.62791 16.6746ZM1.04024 12.4909L0.291799 12.5393L0.291799 12.5393L1.04024 12.4909ZM1.04024 9.9707L0.291799 9.92233L0.291799 9.92234L1.04024 9.9707ZM8.8294 2.07107L8.87914 2.81942L8.87914 2.81942L8.8294 2.07107ZM11.4661 2.78292C11.8799 2.80163 12.2305 2.48136 12.2492 2.06757C12.2679 1.65378 11.9477 1.30316 11.5339 1.28445L11.4661 2.78292ZM7.5 13.25C7.08579 13.25 6.75 13.5858 6.75 14C6.75 14.4142 7.08579 14.75 7.5 14.75V13.25ZM14.5 14.75C14.9142 14.75 15.25 14.4142 15.25 14C15.25 13.5858 14.9142 13.25 14.5 13.25V14.75ZM7.5 8.25C7.08579 8.25 6.75 8.58579 6.75 9C6.75 9.41421 7.08579 9.75 7.5 9.75V8.25ZM11 9.75C11.4142 9.75 11.75 9.41421 11.75 9C11.75 8.58579 11.4142 8.25 11 8.25V9.75ZM20.2114 10.019C20.2629 10.817 20.2629 11.6446 20.2114 12.4426L21.7082 12.5392C21.7639 11.6768 21.7639 10.7848 21.7082 9.92238L20.2114 10.019ZM20.2114 12.4425C19.9609 16.3174 16.9202 19.3896 13.1209 19.6422L13.2203 21.1388C17.787 20.8354 21.4103 17.149 21.7082 12.5393L20.2114 12.4425ZM13.1208 19.6422C11.7269 19.7348 10.2703 19.7347 8.87916 19.6422L8.77964 21.1388C10.2369 21.2358 11.7601 21.236 13.2204 21.1388L13.1208 19.6422ZM8.87914 19.6422C8.46318 19.6145 8.00899 19.514 7.62961 19.3578L7.05841 20.7448C7.5998 20.9678 8.21474 21.1013 8.77965 21.1388L8.87914 19.6422ZM7.62966 19.3578C7.38185 19.2558 7.16776 19.1673 7.00021 19.1084C6.8727 19.0636 6.61727 18.974 6.35393 19.0064L6.53694 20.4952C6.45014 20.5059 6.39688 20.4915 6.40943 20.4942C6.41625 20.4957 6.44347 20.5027 6.50267 20.5235C6.62381 20.5661 6.79393 20.6359 7.05836 20.7448L7.62966 19.3578ZM6.35394 19.0064C6.10242 19.0373 5.89548 19.1664 5.78243 19.2396C5.64783 19.3267 5.48423 19.4478 5.30359 19.5809L6.19376 20.7883C6.39085 20.6429 6.51054 20.5551 6.59735 20.4989C6.63869 20.4722 6.65453 20.4646 6.65328 20.4652C6.65321 20.4652 6.61011 20.4862 6.53694 20.4952L6.35394 19.0064ZM5.30357 19.581C4.76397 19.9789 4.08638 20.2744 3.01769 20.2484L2.98117 21.748C4.40095 21.7826 5.40138 21.3725 6.19379 20.7882L5.30357 19.581ZM3.01766 20.2484C2.85694 20.2445 2.73189 20.2414 2.62562 20.2355C2.51834 20.2296 2.45478 20.222 2.41652 20.2146C2.37851 20.2073 2.39577 20.2056 2.43505 20.2286C2.48433 20.2576 2.53104 20.3033 2.56175 20.3556L1.26792 21.1146C1.48997 21.4931 1.84472 21.6318 2.1315 21.6873C2.3829 21.7359 2.69433 21.741 2.98119 21.748L3.01766 20.2484ZM2.56176 20.3556C2.66263 20.5276 2.583 20.658 2.62944 20.528C2.64994 20.4707 2.68539 20.3896 2.74432 20.2706C2.80271 20.1527 2.87446 20.0166 2.96352 19.8478L1.63689 19.1478C1.47287 19.4586 1.30939 19.7644 1.21688 20.0234C1.12313 20.2858 1.02622 20.7025 1.26791 21.1146L2.56176 20.3556ZM2.96352 19.8478C3.46269 18.9019 3.95276 17.522 3.28442 16.312L1.97139 17.0372C2.23726 17.5186 2.11079 18.2497 1.63689 19.1478L2.96352 19.8478ZM3.25215 16.2589C2.48344 15.1046 1.87659 13.8027 1.78868 12.4425L0.291799 12.5393C0.403609 14.2693 1.16342 15.8286 2.00367 17.0903L3.25215 16.2589ZM1.78868 12.4425C1.73711 11.6445 1.73711 10.8171 1.78868 10.0191L0.291799 9.92234C0.236067 10.7847 0.236067 11.6769 0.291799 12.5393L1.78868 12.4425ZM1.78868 10.0191C2.0391 6.14418 5.07977 3.07198 8.87914 2.81942L8.77965 1.32272C4.213 1.62629 0.589715 5.31258 0.291799 9.92233L1.78868 10.0191ZM8.87914 2.81942C10.0606 2.74088 10.2813 2.72933 11.4661 2.78292L11.5339 1.28445C10.2811 1.22779 10.003 1.2414 8.77965 1.32272L8.87914 2.81942ZM7.5 14.75H14.5V13.25H7.5V14.75ZM7.5 9.75H11V8.25H7.5V9.75ZM20.25 4.5C20.25 6.01879 19.0188 7.25 17.5 7.25V8.75C19.8472 8.75 21.75 6.84721 21.75 4.5H20.25ZM17.5 7.25C15.9812 7.25 14.75 6.01879 14.75 4.5H13.25C13.25 6.84721 15.1528 8.75 17.5 8.75V7.25ZM14.75 4.5C14.75 2.98121 15.9812 1.75 17.5 1.75V0.25C15.1528 0.25 13.25 2.15279 13.25 4.5H14.75ZM17.5 1.75C19.0188 1.75 20.25 2.98121 20.25 4.5H21.75C21.75 2.15279 19.8472 0.25 17.5 0.25V1.75Z" fill="black"/>
</g>
</svg>
