<svg width="22" height="22" viewBox="0 0 22 22" fill="none" xmlns="http://www.w3.org/2000/svg">
<g id="Vector">
<path id="Vector_2" d="M5.09881 18.5C3.7987 18.3721 2.82475 17.9816 2.17157 17.3284C1 16.1569 1 14.2712 1 10.5V10C1 6.22876 1 4.34315 2.17157 3.17157C3.34315 2 5.22876 2 9 2H10.5M5.5 17C5.29454 18.0019 4.37769 20.1665 5.31569 20.8651C5.806 21.2218 6.58729 20.8408 8.14987 20.0789C9.2465 19.5441 10.3562 18.9309 11.5546 18.655C11.9931 18.5551 12.4395 18.5125 13 18.5C16.7712 18.5 18.6569 18.5 19.8284 17.3284C20.947 16.2098 20.9976 14.4403 20.9999 11M7 13H13M7 8H10M14.2 2.2L19.8 7.8M21 5C21 2.79086 19.2091 1 17 1C14.7909 1 13 2.79086 13 5C13 7.20914 14.7909 9 17 9C19.2091 9 21 7.20914 21 5Z" stroke="black" stroke-width="1.5" stroke-linecap="round"/>
</g>
</svg>
