<svg width="22" height="22" viewBox="0 0 22 22" fill="none" xmlns="http://www.w3.org/2000/svg">
<path d="M4.90941 10.7445C5.32059 10.7945 5.69447 10.5018 5.74451 10.0906C5.79454 9.67941 5.50177 9.30553 5.09059 9.25549L4.90941 10.7445ZM1.71536 7.7747C1.59093 7.37962 1.16978 7.16021 0.774697 7.28464C0.379615 7.40907 0.16021 7.83022 0.284641 8.2253L1.71536 7.7747ZM4.90941 15.7445C5.32059 15.7945 5.69447 15.5018 5.74451 15.0906C5.79454 14.6794 5.50177 14.3055 5.09059 14.2555L4.90941 15.7445ZM1.71536 12.7747C1.59093 12.3796 1.16978 12.1602 0.774697 12.2846C0.379615 12.4091 0.16021 12.8302 0.284641 13.2253L1.71536 12.7747ZM4.90941 20.7445C5.32059 20.7945 5.69447 20.5018 5.74451 20.0906C5.79454 19.6794 5.50177 19.3055 5.09059 19.2555L4.90941 20.7445ZM1 18H0.25V18.1153L0.284641 18.2253L1 18ZM13.25 5C13.25 5.41421 13.5858 5.75 14 5.75C14.4142 5.75 14.75 5.41421 14.75 5H13.25ZM20.25 10C20.25 9.92121 20.2998 9.98878 20.048 10.172C19.8126 10.3433 19.4237 10.5288 18.8756 10.6974C17.7887 11.0318 16.2415 11.25 14.5 11.25V12.75C16.3483 12.75 18.0511 12.5205 19.3168 12.131C19.945 11.9377 20.508 11.6923 20.9304 11.385C21.3364 11.0896 21.75 10.6311 21.75 10H20.25ZM14.5 11.25C12.7585 11.25 11.2113 11.0318 10.1244 10.6974C9.57633 10.5288 9.18743 10.3433 8.95201 10.172C8.70016 9.98878 8.75 9.92121 8.75 10H7.25C7.25 10.6311 7.66361 11.0896 8.0696 11.385C8.49201 11.6923 9.05501 11.9377 9.68324 12.131C10.9489 12.5205 12.6517 12.75 14.5 12.75V11.25ZM8.75 10C8.75 10.0788 8.70016 10.0112 8.95201 9.82801C9.18743 9.65674 9.57633 9.47125 10.1244 9.30262C11.2113 8.96819 12.7585 8.75 14.5 8.75V7.25C12.6517 7.25 10.9489 7.47953 9.68324 7.86895C9.05501 8.06225 8.49201 8.30773 8.0696 8.61501C7.66361 8.91036 7.25 9.36892 7.25 10H8.75ZM14.5 8.75C16.2415 8.75 17.7887 8.96819 18.8756 9.30262C19.4237 9.47125 19.8126 9.65674 20.048 9.82801C20.2998 10.0112 20.25 10.0788 20.25 10H21.75C21.75 9.36892 21.3364 8.91036 20.9304 8.61501C20.508 8.30773 19.945 8.06225 19.3168 7.86895C18.0511 7.47953 16.3483 7.25 14.5 7.25V8.75ZM20.25 14.5C20.25 14.4212 20.2998 14.4888 20.048 14.672C19.8126 14.8433 19.4237 15.0288 18.8756 15.1974C17.7888 15.5318 16.2416 15.75 14.5 15.75V17.25C16.3483 17.25 18.0511 17.0205 19.3168 16.6311C19.945 16.4378 20.508 16.1923 20.9304 15.885C21.3364 15.5896 21.75 15.1311 21.75 14.5H20.25ZM14.5 15.75C12.7584 15.75 11.2112 15.5318 10.1244 15.1974C9.57631 15.0288 9.18743 14.8433 8.95201 14.672C8.70017 14.4888 8.75 14.4212 8.75 14.5H7.25C7.25 15.1311 7.66359 15.5896 8.06958 15.885C8.49199 16.1923 9.055 16.4378 9.68322 16.6311C10.9489 17.0205 12.6517 17.25 14.5 17.25V15.75ZM20.25 10V18.8H21.75V10H20.25ZM20.25 18.8C20.25 18.8 20.2501 18.8025 20.2481 18.8094C20.2459 18.8168 20.2402 18.8321 20.2261 18.8553C20.1967 18.9041 20.1359 18.9785 20.0206 19.0707C19.7856 19.2588 19.3995 19.4612 18.8558 19.6452C17.7758 20.0107 16.2358 20.25 14.5 20.25V21.75C16.3541 21.75 18.0641 21.4968 19.3367 21.066C19.9692 20.852 20.535 20.5803 20.9578 20.2419C21.3734 19.9093 21.75 19.4271 21.75 18.8H20.25ZM14.5 20.25C12.7642 20.25 11.2242 20.0107 10.1442 19.6452C9.60048 19.4612 9.21438 19.2588 8.97939 19.0707C8.86413 18.9785 8.80333 18.9041 8.77387 18.8553C8.75983 18.8321 8.75415 18.8168 8.75192 18.8094C8.74985 18.8025 8.75 18.8 8.75 18.8H7.25C7.25 19.4271 7.62657 19.9093 8.0422 20.2419C8.46504 20.5803 9.03083 20.852 9.66334 21.066C10.9359 21.4968 12.6459 21.75 14.5 21.75V20.25ZM8.75 18.8V10H7.25V18.8H8.75ZM13.25 3C13.25 2.92121 13.2998 2.98878 13.048 3.17199C12.8126 3.34326 12.4237 3.52875 11.8756 3.69738C10.7887 4.03181 9.24154 4.25 7.5 4.25V5.75C9.34831 5.75 11.0511 5.52047 12.3168 5.13105C12.945 4.93775 13.508 4.69227 13.9304 4.38499C14.3364 4.08964 14.75 3.63108 14.75 3H13.25ZM7.5 4.25C5.75846 4.25 4.21128 4.03181 3.12437 3.69738C2.57633 3.52875 2.18743 3.34326 1.95201 3.17199C1.70016 2.98878 1.75 2.92121 1.75 3H0.25C0.25 3.63108 0.663608 4.08964 1.0696 4.38499C1.49201 4.69227 2.05501 4.93775 2.68324 5.13105C3.94887 5.52047 5.65169 5.75 7.5 5.75V4.25ZM1.75 3C1.75 3.07879 1.70016 3.01122 1.95201 2.82801C2.18743 2.65674 2.57633 2.47125 3.12437 2.30262C4.21128 1.96819 5.75846 1.75 7.5 1.75V0.25C5.65169 0.25 3.94887 0.479527 2.68324 0.868952C2.05501 1.06225 1.49201 1.30773 1.0696 1.61501C0.663608 1.91036 0.25 2.36892 0.25 3H1.75ZM7.5 1.75C9.24154 1.75 10.7887 1.96819 11.8756 2.30262C12.4237 2.47125 12.8126 2.65674 13.048 2.82801C13.2998 3.01122 13.25 3.07879 13.25 3H14.75C14.75 2.36892 14.3364 1.91036 13.9304 1.61501C13.508 1.30773 12.945 1.06225 12.3168 0.868952C11.0511 0.479527 9.34831 0.25 7.5 0.25V1.75ZM5.09059 9.25549C4.18394 9.14517 3.35948 8.95168 2.73836 8.67076C2.10182 8.38287 1.80644 8.06388 1.71536 7.7747L0.284641 8.2253C0.563471 9.11062 1.32218 9.67653 2.12022 10.0375C2.93367 10.4054 3.92425 10.6246 4.90941 10.7445L5.09059 9.25549ZM5.09059 14.2555C4.18394 14.1452 3.35948 13.9517 2.73836 13.6708C2.10182 13.3829 1.80644 13.0639 1.71536 12.7747L0.284641 13.2253C0.563471 14.1106 1.32218 14.6765 2.12022 15.0375C2.93367 15.4054 3.92425 15.6246 4.90941 15.7445L5.09059 14.2555ZM5.09059 19.2555C4.18394 19.1452 3.35948 18.9517 2.73836 18.6708C2.10182 18.3829 1.80644 18.0639 1.71536 17.7747L0.284641 18.2253C0.563471 19.1106 1.32218 19.6765 2.12022 20.0375C2.93367 20.4054 3.92425 20.6246 4.90941 20.7445L5.09059 19.2555ZM1.75 18V3H0.25V18H1.75ZM14.75 5V3H13.25V5H14.75Z" fill="black"/>
</svg>
