<svg width="20" height="22" viewBox="0 0 20 22" fill="none" xmlns="http://www.w3.org/2000/svg">
<path d="M2.26759 3.32782C3.95399 2.02741 6.57337 1 10 1C13.4266 1 16.046 2.02741 17.7324 3.32782C17.9693 3.51048 18.0877 3.60181 18.1849 3.76366C18.2665 3.89952 18.3252 4.10558 18.3275 4.26404C18.3302 4.4528 18.2672 4.62069 18.1413 4.95648C17.8305 5.78539 17.6751 6.19984 17.6122 6.61031C17.533 7.12803 17.5322 7.25474 17.6053 7.77338C17.6632 8.18457 17.9795 9.0598 18.6121 10.8103C18.844 11.452 19 12.1792 19 13C19 16 16.5 18.375 14 19C11.8082 19.548 10.6667 20.3333 10 21C9.3333 20.3333 8.1918 19.548 6 19C3.5 18.375 1 16 1 13C1 12.1792 1.15595 11.452 1.38785 10.8103C2.0205 9.0598 2.33682 8.18457 2.39473 7.77338C2.46777 7.25474 2.46702 7.12803 2.38777 6.61031C2.32494 6.19984 2.16952 5.78539 1.85868 4.95648C1.73276 4.62069 1.6698 4.4528 1.67252 4.26404C1.6748 4.10558 1.73351 3.89952 1.81509 3.76366C1.91227 3.60181 2.03071 3.51048 2.26759 3.32782Z" stroke="black" stroke-width="1.5" stroke-linecap="round" stroke-linejoin="round"/>
<path d="M10.6911 6.57767L11.395 7.99715C11.491 8.19475 11.7469 8.38428 11.9629 8.42057L13.2388 8.6343C14.0547 8.77141 14.2467 9.3682 13.6587 9.957L12.6668 10.9571C12.4989 11.1265 12.4069 11.4531 12.4589 11.687L12.7428 12.925C12.9668 13.9049 12.4509 14.284 11.591 13.7718L10.3951 13.0581C10.1791 12.929 9.8232 12.929 9.6032 13.0581L8.4073 13.7718C7.5514 14.284 7.03146 13.9009 7.25543 12.925L7.5394 11.687C7.5914 11.4531 7.49941 11.1265 7.33143 10.9571L6.33954 9.957C5.7556 9.3682 5.94358 8.77141 6.75949 8.6343L8.0353 8.42057C8.2473 8.38428 8.5033 8.19475 8.5993 7.99715L9.3032 6.57767C9.6872 5.80744 10.3111 5.80744 10.6911 6.57767Z" stroke="black" stroke-width="1.5" stroke-linecap="round" stroke-linejoin="round"/>
</svg>
