<svg width="20" height="20" viewBox="0 0 20 20" fill="none" xmlns="http://www.w3.org/2000/svg">
<path d="M9.09974 1.16602C5.45077 1.17259 3.53996 1.26219 2.31881 2.48354C1.00098 3.80158 1.00098 5.92294 1.00098 10.1656C1.00098 14.4083 1.00098 16.5297 2.31881 17.8477C3.63663 19.1658 5.75765 19.1658 9.99974 19.1658C14.2416 19.1658 16.3627 19.1658 17.6805 17.8477C18.9016 16.6264 18.9912 14.7152 18.9978 11.0657M18.5566 1.66201L9.04932 11.2245M18.5566 1.66201C18.0626 1.1674 14.7349 1.2135 14.0314 1.22351M18.5566 1.66201C19.0506 2.15663 19.0045 5.48862 18.9945 6.19303" stroke="#141B34" stroke-width="1.5" stroke-linecap="round" stroke-linejoin="round"/>
</svg>
