<svg width="12" height="12" viewBox="0 0 12 12" fill="none" xmlns="http://www.w3.org/2000/svg">
<path d="M11.3373 0.33949C11.0455 0.0400156 10.6137 -0.0715533 10.211 0.0458876L0.821331 2.77639C0.396491 2.89442 0.0953675 3.23323 0.0142509 3.66366C-0.0686163 4.10171 0.220836 4.65779 0.59899 4.89033L3.53494 6.69481C3.83607 6.87978 4.22472 6.83339 4.47391 6.58206L7.83587 3.19918C8.00511 3.02302 8.28522 3.02302 8.45446 3.19918C8.62369 3.36947 8.62369 3.64545 8.45446 3.82161L5.08666 7.20509C4.83689 7.45582 4.79021 7.84631 4.97403 8.14931L6.76793 11.1147C6.97802 11.467 7.33983 11.6667 7.73666 11.6667C7.78335 11.6667 7.83587 11.6667 7.88256 11.6608C8.33774 11.6021 8.69956 11.2909 8.83378 10.8505L11.6174 1.47279C11.74 1.0735 11.6291 0.638964 11.3373 0.33949Z" fill="black"/>
</svg>
