<svg width="22" height="22" viewBox="0 0 22 22" fill="none" xmlns="http://www.w3.org/2000/svg">
<g id="Vector">
<path id="Vector_2" d="M16 14V16M16.009 18H16M13.384 8.43749C12.7591 7.85581 11.9211 7.5 11 7.5C9.067 7.5 7.5 9.067 7.5 11C7.5 11.9211 7.85581 12.7591 8.43749 13.384M8.78 19.436C8.33442 18.9904 8.18844 18.8566 7.90573 18.7389C7.62149 18.6204 7.3257 18.6161 6.69171 18.6161C5.1838 18.6161 4.32083 18.6161 3.85239 18.1476C3.38394 17.6792 3.38394 16.8162 3.38394 15.3083C3.38394 14.6777 3.37981 14.3817 3.26299 14.0987C3.14573 13.8147 2.93965 13.6022 2.49166 13.1541C1.92759 12.59 1 11.8859 1 11C1 10.114 1.92756 9.4099 2.49166 8.84585C2.93756 8.39996 3.14378 8.18799 3.26137 7.90515C3.37951 7.62098 3.38394 7.32526 3.38394 6.69171C3.38394 5.1838 3.38394 4.32083 3.85239 3.85239C4.32083 3.38394 5.1838 3.38394 6.69171 3.38394C7.32091 3.38394 7.61661 3.38 7.89929 3.26379C8.18454 3.14652 8.39688 2.94064 8.84585 2.49166C9.4099 1.92756 10.2104 1 11 1C11.7896 1 12.59 1.92759 13.1541 2.49167C13.6029 2.94037 13.8155 3.14637 14.1001 3.26355C14.3827 3.37992 14.6787 3.38394 15.3083 3.38394C16.8162 3.38394 17.6792 3.38394 18.1476 3.85239C18.6161 4.32083 18.6161 5.1838 18.6161 6.69171C18.6161 7.32383 18.6202 7.6196 18.7378 7.90321C18.8555 8.18695 18.9891 8.3211 19.436 8.768M21 16C21 18.7614 18.7614 21 16 21C13.2386 21 11 18.7614 11 16C11 13.2386 13.2386 11 16 11C18.7614 11 21 13.2386 21 16Z" stroke="black" stroke-width="1.5" stroke-linecap="round"/>
</g>
</svg>
