<svg width="22" height="22" viewBox="0 0 22 22" fill="none" xmlns="http://www.w3.org/2000/svg">
<path d="M1 1L21 21M18.7687 14.7687C19.5144 13.4519 20 11.9256 20 10.1834V7.28038C20 5.64038 20 4.82038 19.5959 4.28538C19.1918 3.75039 18.2781 3.49065 16.4507 2.97119C15.2022 2.61629 14.1016 2.18872 13.2223 1.79838C12.0234 1.26619 11.424 1.00009 11 1.00009C10.576 1.00009 9.9766 1.26619 8.77771 1.79838C8.16296 2.07127 7.44008 2.36236 6.63411 2.6341M3.57329 3.57338C2.9913 3.78663 2.62297 3.99564 2.40411 4.28538C2 4.82038 2 5.64038 2 7.28038V10.1834C2 15.8086 7.06277 19.1836 9.594 20.5195C10.2011 20.8399 10.5046 21.0001 11 21.0001C11.4954 21.0001 11.7989 20.8399 12.406 20.5195C13.647 19.8646 15.4964 18.7195 17.0594 17.0595" stroke="#141B34" stroke-width="1.5" stroke-linecap="round"/>
</svg>
