<svg width="20" height="22" viewBox="0 0 20 22" fill="none" xmlns="http://www.w3.org/2000/svg">
<g id="Vector">
<path id="Vector_2" d="M6.5 10L7.5 11M7.5 11L8.5 12M7.5 11L8.5 10M7.5 11L6.5 12M1.5 10L2.5 11M2.5 11L3.5 12M2.5 11L3.5 10M2.5 11L1.5 12M11.5 10L12.5 11M12.5 11L13.5 12M12.5 11L13.5 10M12.5 11L11.5 12M16.5 10L17.5 11M17.5 11L18.5 12M17.5 11L18.5 10M17.5 11L16.5 12M17.6337 15C15.9509 17.8033 13.1068 19.6217 11.4059 20.5194C10.7988 20.8398 10.4953 21 9.99992 21C9.50452 21 9.20102 20.8398 8.59392 20.5194C6.89298 19.6217 4.04894 17.8033 2.36613 15M18.9998 7C18.9985 5.54505 18.9762 4.7889 18.5958 4.28529C18.1917 3.75029 17.278 3.49056 15.4506 2.9711C14.2021 2.6162 13.1015 2.18863 12.2222 1.79829C11.0233 1.2661 10.4239 1 9.99992 1C9.57592 1 8.97652 1.2661 7.77763 1.79829C6.89831 2.18863 5.79776 2.61619 4.54925 2.9711C2.72185 3.49056 1.80814 3.75029 1.40403 4.28529C1.02363 4.7889 1.00131 5.54505 1 7" stroke="black" stroke-width="1.5" stroke-linecap="round"/>
</g>
</svg>
