<svg width="22" height="22" viewBox="0 0 22 22" fill="none" xmlns="http://www.w3.org/2000/svg">
<g id="Vector">
<path id="Vector_2" d="M13.8966 2.21235C14.29 2.34194 14.714 2.12806 14.8436 1.73464C14.9731 1.34122 14.7593 0.917239 14.3658 0.787649L13.8966 2.21235ZM21.2577 7.7753C21.1336 7.38011 20.7127 7.16035 20.3175 7.28445C19.9223 7.40855 19.7026 7.82952 19.8267 8.2247L21.2577 7.7753ZM16.75 11C16.75 10.5858 16.4142 10.25 16 10.25C15.5858 10.25 15.25 10.5858 15.25 11H16.75ZM11 6.75C11.4142 6.75 11.75 6.41421 11.75 6C11.75 5.58579 11.4142 5.25 11 5.25V6.75ZM10.4697 10.4697C10.1768 10.7626 10.1768 11.2374 10.4697 11.5303C10.7626 11.8232 11.2374 11.8232 11.5303 11.5303L10.4697 10.4697ZM19.25 1C19.25 0.585786 18.9142 0.25 18.5 0.25C18.0858 0.25 17.75 0.585786 17.75 1H19.25ZM21 4.25C21.4142 4.25 21.75 3.91421 21.75 3.5C21.75 3.08579 21.4142 2.75 21 2.75V4.25ZM14.3658 0.787649C13.3061 0.438573 12.1743 0.25 11 0.25V1.75C12.0129 1.75 12.9863 1.91253 13.8966 2.21235L14.3658 0.787649ZM11 0.25C5.06294 0.25 0.25 5.06294 0.25 11H1.75C1.75 5.89136 5.89136 1.75 11 1.75V0.25ZM0.25 11C0.25 16.937 5.06293 21.75 11 21.75V20.25C5.89137 20.25 1.75 16.1086 1.75 11H0.25ZM11 21.75C16.937 21.75 21.75 16.937 21.75 11H20.25C20.25 16.1086 16.1086 20.25 11 20.25V21.75ZM21.75 11C21.75 9.87767 21.5777 8.79418 21.2577 7.7753L19.8267 8.2247C20.1015 9.0999 20.25 10.0319 20.25 11H21.75ZM15.25 11C15.25 13.3472 13.3472 15.25 11 15.25V16.75C14.1756 16.75 16.75 14.1756 16.75 11H15.25ZM11 15.25C8.6528 15.25 6.75 13.3472 6.75 11H5.25C5.25 14.1756 7.82436 16.75 11 16.75V15.25ZM6.75 11C6.75 8.65279 8.65279 6.75 11 6.75V5.25C7.82437 5.25 5.25 7.82437 5.25 11H6.75ZM17.9697 2.96967L10.4697 10.4697L11.5303 11.5303L19.0303 4.03033L17.9697 2.96967ZM19.25 3.5V1H17.75V3.5H19.25ZM18.5 4.25H21V2.75H18.5V4.25Z" fill="black"/>
</g>
</svg>
