<svg width="18" height="16" viewBox="0 0 18 16" fill="none" xmlns="http://www.w3.org/2000/svg">
<path d="M6.89474 9.3183C4.56933 9.3183 2.68421 7.47475 2.68421 5.20065C2.68421 2.92654 4.56933 1.08301 6.89474 1.08301C9.22013 1.08301 11.1053 2.92654 11.1053 5.20065C11.1053 7.47475 9.22013 9.3183 6.89474 9.3183ZM6.89474 9.3183C10.1503 9.3183 12.7895 11.8992 12.7895 15.083M6.89474 9.3183C3.63917 9.3183 1 11.8992 1 15.083M13.6316 6.43595H16.1579C16.623 6.43595 17 6.80466 17 7.25948V8.90654C17 9.36137 16.623 9.73007 16.1579 9.73007H13.6316C13.1665 9.73007 12.7895 9.36137 12.7895 8.90654V7.25948C12.7895 6.80466 13.1665 6.43595 13.6316 6.43595ZM13.6316 6.43595V5.20065C13.6316 4.51842 14.1971 3.96536 14.8947 3.96536C15.2183 3.96536 15.5133 4.0843 15.7368 4.27991" stroke="#3F8F43" stroke-width="1.5" stroke-linecap="round" stroke-linejoin="round"/>
</svg>
