<svg width="22" height="22" viewBox="0 0 22 22" fill="none" xmlns="http://www.w3.org/2000/svg">
<g id="Vector">
<path id="Vector_2" d="M9.5 21.75C9.91421 21.75 10.25 21.4142 10.25 21C10.25 20.5858 9.91421 20.25 9.5 20.25V21.75ZM1.71266 19.1966L1.19532 19.7396L1.19534 19.7396L1.71266 19.1966ZM4.57757 14.4816L4.96128 15.126L4.96129 15.126L4.57757 14.4816ZM12.7897 14.148C13.1873 14.2641 13.6038 14.036 13.7199 13.6384C13.8361 13.2408 13.6079 12.8243 13.2103 12.7082L12.7897 14.148ZM17.4332 12.8485L17.9843 13.3572L17.9844 13.3571L17.4332 12.8485ZM18.1143 12.1975L17.7309 11.5529L17.7307 11.553L18.1143 12.1975ZM19.5107 12.1765L19.8749 11.5209L19.8746 11.5208L19.5107 12.1765ZM20.2103 12.8067L20.7463 12.2821L20.7461 12.282L20.2103 12.8067ZM20.8272 13.5214L21.4893 13.1692L21.4892 13.1689L20.8272 13.5214ZM20.8066 14.9478L20.155 14.5764L20.1549 14.5765L20.8066 14.9478ZM20.1694 15.6437L20.6897 16.1839L20.6897 16.1839L20.1694 15.6437ZM15.9378 19.7194L15.4175 19.1792L15.4175 19.1792L15.9378 19.7194ZM14.5056 20.8577L14.2327 20.1591L14.2327 20.1591L14.5056 20.8577ZM12.6954 20.9859L12.6757 21.7357L12.6758 21.7357L12.6954 20.9859ZM12.5694 20.9826L12.5497 21.7324L12.5497 21.7324L12.5694 20.9826ZM12.0646 20.8785L11.5017 21.3742L11.502 21.3745L12.0646 20.8785ZM12.0162 20.3548L11.2685 20.2963L11.2684 20.2967L12.0162 20.3548ZM12.0284 20.1988L12.7761 20.2573L12.7761 20.2571L12.0284 20.1988ZM12.2807 18.6232L12.9685 18.9222L12.9686 18.922L12.2807 18.6232ZM13.2552 17.375L12.7041 16.8663L12.704 16.8664L13.2552 17.375ZM9.5 20.25H5.59087V21.75H9.5V20.25ZM5.59087 20.25C4.31842 20.25 3.26585 19.6404 2.22998 18.6536L1.19534 19.7396C2.36678 20.8556 3.77256 21.75 5.59087 21.75V20.25ZM2.23 18.6536C1.77937 18.2242 1.73427 17.9301 1.75377 17.7517C1.77833 17.5271 1.93184 17.2363 2.29197 16.8838C3.02893 16.1624 4.17252 15.5957 4.96128 15.126L4.19387 13.8372C3.56785 14.2099 2.14934 14.9244 1.24272 15.8118C0.781049 16.2637 0.342397 16.8592 0.262652 17.5888C0.177846 18.3646 0.516305 19.0927 1.19532 19.7396L2.23 18.6536ZM4.96129 15.126C7.32827 13.7166 10.1901 13.3886 12.7897 14.148L13.2103 12.7082C10.2213 11.835 6.92783 12.2092 4.19385 13.8372L4.96129 15.126ZM14.75 5.5C14.75 7.57107 13.0711 9.25 11 9.25V10.75C13.8995 10.75 16.25 8.39949 16.25 5.5H14.75ZM11 9.25C8.92893 9.25 7.25 7.57107 7.25 5.5H5.75C5.75 8.39949 8.10051 10.75 11 10.75V9.25ZM7.25 5.5C7.25 3.42893 8.92893 1.75 11 1.75V0.25C8.10051 0.25 5.75 2.60051 5.75 5.5H7.25ZM11 1.75C13.0711 1.75 14.75 3.42893 14.75 5.5H16.25C16.25 2.60051 13.8995 0.25 11 0.25V1.75ZM17.9844 13.3571C18.3564 12.9539 18.4372 12.8781 18.4979 12.842L17.7307 11.553C17.4352 11.7289 17.1806 12.0163 16.882 12.3399L17.9844 13.3571ZM18.4977 12.8421C18.6983 12.7228 18.943 12.7192 19.1467 12.8323L19.8746 11.5208C19.2041 11.1486 18.3901 11.1608 17.7309 11.5529L18.4977 12.8421ZM19.1465 12.8322C19.208 12.8663 19.2905 12.9394 19.6744 13.3315L20.7461 12.282C20.4387 11.968 20.1756 11.6879 19.8749 11.5209L19.1465 12.8322ZM19.6743 13.3313C20.0569 13.7222 20.1301 13.808 20.1652 13.8739L21.4892 13.1689C21.3273 12.8648 21.0549 12.5974 20.7463 12.2821L19.6743 13.3313ZM20.165 13.8736C20.2818 14.0932 20.2778 14.3609 20.155 14.5764L21.4582 15.3192C21.8359 14.6565 21.8475 13.8426 21.4893 13.1692L20.165 13.8736ZM20.1549 14.5765C20.1182 14.6409 20.043 14.7242 19.6491 15.1035L20.6897 16.1839C21.0072 15.8781 21.2875 15.6187 21.4582 15.3191L20.1549 14.5765ZM19.6491 15.1035L15.4175 19.1792L16.4581 20.2596L20.6897 16.1839L19.6491 15.1035ZM15.4175 19.1792C14.6987 19.8716 14.4818 20.0618 14.2327 20.1591L14.7784 21.5563C15.3718 21.3246 15.8289 20.8656 16.4581 20.2596L15.4175 19.1792ZM14.2327 20.1591C13.9854 20.2557 13.7029 20.262 12.715 20.2362L12.6758 21.7357C13.5399 21.7582 14.1836 21.7887 14.7785 21.5563L14.2327 20.1591ZM12.715 20.2362L12.589 20.2329L12.5497 21.7324L12.6757 21.7357L12.715 20.2362ZM12.5891 20.2329C12.5157 20.231 12.4647 20.2296 12.4224 20.2273C12.3797 20.2251 12.3652 20.2229 12.3655 20.2229C12.3663 20.223 12.4027 20.2288 12.4544 20.2528C12.4814 20.2654 12.5117 20.2825 12.5428 20.3053C12.5741 20.3284 12.6024 20.3545 12.6271 20.3825L11.502 21.3745C11.7023 21.6017 11.9506 21.6744 12.1185 21.7024C12.2631 21.7266 12.431 21.7292 12.5497 21.7324L12.5891 20.2329ZM12.6274 20.3828C12.6522 20.411 12.6742 20.442 12.6926 20.475C12.711 20.5077 12.7237 20.5386 12.7324 20.5653C12.7409 20.5915 12.7453 20.6127 12.7475 20.6263C12.7497 20.6398 12.7501 20.6476 12.7501 20.6477C12.7502 20.6478 12.7499 20.6431 12.75 20.6317C12.7502 20.6203 12.7507 20.605 12.7518 20.5841C12.7541 20.5401 12.7581 20.4875 12.7639 20.4129L11.2684 20.2967C11.2589 20.419 11.2444 20.5859 11.2525 20.7312C11.2617 20.8965 11.3037 21.1493 11.5017 21.3742L12.6274 20.3828ZM12.7639 20.4133L12.7761 20.2573L11.2807 20.1403L11.2685 20.2963L12.7639 20.4133ZM12.7761 20.2571C12.8431 19.3983 12.8724 19.1434 12.9685 18.9222L11.5928 18.3243C11.3732 18.8296 11.3397 19.3829 11.2807 20.1405L12.7761 20.2571ZM12.9686 18.922C13.0642 18.702 13.2277 18.5107 13.8063 17.8837L12.704 16.8664C12.1937 17.4194 11.8128 17.8178 11.5928 18.3244L12.9686 18.922ZM13.8063 17.8837L17.9843 13.3572L16.8821 12.3398L12.7041 16.8663L13.8063 17.8837Z" fill="black"/>
</g>
</svg>
