<svg width="22" height="22" viewBox="0 0 22 22" fill="none" xmlns="http://www.w3.org/2000/svg">
<g id="Vector">
<path id="Vector_2" d="M12 21.75C12.4142 21.75 12.75 21.4142 12.75 21C12.75 20.5858 12.4142 20.25 12 20.25V21.75ZM1.71266 19.1966L1.19532 19.7396L1.19534 19.7396L1.71266 19.1966ZM4.57757 14.4816L4.96128 15.126L4.96128 15.126L4.57757 14.4816ZM12.325 14.0245C12.7278 14.1211 13.1326 13.873 13.2293 13.4702C13.3259 13.0674 13.0778 12.6626 12.675 12.5659L12.325 14.0245ZM14.4697 20.4697C14.1768 20.7626 14.1768 21.2374 14.4697 21.5303C14.7626 21.8232 15.2374 21.8232 15.5303 21.5303L14.4697 20.4697ZM21.5303 15.5303C21.8232 15.2374 21.8232 14.7626 21.5303 14.4697C21.2374 14.1768 20.7626 14.1768 20.4697 14.4697L21.5303 15.5303ZM15.5303 14.4697C15.2374 14.1768 14.7626 14.1768 14.4697 14.4697C14.1768 14.7626 14.1768 15.2374 14.4697 15.5303L15.5303 14.4697ZM20.4697 21.5303C20.7626 21.8232 21.2374 21.8232 21.5303 21.5303C21.8232 21.2374 21.8232 20.7626 21.5303 20.4697L20.4697 21.5303ZM12 20.25H5.59087V21.75H12V20.25ZM5.59087 20.25C4.31842 20.25 3.26584 19.6404 2.22998 18.6536L1.19534 19.7396C2.36678 20.8556 3.77256 21.75 5.59087 21.75V20.25ZM2.23 18.6536C1.77937 18.2243 1.73427 17.9301 1.75377 17.7518C1.77833 17.5271 1.93184 17.2363 2.29197 16.8838C3.02893 16.1624 4.17252 15.5957 4.96128 15.126L4.19387 13.8372C3.56785 14.2099 2.14934 14.9244 1.24272 15.8118C0.781048 16.2637 0.342397 16.8592 0.262652 17.5888C0.177847 18.3646 0.516305 19.0927 1.19532 19.7396L2.23 18.6536ZM4.96128 15.126C7.18768 13.8003 9.85221 13.4311 12.325 14.0245L12.675 12.5659C9.8328 11.8839 6.7659 12.3057 4.19386 13.8372L4.96128 15.126ZM14.75 5.5C14.75 7.57107 13.0711 9.25 11 9.25V10.75C13.8995 10.75 16.25 8.39949 16.25 5.5H14.75ZM11 9.25C8.92893 9.25 7.25 7.57107 7.25 5.5H5.75C5.75 8.39949 8.10051 10.75 11 10.75V9.25ZM7.25 5.5C7.25 3.42893 8.92893 1.75 11 1.75V0.25C8.10051 0.25 5.75 2.60051 5.75 5.5H7.25ZM11 1.75C13.0711 1.75 14.75 3.42893 14.75 5.5H16.25C16.25 2.60051 13.8995 0.25 11 0.25V1.75ZM15.5303 21.5303L18.5303 18.5303L17.4697 17.4697L14.4697 20.4697L15.5303 21.5303ZM18.5303 18.5303L21.5303 15.5303L20.4697 14.4697L17.4697 17.4697L18.5303 18.5303ZM18.5303 17.4697L15.5303 14.4697L14.4697 15.5303L17.4697 18.5303L18.5303 17.4697ZM17.4697 18.5303L20.4697 21.5303L21.5303 20.4697L18.5303 17.4697L17.4697 18.5303Z" fill="black"/>
</g>
</svg>
