<svg width="22" height="22" viewBox="0 0 22 22" fill="none" xmlns="http://www.w3.org/2000/svg">
<g id="Vector">
<path id="Vector_2" d="M13 16.25C12.5858 16.25 12.25 16.5858 12.25 17C12.25 17.4142 12.5858 17.75 13 17.75V16.25ZM15 19L14.3292 19.3354C14.4501 19.5772 14.6917 19.7352 14.9616 19.749C15.2316 19.7628 15.4881 19.6303 15.6331 19.4022L15 19ZM21.2504 13.707C21.6408 13.5687 21.8453 13.1401 21.707 12.7496C21.5687 12.3592 21.1401 12.1547 20.7496 12.293L21.2504 13.707ZM12 21.75C12.4142 21.75 12.75 21.4142 12.75 21C12.75 20.5858 12.4142 20.25 12 20.25V21.75ZM1.71266 19.1966L1.19532 19.7396L1.19534 19.7396L1.71266 19.1966ZM4.57757 14.4816L4.96128 15.126L4.96128 15.126L4.57757 14.4816ZM14.6468 14.9048C15.0122 15.0999 15.4665 14.9618 15.6616 14.5964C15.8567 14.231 15.7186 13.7767 15.3532 13.5816L14.6468 14.9048ZM13 17C13 17.75 12.9993 17.75 12.9985 17.75C12.9983 17.75 12.9976 17.75 12.9971 17.75C12.9962 17.75 12.9952 17.75 12.9943 17.75C12.9925 17.75 12.9907 17.7499 12.9889 17.7499C12.9854 17.7499 12.9822 17.7498 12.9791 17.7497C12.973 17.7495 12.9677 17.7492 12.9632 17.7489C12.9542 17.7484 12.9485 17.7477 12.9458 17.7473C12.9404 17.7466 12.9475 17.7472 12.9658 17.7524C13.0013 17.7625 13.0867 17.7925 13.209 17.874C13.4522 18.0362 13.8737 18.4244 14.3292 19.3354L15.6708 18.6646C15.1263 17.5756 14.5478 16.9638 14.041 16.626C13.7883 16.4575 13.5612 16.3625 13.3779 16.3101C13.2868 16.2841 13.2081 16.269 13.144 16.2605C13.1121 16.2562 13.0839 16.2536 13.0598 16.252C13.0477 16.2513 13.0367 16.2508 13.0267 16.2504C13.0217 16.2503 13.017 16.2502 13.0125 16.2501C13.0103 16.2501 13.0082 16.25 13.0061 16.25C13.005 16.25 13.004 16.25 13.003 16.25C13.0025 16.25 13.0017 16.25 13.0015 16.25C13.0007 16.25 13 16.25 13 17ZM15 19C15.6331 19.4022 15.633 19.4023 15.633 19.4023C15.633 19.4023 15.6329 19.4023 15.6329 19.4023C15.633 19.4023 15.633 19.4022 15.6331 19.402C15.6334 19.4017 15.6338 19.4011 15.6344 19.4001C15.6356 19.3982 15.6375 19.3952 15.6402 19.391C15.6456 19.3825 15.654 19.3696 15.6653 19.3523C15.6877 19.3176 15.7217 19.2658 15.7662 19.199C15.8553 19.0653 15.9866 18.8717 16.1532 18.6356C16.4869 18.1628 16.9598 17.5234 17.5171 16.8554C18.0758 16.1857 18.7101 15.4983 19.3658 14.9233C20.0294 14.3414 20.6737 13.9112 21.2504 13.707L20.7496 12.293C19.9146 12.5888 19.103 13.1586 18.3768 13.7955C17.6429 14.4392 16.9536 15.1893 16.3653 15.8946C15.7755 16.6016 15.2778 17.2747 14.9277 17.7706C14.7524 18.0189 14.6135 18.2238 14.5178 18.3674C14.47 18.4392 14.4329 18.4958 14.4075 18.535C14.3948 18.5545 14.385 18.5697 14.3782 18.5803C14.3748 18.5856 14.3721 18.5897 14.3703 18.5926C14.3693 18.5941 14.3686 18.5953 14.368 18.5961C14.3677 18.5966 14.3675 18.5969 14.3673 18.5972C14.3673 18.5973 14.3672 18.5975 14.3671 18.5976C14.367 18.5977 14.3669 18.5978 15 19ZM12 20.25H5.59087V21.75H12V20.25ZM5.59087 20.25C4.31842 20.25 3.26584 19.6404 2.22998 18.6536L1.19534 19.7396C2.36678 20.8556 3.77256 21.75 5.59087 21.75V20.25ZM2.23 18.6536C1.77937 18.2243 1.73427 17.9301 1.75377 17.7518C1.77833 17.5271 1.93184 17.2363 2.29197 16.8838C3.02893 16.1624 4.17252 15.5957 4.96128 15.126L4.19387 13.8372C3.56785 14.2099 2.14934 14.9244 1.24272 15.8118C0.781048 16.2637 0.342397 16.8592 0.262652 17.5888C0.177846 18.3646 0.516305 19.0927 1.19532 19.7396L2.23 18.6536ZM4.96128 15.126C7.91266 13.3687 11.6301 13.2942 14.6468 14.9048L15.3532 13.5816C11.8757 11.725 7.59916 11.8095 4.19386 13.8372L4.96128 15.126ZM14.75 5.5C14.75 7.57107 13.0711 9.25 11 9.25V10.75C13.8995 10.75 16.25 8.39949 16.25 5.5H14.75ZM11 9.25C8.92893 9.25 7.25 7.57107 7.25 5.5H5.75C5.75 8.39949 8.10051 10.75 11 10.75V9.25ZM7.25 5.5C7.25 3.42893 8.92893 1.75 11 1.75V0.25C8.10051 0.25 5.75 2.60051 5.75 5.5H7.25ZM11 1.75C13.0711 1.75 14.75 3.42893 14.75 5.5H16.25C16.25 2.60051 13.8995 0.25 11 0.25V1.75Z" fill="black"/>
</g>
</svg>
