<svg width="20" height="20" viewBox="0 0 20 20" fill="none" xmlns="http://www.w3.org/2000/svg">
<g id="Vector">
<path id="Vector_2" d="M4.18007 13.2964L4.55932 13.9434L4.55932 13.9434L4.18007 13.2964ZM1.63348 17.422L1.12043 17.969L1.12044 17.969L1.63348 17.422ZM16.3665 17.422L15.8535 16.8749L15.8535 16.8749L16.3665 17.422ZM13.8199 13.2964L13.4406 13.9434L13.4407 13.9434L13.8199 13.2964ZM15.25 3.53846C15.25 3.95267 15.5858 4.28846 16 4.28846C16.4142 4.28846 16.75 3.95267 16.75 3.53846H15.25ZM18.7623 4.36984L18.127 3.97127L18.127 3.9713L18.7623 4.36984ZM16.75 7C16.75 7.41421 17.0858 7.75 17.5 7.75C17.9142 7.75 18.25 7.41421 18.25 7H16.75ZM17.5 8.25C17.0858 8.25 16.75 8.58579 16.75 9C16.75 9.41421 17.0858 9.75 17.5 9.75V8.25ZM17.509 9.75C17.9232 9.75 18.259 9.41421 18.259 9C18.259 8.58579 17.9232 8.25 17.509 8.25V9.75ZM3.80082 12.6493C3.25346 12.9702 1.97731 13.6034 1.16169 14.3892C0.746208 14.7896 0.336651 15.3303 0.26188 16.0037C0.181759 16.7252 0.504109 17.391 1.12043 17.969L2.14653 16.8749C1.75872 16.5112 1.74012 16.2826 1.75272 16.1692C1.77066 16.0076 1.88747 15.7729 2.20247 15.4694C2.84782 14.8476 3.8491 14.3597 4.55932 13.9434L3.80082 12.6493ZM1.12044 17.969C2.17051 18.9538 3.43842 19.75 5.08077 19.75V18.25C3.97578 18.25 3.05849 17.7301 2.14652 16.8749L1.12044 17.969ZM5.08077 19.75H12.9192V18.25H5.08077V19.75ZM12.9192 19.75C14.5616 19.75 15.8295 18.9538 16.8795 17.969L15.8535 16.8749C14.9415 17.7301 14.0242 18.25 12.9192 18.25V19.75ZM16.8795 17.969C17.4959 17.391 17.8182 16.7252 17.7381 16.0037C17.6633 15.3303 17.2538 14.7896 16.8383 14.3892C16.0227 13.6034 14.7465 12.9701 14.1991 12.6493L13.4407 13.9434C14.1509 14.3597 15.1522 14.8476 15.7975 15.4694C16.1125 15.7729 16.2293 16.0076 16.2473 16.1692C16.2599 16.2826 16.2413 16.5112 15.8535 16.8749L16.8795 17.969ZM14.1992 12.6493C11.016 10.7836 6.98401 10.7836 3.80082 12.6493L4.55932 13.9434C7.27411 12.3522 10.7258 12.3522 13.4406 13.9434L14.1992 12.6493ZM12.25 5C12.25 6.79492 10.7949 8.25 9 8.25V9.75C11.6233 9.75 13.75 7.62336 13.75 5H12.25ZM9 8.25C7.20507 8.25 5.75 6.79493 5.75 5H4.25C4.25 7.62335 6.37665 9.75 9 9.75V8.25ZM5.75 5C5.75 3.20507 7.20507 1.75 9 1.75V0.25C6.37665 0.25 4.25 2.37665 4.25 5H5.75ZM9 1.75C10.7949 1.75 12.25 3.20508 12.25 5H13.75C13.75 2.37664 11.6233 0.25 9 0.25V1.75ZM16.75 3.53846C16.75 3.085 17.1036 2.75 17.5 2.75V1.25C16.2396 1.25 15.25 2.29258 15.25 3.53846H16.75ZM17.5 2.75C17.8964 2.75 18.25 3.085 18.25 3.53846H19.75C19.75 2.29258 18.7604 1.25 17.5 1.25V2.75ZM18.25 3.53846C18.25 3.70057 18.2041 3.84826 18.127 3.97127L19.3976 4.76841C19.6213 4.41194 19.75 3.98889 19.75 3.53846H18.25ZM18.127 3.9713C18.0378 4.11346 17.9246 4.26295 17.7859 4.43974C17.6548 4.60682 17.4947 4.80594 17.3514 5.00798C17.069 5.40602 16.75 5.94948 16.75 6.61538H18.25C18.25 6.43162 18.3381 6.20957 18.5748 5.87589C18.691 5.71207 18.8184 5.55376 18.9661 5.36558C19.1061 5.18711 19.2627 4.98348 19.3976 4.76838L18.127 3.9713ZM16.75 6.61538V7H18.25V6.61538H16.75ZM17.5 9.75H17.509V8.25H17.5V9.75Z" fill="black"/>
</g>
</svg>
