<svg width="22" height="20" viewBox="0 0 22 20" fill="none" xmlns="http://www.w3.org/2000/svg">
<g id="Vector">
<path id="Vector_2" d="M4.18007 13.2964L4.55932 13.9434L4.55932 13.9434L4.18007 13.2964ZM1.63348 17.422L1.12043 17.969L1.12044 17.969L1.63348 17.422ZM16.3665 17.422L15.8535 16.8749L15.8535 16.8749L16.3665 17.422ZM13.8199 13.2964L13.4406 13.9434L13.4407 13.9434L13.8199 13.2964ZM16.3468 3.04927C15.9795 2.85776 15.5265 3.00024 15.335 3.36752C15.1435 3.7348 15.286 4.1878 15.6532 4.37931L16.3468 3.04927ZM17.5 5L16.8724 5.4106C17.0194 5.6353 17.2753 5.76427 17.5434 5.74875C17.8114 5.73322 18.0507 5.57558 18.1708 5.33541L17.5 5ZM21.3354 1.67082C21.7059 1.48558 21.8561 1.03507 21.6708 0.66459C21.4856 0.294106 21.0351 0.143938 20.6646 0.32918L21.3354 1.67082ZM3.80082 12.6493C3.25346 12.9702 1.9773 13.6034 1.16169 14.3892C0.746208 14.7896 0.336652 15.3303 0.26188 16.0037C0.181759 16.7252 0.504108 17.391 1.12043 17.969L2.14653 16.8749C1.75872 16.5112 1.74012 16.2826 1.75272 16.1692C1.77066 16.0076 1.88747 15.7729 2.20247 15.4694C2.84782 14.8476 3.8491 14.3597 4.55932 13.9434L3.80082 12.6493ZM1.12044 17.969C2.17051 18.9538 3.43842 19.75 5.08077 19.75V18.25C3.97578 18.25 3.05849 17.7301 2.14652 16.8749L1.12044 17.969ZM5.08077 19.75H12.9192V18.25H5.08077V19.75ZM12.9192 19.75C14.5616 19.75 15.8295 18.9538 16.8795 17.969L15.8535 16.8749C14.9415 17.7301 14.0242 18.25 12.9192 18.25V19.75ZM16.8795 17.969C17.4959 17.391 17.8182 16.7252 17.7381 16.0037C17.6633 15.3303 17.2538 14.7896 16.8383 14.3892C16.0227 13.6034 14.7465 12.9701 14.1991 12.6493L13.4407 13.9434C14.1509 14.3597 15.1522 14.8476 15.7975 15.4694C16.1125 15.7729 16.2293 16.0076 16.2473 16.1692C16.2599 16.2826 16.2413 16.5112 15.8535 16.8749L16.8795 17.969ZM14.1992 12.6493C11.0159 10.7836 6.98401 10.7836 3.80081 12.6493L4.55932 13.9434C7.27411 12.3522 10.7258 12.3522 13.4406 13.9434L14.1992 12.6493ZM12.25 5C12.25 6.79492 10.7949 8.25 9 8.25V9.75C11.6233 9.75 13.75 7.62336 13.75 5H12.25ZM9 8.25C7.20507 8.25 5.75 6.79493 5.75 5H4.25C4.25 7.62335 6.37665 9.75 9 9.75V8.25ZM5.75 5C5.75 3.20507 7.20507 1.75 9 1.75V0.25C6.37665 0.25 4.25 2.37665 4.25 5H5.75ZM9 1.75C10.7949 1.75 12.25 3.20508 12.25 5H13.75C13.75 2.37664 11.6233 0.25 9 0.25V1.75ZM16 3.71429C15.6532 4.37931 15.6531 4.37925 15.653 4.37918C15.653 4.37916 15.6528 4.3791 15.6528 4.37907C15.6526 4.37899 15.6525 4.37892 15.6524 4.37887C15.6522 4.37875 15.652 4.37866 15.6519 4.3786C15.6517 4.37849 15.6517 4.3785 15.6519 4.37863C15.6524 4.37888 15.6538 4.37962 15.656 4.38083C15.6605 4.38324 15.6684 4.38754 15.6794 4.39364C15.7014 4.40585 15.7354 4.4252 15.7787 4.45114C15.8657 4.50327 15.9878 4.58052 16.1231 4.67837C16.4053 4.88236 16.6955 5.14026 16.8724 5.4106L18.1276 4.5894C17.8045 4.09547 17.3447 3.71051 17.0019 3.46272C16.8247 3.33467 16.6655 3.2338 16.5494 3.16428C16.4912 3.12938 16.4432 3.10203 16.4085 3.08274C16.3911 3.07309 16.3771 3.06543 16.3667 3.05984C16.3615 3.05704 16.3572 3.05476 16.3538 3.05299C16.3522 3.05211 16.3508 3.05136 16.3496 3.05074C16.349 3.05043 16.3485 3.05015 16.348 3.04991C16.3478 3.04978 16.3475 3.04967 16.3473 3.04956C16.3472 3.04951 16.3471 3.04944 16.347 3.04941C16.3469 3.04934 16.3468 3.04927 16 3.71429ZM17.5 5C18.1708 5.33541 18.1708 5.33553 18.1707 5.33564C18.1707 5.33566 18.1706 5.33576 18.1706 5.3358C18.1706 5.33588 18.1706 5.33592 18.1706 5.33592C18.1706 5.33591 18.1707 5.33572 18.1709 5.33535C18.1712 5.33462 18.1719 5.33318 18.173 5.33106C18.1752 5.32681 18.1788 5.31982 18.1837 5.31023C18.1936 5.29106 18.209 5.26154 18.2297 5.22288C18.2711 5.14551 18.3334 5.03182 18.4147 4.8914C18.5777 4.60986 18.8148 4.22457 19.1103 3.81093C19.7184 2.95954 20.5055 2.08575 21.3354 1.67082L20.6646 0.32918C19.4945 0.914247 18.5316 2.04046 17.8897 2.93907C17.5602 3.40043 17.2973 3.82764 17.1166 4.13985C17.026 4.2963 16.9555 4.4248 16.907 4.5154C16.8828 4.56073 16.864 4.59664 16.851 4.6219C16.8444 4.63453 16.8393 4.6445 16.8357 4.65167C16.8339 4.65525 16.8324 4.65813 16.8313 4.66029C16.8308 4.66137 16.8303 4.66227 16.83 4.66299C16.8298 4.66335 16.8296 4.66366 16.8295 4.66393C16.8294 4.66406 16.8294 4.66423 16.8293 4.66429C16.8293 4.66445 16.8292 4.66459 17.5 5Z" fill="black"/>
</g>
</svg>
