<svg width="21" height="22" viewBox="0 0 21 22" fill="none" xmlns="http://www.w3.org/2000/svg">
<g id="Vector">
<path id="Vector_2" d="M15.25 14.8462C15.25 15.2604 15.5858 15.5962 16 15.5962C16.4142 15.5962 16.75 15.2604 16.75 14.8462H15.25ZM19.6831 15.8438L19.0679 15.4148L19.0678 15.4149L19.6831 15.8438ZM17.25 19C17.25 19.4142 17.5858 19.75 18 19.75C18.4142 19.75 18.75 19.4142 18.75 19H17.25ZM17.9902 20.25C17.576 20.25 17.2402 20.5858 17.2402 21C17.2402 21.4142 17.576 21.75 17.9902 21.75V20.25ZM17.9992 21.75C18.4134 21.75 18.7492 21.4142 18.7492 21C18.7492 20.5858 18.4134 20.25 17.9992 20.25V21.75ZM15 21.75C15.4142 21.75 15.75 21.4142 15.75 21C15.75 20.5858 15.4142 20.25 15 20.25V21.75ZM1.71266 19.1966L1.19532 19.7396L1.19534 19.7396L1.71266 19.1966ZM4.57757 14.4816L4.96128 15.126L4.96129 15.126L4.57757 14.4816ZM12.7897 14.148C13.1873 14.2641 13.6038 14.036 13.7199 13.6384C13.8361 13.2408 13.6079 12.8243 13.2103 12.7082L12.7897 14.148ZM16.75 14.8462C16.75 14.2962 17.252 13.75 18 13.75V12.25C16.5388 12.25 15.25 13.357 15.25 14.8462H16.75ZM18 13.75C18.748 13.75 19.25 14.2962 19.25 14.8462H20.75C20.75 13.357 19.4612 12.25 18 12.25V13.75ZM19.25 14.8462C19.25 15.0518 19.1857 15.2458 19.0679 15.4148L20.2983 16.2728C20.5817 15.8664 20.75 15.3756 20.75 14.8462H19.25ZM19.0678 15.4149C18.9439 15.5927 18.7879 15.7778 18.6026 15.9904C18.4258 16.1931 18.2163 16.4276 18.0284 16.6661C17.6618 17.1312 17.25 17.7622 17.25 18.5385H18.75C18.75 18.2952 18.8809 18.0076 19.2064 17.5946C19.3646 17.394 19.5385 17.1995 19.7333 16.976C19.9196 16.7623 20.1235 16.5236 20.2984 16.2727L19.0678 15.4149ZM17.25 18.5385V19H18.75V18.5385H17.25ZM17.9902 21.75H17.9992V20.25H17.9902V21.75ZM15 20.25H5.59087V21.75H15V20.25ZM5.59087 20.25C4.31842 20.25 3.26585 19.6404 2.22998 18.6536L1.19534 19.7396C2.36678 20.8556 3.77256 21.75 5.59087 21.75V20.25ZM2.23 18.6536C1.77937 18.2242 1.73427 17.9301 1.75377 17.7517C1.77833 17.5271 1.93184 17.2363 2.29197 16.8838C3.02893 16.1624 4.17252 15.5957 4.96128 15.126L4.19387 13.8372C3.56785 14.2099 2.14934 14.9244 1.24272 15.8118C0.781049 16.2637 0.342397 16.8592 0.262652 17.5888C0.177846 18.3646 0.516305 19.0927 1.19532 19.7396L2.23 18.6536ZM4.96129 15.126C7.32827 13.7166 10.1901 13.3886 12.7897 14.148L13.2103 12.7082C10.2213 11.835 6.92783 12.2092 4.19385 13.8372L4.96129 15.126ZM14.75 5.5C14.75 7.57107 13.0711 9.25 11 9.25V10.75C13.8995 10.75 16.25 8.39949 16.25 5.5H14.75ZM11 9.25C8.92893 9.25 7.25 7.57107 7.25 5.5H5.75C5.75 8.39949 8.10051 10.75 11 10.75V9.25ZM7.25 5.5C7.25 3.42893 8.92893 1.75 11 1.75V0.25C8.10051 0.25 5.75 2.60051 5.75 5.5H7.25ZM11 1.75C13.0711 1.75 14.75 3.42893 14.75 5.5H16.25C16.25 2.60051 13.8995 0.25 11 0.25V1.75Z" fill="black"/>
</g>
</svg>
