<svg width="22" height="20" viewBox="0 0 22 20" fill="none" xmlns="http://www.w3.org/2000/svg">
<g id="Vector">
<path id="Vector_2" d="M4.18007 13.2964L4.55932 13.9434L4.55932 13.9434L4.18007 13.2964ZM1.63348 17.422L1.12043 17.969L1.12044 17.969L1.63348 17.422ZM16.3665 17.422L15.8535 16.8749L15.8535 16.8749L16.3665 17.422ZM13.8199 13.2964L13.4406 13.9434L13.4407 13.9434L13.8199 13.2964ZM21 5.25C21.4142 5.25 21.75 4.91421 21.75 4.5C21.75 4.08579 21.4142 3.75 21 3.75V5.25ZM16 3.75C15.5858 3.75 15.25 4.08579 15.25 4.5C15.25 4.91421 15.5858 5.25 16 5.25V3.75ZM3.80082 12.6493C3.25346 12.9702 1.9773 13.6034 1.16169 14.3892C0.746208 14.7896 0.336652 15.3303 0.26188 16.0037C0.181759 16.7252 0.504108 17.391 1.12043 17.969L2.14653 16.8749C1.75872 16.5112 1.74012 16.2826 1.75272 16.1692C1.77066 16.0076 1.88747 15.7729 2.20247 15.4694C2.84782 14.8476 3.8491 14.3597 4.55932 13.9434L3.80082 12.6493ZM1.12044 17.969C2.17051 18.9538 3.43842 19.75 5.08077 19.75V18.25C3.97578 18.25 3.05849 17.7301 2.14652 16.8749L1.12044 17.969ZM5.08077 19.75H12.9192V18.25H5.08077V19.75ZM12.9192 19.75C14.5616 19.75 15.8295 18.9538 16.8795 17.969L15.8535 16.8749C14.9415 17.7301 14.0242 18.25 12.9192 18.25V19.75ZM16.8795 17.969C17.4959 17.391 17.8182 16.7252 17.7381 16.0037C17.6633 15.3303 17.2538 14.7896 16.8383 14.3892C16.0227 13.6034 14.7465 12.9701 14.1991 12.6493L13.4407 13.9434C14.1509 14.3597 15.1522 14.8476 15.7975 15.4694C16.1125 15.7729 16.2293 16.0076 16.2473 16.1692C16.2599 16.2826 16.2413 16.5112 15.8535 16.8749L16.8795 17.969ZM14.1992 12.6493C11.0159 10.7836 6.98401 10.7836 3.80081 12.6493L4.55932 13.9434C7.27411 12.3522 10.7258 12.3522 13.4406 13.9434L14.1992 12.6493ZM12.25 5C12.25 6.79492 10.7949 8.25 9 8.25V9.75C11.6233 9.75 13.75 7.62336 13.75 5H12.25ZM9 8.25C7.20507 8.25 5.75 6.79493 5.75 5H4.25C4.25 7.62335 6.37665 9.75 9 9.75V8.25ZM5.75 5C5.75 3.20507 7.20507 1.75 9 1.75V0.25C6.37665 0.25 4.25 2.37665 4.25 5H5.75ZM9 1.75C10.7949 1.75 12.25 3.20508 12.25 5H13.75C13.75 2.37664 11.6233 0.25 9 0.25V1.75ZM21 3.75H16V5.25H21V3.75Z" fill="black"/>
</g>
</svg>
